<svg xmlns="http://www.w3.org/2000/svg" width="693" height="589" viewBox="0 0 693 589" fill="none"><path d="M660.772 359.27C659.976 360.799 659.147 362.302 658.29 363.796C625.458 420.995 549.082 456.518 420.277 437.717C347.143 426.534 315.996 467.553 285.837 509.567C285.322 510.292 284.806 511.018 284.282 511.743C252.699 555.802 221.43 599.983 143.246 585.297C60.3613 572.192 9.20825 504.893 1.29278 433.043C1.19637 432.169 1.10934 431.287 1.03042 430.413C-3.41641 383.829 10.3264 335.594 45.3865 299.179C66.5644 277.189 96.6535 265.508 127.712 265.875C137.064 266.049 146.411 265.356 155.635 263.805C157.67 263.447 159.645 263.053 161.567 262.608C201.135 253.565 219.369 226.683 230.551 193.876C230.814 193.099 231.076 192.321 231.329 191.535C257.006 113.298 245.133 3.48684 384.728 19.641C509.645 28.8494 601.319 98.1138 646.286 178.028C646.732 178.832 647.177 179.636 647.614 180.439C659.973 202.613 668.793 226.581 673.754 251.477C674.034 252.875 674.287 254.273 674.523 255.671C680.883 292.784 676.716 328.858 660.772 359.27Z" fill="#F2F2F2"></path><path d="M647.613 180.439C638.651 191.09 628.553 200.731 617.498 209.191C574.435 242.216 519.892 260.126 466.083 263.883C438.43 265.827 410.64 263.939 383.504 258.274C355.896 252.49 329.564 242.303 304.061 230.404C279.258 218.828 255.188 205.775 230.551 193.876C230.813 193.098 231.075 192.32 231.328 191.534C258.194 204.464 284.509 218.714 311.688 231.033C337.296 242.644 363.802 252.114 391.524 257.182C419.183 262.203 447.411 263.309 475.378 260.467C529.039 255.067 583.626 235.27 624.88 199.852C632.626 193.202 639.788 185.901 646.285 178.027C646.731 178.831 647.176 179.635 647.613 180.439Z" fill="white"></path><path d="M461.172 0.82132C461.11 0.82132 461.047 0.823316 460.984 0.827316C394.768 4.97579 342.898 60.2465 342.898 126.657C342.898 193.068 394.768 248.339 460.984 252.486C461.38 252.513 461.777 252.458 462.15 252.324C462.523 252.19 462.864 251.98 463.153 251.708C463.44 251.44 463.669 251.116 463.825 250.755C463.981 250.395 464.061 250.006 464.059 249.613V3.70111C464.057 2.93663 463.752 2.20405 463.211 1.66415C462.67 1.12426 461.937 0.821128 461.172 0.821289L461.172 0.82132Z" fill="#CCCCCC"></path><path d="M562.412 210.686C561.43 210.685 560.489 210.295 559.794 209.602L474.177 123.985C473.832 123.643 473.559 123.235 473.373 122.787C473.188 122.338 473.092 121.857 473.094 121.371V3.70117C473.092 3.19624 473.194 2.69637 473.395 2.233C473.596 1.76962 473.89 1.35277 474.259 1.00866C474.63 0.660289 475.068 0.391681 475.546 0.219478C476.025 0.047275 476.534 -0.0248504 477.041 0.00754858C543.689 4.18283 595.897 59.8141 595.897 126.657C595.899 157.02 585.014 186.377 565.218 209.398C564.885 209.784 564.476 210.097 564.017 210.318C563.558 210.539 563.058 210.664 562.549 210.683C562.504 210.685 562.458 210.686 562.412 210.686Z" fill="#CCCCCC"></path><path d="M476.805 253.314C475.86 253.314 474.951 252.954 474.261 252.308C473.891 251.963 473.596 251.546 473.395 251.082C473.194 250.618 473.092 250.118 473.094 249.612V143.443C473.094 142.712 473.311 141.998 473.717 141.39C474.123 140.782 474.7 140.308 475.376 140.028C476.051 139.749 476.794 139.675 477.511 139.818C478.228 139.961 478.887 140.313 479.404 140.829L554.115 215.541C554.47 215.896 554.749 216.32 554.935 216.786C555.121 217.253 555.21 217.752 555.197 218.254C555.184 218.756 555.069 219.25 554.86 219.707C554.65 220.163 554.349 220.572 553.976 220.908C532.706 240.058 505.597 251.473 477.035 253.307C476.959 253.312 476.882 253.314 476.805 253.314Z" fill="#9867FF"></path><path d="M674.523 255.67C662.537 276.927 645.614 295.675 626.236 310.536C583.173 343.561 528.63 361.471 474.821 365.228C447.167 367.172 419.378 365.285 392.242 359.619C364.634 353.835 338.301 343.648 312.799 331.749C286.834 319.631 261.663 305.888 235.811 293.544C209.986 281.207 183.444 270.688 155.635 263.804C157.67 263.446 159.645 263.053 161.567 262.607C163.384 263.079 165.196 263.568 167.001 264.075C221.378 279.277 269.369 309.235 320.426 332.378C346.033 343.989 372.54 353.46 400.262 358.527C427.921 363.548 456.149 364.654 484.116 361.812C537.777 356.413 592.364 336.615 633.618 301.197C649.947 287.239 663.555 270.382 673.754 251.477C674.034 252.874 674.288 254.272 674.523 255.67Z" fill="white"></path><path d="M472.175 408.098H505.661C505.894 408.098 506.118 408.005 506.284 407.84C506.449 407.674 506.542 407.45 506.542 407.217V200.205C506.542 199.972 506.449 199.748 506.284 199.582C506.118 199.417 505.894 199.324 505.661 199.324C505.427 199.324 505.203 199.417 505.038 199.582C504.872 199.748 504.779 199.972 504.779 200.205V406.335H472.175C472.059 406.335 471.944 406.357 471.837 406.402C471.73 406.446 471.632 406.511 471.55 406.592C471.468 406.674 471.403 406.771 471.358 406.879C471.314 406.986 471.291 407.101 471.291 407.217C471.291 407.332 471.314 407.447 471.358 407.554C471.403 407.662 471.468 407.759 471.55 407.841C471.632 407.923 471.73 407.987 471.837 408.031C471.944 408.076 472.059 408.098 472.175 408.098Z" fill="#3F3D56"></path><path d="M615.66 64.9052C613.421 65.0856 611.179 64.598 609.217 63.504C607.255 62.41 605.662 60.7588 604.638 58.7592C603.615 56.7596 603.207 54.5013 603.467 52.2701C603.727 50.0388 604.643 47.9348 606.098 46.224C607.554 44.5131 609.484 43.2724 611.645 42.6587C613.806 42.045 616.1 42.0858 618.238 42.776C620.376 43.4662 622.261 44.7748 623.655 46.5363C625.049 48.2978 625.889 50.4332 626.069 52.6722C626.311 55.6748 625.35 58.6504 623.398 60.9445C621.446 63.2386 618.663 64.6634 615.66 64.9052ZM615.52 63.1635C617.415 63.0109 619.221 62.2999 620.712 61.1204C622.202 59.9409 623.31 58.3459 623.894 56.5371C624.478 54.7283 624.512 52.787 623.993 50.9586C623.474 49.1301 622.424 47.4967 620.976 46.265C619.529 45.0332 617.748 44.2584 615.86 44.0384C613.972 43.8185 612.062 44.1634 610.37 45.0294C608.678 45.8955 607.28 47.2438 606.355 48.9039C605.429 50.564 605.016 52.4613 605.169 54.3559C605.27 55.6139 605.618 56.8396 606.193 57.963C606.769 59.0865 607.559 60.0856 608.52 60.9035C609.482 61.7214 610.594 62.3419 611.795 62.7297C612.996 63.1175 614.262 63.2649 615.52 63.1636V63.1635Z" fill="#CCCCCC"></path><path d="M654.771 35.7629C658.631 35.7629 661.76 32.6336 661.76 28.7735C661.76 24.9134 658.631 21.7842 654.771 21.7842C650.911 21.7842 647.781 24.9134 647.781 28.7735C647.781 32.6336 650.911 35.7629 654.771 35.7629Z" fill="#CCCCCC"></path><path d="M689.125 10.4854C691.152 10.4854 692.796 8.84168 692.796 6.81401C692.796 4.78633 691.152 3.14258 689.125 3.14258C687.097 3.14258 685.453 4.78633 685.453 6.81401C685.453 8.84168 687.097 10.4854 689.125 10.4854Z" fill="#CCCCCC"></path><path d="M562.295 288.46C561.056 290.334 559.29 291.799 557.219 292.669C555.148 293.539 552.866 293.776 550.66 293.349C548.455 292.922 546.426 291.851 544.829 290.271C543.232 288.691 542.14 286.672 541.691 284.472C541.241 282.271 541.454 279.986 542.303 277.906C543.152 275.826 544.599 274.045 546.46 272.788C548.321 271.53 550.514 270.853 552.76 270.841C555.006 270.829 557.206 271.484 559.08 272.723C561.59 274.385 563.339 276.976 563.941 279.926C564.544 282.877 563.952 285.946 562.295 288.46ZM544.801 276.9C543.753 278.486 543.199 280.347 543.208 282.248C543.218 284.149 543.791 286.004 544.855 287.579C545.92 289.154 547.427 290.378 549.187 291.096C550.946 291.814 552.88 291.995 554.742 291.614C556.604 291.234 558.312 290.31 559.649 288.959C560.986 287.608 561.893 285.891 562.254 284.025C562.615 282.159 562.415 280.227 561.678 278.475C560.942 276.723 559.702 275.228 558.117 274.18C555.989 272.778 553.393 272.277 550.896 272.787C548.4 273.297 546.208 274.776 544.801 276.9Z" fill="#CCCCCC"></path><path d="M575.901 330.231C579.762 330.231 582.891 327.101 582.891 323.241C582.891 319.381 579.762 316.252 575.901 316.252C572.041 316.252 568.912 319.381 568.912 323.241C568.912 327.101 572.041 330.231 575.901 330.231Z" fill="#CCCCCC"></path><path d="M595.398 362.722C597.426 362.722 599.069 361.078 599.069 359.05C599.069 357.023 597.426 355.379 595.398 355.379C593.37 355.379 591.727 357.023 591.727 359.05C591.727 361.078 593.37 362.722 595.398 362.722Z" fill="#CCCCCC"></path><path d="M280.276 97.706C279.277 95.6943 278.896 93.4315 279.183 91.2035C279.469 88.9755 280.41 86.8824 281.886 85.189C283.362 83.4956 285.307 82.278 287.475 81.69C289.643 81.1019 291.936 81.1701 294.066 81.8856C296.195 82.6012 298.064 83.9321 299.437 85.7101C300.81 87.4881 301.625 89.6332 301.779 91.8743C301.932 94.1153 301.418 96.3517 300.301 98.3005C299.184 100.249 297.514 101.823 295.502 102.823C292.804 104.16 289.685 104.372 286.831 103.413C283.977 102.453 281.62 100.401 280.276 97.706ZM299.054 88.3748C298.208 86.6727 296.876 85.2595 295.227 84.3142C293.578 83.3688 291.686 82.9337 289.79 83.0638C287.893 83.1939 286.078 83.8833 284.574 85.045C283.069 86.2067 281.943 87.7884 281.338 89.5902C280.732 91.3919 280.675 93.3327 281.172 95.1672C281.67 97.0017 282.7 98.6474 284.133 99.8963C285.566 101.145 287.337 101.941 289.222 102.183C291.107 102.426 293.022 102.104 294.724 101.258C297.005 100.121 298.741 98.1268 299.553 95.7116C300.365 93.2964 300.185 90.6578 299.054 88.3748Z" fill="#CCCCCC"></path><path d="M243.364 99.0099C247.224 99.0099 250.354 95.8807 250.354 92.0206C250.354 88.1605 247.224 85.0312 243.364 85.0312C239.504 85.0312 236.375 88.1605 236.375 92.0206C236.375 95.8807 239.504 99.0099 243.364 99.0099Z" fill="#CCCCCC"></path><path d="M202.607 94.586C204.635 94.586 206.278 92.9423 206.278 90.9146C206.278 88.8869 204.635 87.2432 202.607 87.2432C200.579 87.2432 198.936 88.8869 198.936 90.9146C198.936 92.9423 200.579 94.586 202.607 94.586Z" fill="#CCCCCC"></path><line x1="473" y1="407.205" x2="231" y2="407.205" stroke="#3F3D56" stroke-width="1.75"></line><path d="M113.016 442V431.336H84.8906V422.664C89.526 413.914 97.3255 401.57 108.289 385.633H122.625V423.094H130.203V431.336H122.625V442H113.016ZM94.0312 423.055V423.328H113.172V393.094H113.016C108.25 399.995 104.435 405.698 101.57 410.203C98.7057 414.708 96.1927 418.992 94.0312 423.055ZM156.023 388.602C158.289 391.18 159.422 394.669 159.422 399.07C159.422 403.471 158.289 406.974 156.023 409.578C153.758 412.182 150.724 413.484 146.922 413.484C143.12 413.484 140.086 412.182 137.82 409.578C135.581 406.974 134.461 403.471 134.461 399.07C134.461 394.669 135.581 391.18 137.82 388.602C140.086 385.997 143.12 384.695 146.922 384.695C150.724 384.695 153.758 385.997 156.023 388.602ZM146.922 407.352C148.38 407.352 149.513 406.622 150.32 405.164C151.154 403.68 151.57 401.648 151.57 399.07C151.57 396.466 151.154 394.435 150.32 392.977C149.513 391.492 148.38 390.75 146.922 390.75C145.49 390.75 144.357 391.492 143.523 392.977C142.716 394.435 142.312 396.466 142.312 399.07C142.312 401.648 142.716 403.68 143.523 405.164C144.357 406.622 145.49 407.352 146.922 407.352ZM147.703 442H139.188L161.023 412.117L180.398 385.633H188.836L167.586 414.734L147.703 442ZM190.203 417.82C192.469 420.424 193.602 423.927 193.602 428.328C193.602 432.729 192.469 436.232 190.203 438.836C187.938 441.414 184.904 442.703 181.102 442.703C177.299 442.703 174.266 441.414 172 438.836C169.76 436.232 168.641 432.729 168.641 428.328C168.641 423.927 169.76 420.424 172 417.82C174.266 415.216 177.299 413.914 181.102 413.914C184.904 413.914 187.938 415.216 190.203 417.82ZM177.703 434.383C178.536 435.867 179.669 436.609 181.102 436.609C182.534 436.609 183.667 435.867 184.5 434.383C185.333 432.898 185.75 430.867 185.75 428.289C185.75 425.711 185.333 423.68 184.5 422.195C183.667 420.711 182.534 419.969 181.102 419.969C179.669 419.969 178.536 420.711 177.703 422.195C176.896 423.68 176.492 425.711 176.492 428.289C176.492 430.867 176.896 432.898 177.703 434.383Z" fill="#9867FF"></path></svg>