<svg xmlns="http://www.w3.org/2000/svg" width="393" height="408" viewBox="0 0 393 408" fill="none"><path fill-rule="evenodd" clip-rule="evenodd" d="M145.898 62.2994L146 94.1994L166.1 94.3034L186.2 94.4064V62.4034V30.3994H165.998H145.795L145.898 62.2994ZM187.8 75.5954V93.9994H207.804H227.808L227.704 75.6994L227.6 57.3994L207.7 57.2954L187.8 57.1924V75.5954ZM320 225.066C302.946 227.161 288.967 234.371 278.14 246.655C252.34 275.927 258.559 322.426 291.04 343.104C292.332 343.926 293.482 344.877 293.596 345.217C294.053 346.586 302.921 350.474 309.125 352.025C310.926 352.475 312.76 353.006 313.2 353.204C316.95 354.892 339.123 354.863 339.733 353.169C339.807 352.966 340.215 352.799 340.641 352.799C342.834 352.799 351.686 349.928 354.8 348.207C356.12 347.477 358.341 346.302 359.736 345.595C361.131 344.889 362.841 343.83 363.536 343.243C364.231 342.656 365.576 341.654 366.525 341.016C367.473 340.378 368.676 339.348 369.199 338.728C369.721 338.107 370.318 337.599 370.526 337.599C371.249 337.599 379 328.962 379 328.157C379 327.958 379.499 327.325 380.109 326.75C380.719 326.174 381.574 325.005 382.009 324.151C382.444 323.297 383.653 321.062 384.696 319.184C386.586 315.782 388.409 310.978 389.396 306.799C389.682 305.589 390.056 304.507 390.228 304.394C392.151 303.129 392.186 276.777 390.268 274.241C390.084 273.998 389.517 272.179 389.008 270.199C388.163 266.909 385.799 260.823 384.954 259.762C384.763 259.521 383.961 258.087 383.172 256.574C382.384 255.061 380.718 252.496 379.469 250.873C378.221 249.25 376.929 247.535 376.597 247.061C374.108 243.505 361.656 233.146 360.632 233.779C360.418 233.911 358.028 232.945 355.322 231.631C344.06 226.166 330.923 223.724 320 225.066ZM332.114 249.462L332.227 253.526L334.314 254.001C340.927 255.507 347.391 260.263 350.207 265.696C351.833 268.831 352.153 268.351 346.2 271.694C343.67 273.115 340.765 274.759 339.744 275.348L337.887 276.419L336.667 274.256C335.552 272.28 333.399 270.399 332.253 270.399C331.935 270.399 331.8 272.299 331.8 276.788V283.177L333.9 284.074C347.883 290.051 352.759 295.982 352.089 306.199C351.392 316.825 344.969 323.515 332.913 326.168L331.827 326.407L331.713 330.703L331.6 334.999L327.9 335.114L324.2 335.229V331.032V326.835L322.7 326.597C313.289 325.1 306.604 320.841 302.5 313.729C300.347 309.999 300.162 310.277 307.572 306.099C315.18 301.81 314.555 301.975 315.682 303.95C317.104 306.441 318.574 307.968 320.755 309.219C324.316 311.261 324.236 311.391 324.11 303.757L324 297.114L321.459 296.16C308.457 291.274 302.031 281.176 304.594 269.657C306.366 261.694 313.713 255.333 322.9 253.81L324.6 253.529V249.349V245.169L328.3 245.284L332 245.399L332.114 249.462ZM322.31 270.839C319.825 272.43 319.829 276.293 322.317 278.132C324.708 279.9 324.6 280.057 324.6 274.823C324.6 269.522 324.537 269.412 322.31 270.839ZM331.8 304.972C331.8 310.555 331.875 310.674 334.106 308.63C336.694 306.258 336.21 303.088 332.9 300.729L331.8 299.945V304.972Z" fill="#FCC80D"></path><path fill-rule="evenodd" clip-rule="evenodd" d="M254.299 0.295391C255.564 0.374391 257.634 0.374391 258.899 0.295391C260.164 0.215391 259.129 0.150391 256.599 0.150391C254.069 0.150391 253.034 0.215391 254.299 0.295391ZM261.399 48.5994V96.7994L274.499 96.7284C282.02 96.6884 286.407 96.5434 284.799 96.3884C283.259 96.2394 291.629 96.1704 303.399 96.2344C315.457 96.2994 324.101 96.2054 323.199 96.0174C322.315 95.8344 329.661 95.7824 339.616 95.9024C349.525 96.0214 358.276 95.9994 359.062 95.8514L360.491 95.5834L357.293 92.4914C355.533 90.7904 352.363 87.7284 350.247 85.6854C348.13 83.6424 344.106 79.7274 341.304 76.9854C338.502 74.2434 336.016 71.9994 335.78 71.9994C335.545 71.9994 335.463 71.8194 335.599 71.5994C335.735 71.3794 335.666 71.1994 335.445 71.1994C335.224 71.1994 333.009 69.2254 330.521 66.8124C328.034 64.3994 325.414 61.8634 324.699 61.1784C323.984 60.4924 323.399 59.7564 323.399 59.5424C323.399 59.3274 323.219 59.2634 322.999 59.3994C322.779 59.5354 322.599 59.4704 322.599 59.2554C322.599 59.0404 321.934 58.2644 321.121 57.5314C320.307 56.7994 318.813 55.3444 317.8 54.2994C316.787 53.2544 315.766 52.3994 315.53 52.3994C315.295 52.3994 314.674 51.7704 314.151 51.0024C313.627 50.2334 312.963 49.6034 312.675 49.6024C312.387 49.6004 312.248 49.4434 312.366 49.2524C312.484 49.0614 312.025 48.4784 311.345 47.9574C310.665 47.4364 308.043 45.0024 305.519 42.5474C302.995 40.0924 300.54 37.7384 300.064 37.3174C299.588 36.8964 298.614 35.8584 297.899 35.0104C297.184 34.1634 296.599 33.6234 296.599 33.8094C296.599 33.9964 294.265 31.8024 291.412 28.9334C288.559 26.0654 286.345 23.9164 286.491 24.1584C286.637 24.4014 285.494 23.3394 283.951 21.7994C282.409 20.2594 280.081 18.0094 278.779 16.7994C277.476 15.5894 276.408 14.4984 276.405 14.3754C276.402 14.2514 275.694 13.5314 274.831 12.7754C273.969 12.0184 272.529 10.6674 271.631 9.77239C270.734 8.87739 269.729 7.97739 269.398 7.77239C269.068 7.56739 268.213 6.71839 267.498 5.88539C266.784 5.05239 266.199 4.45739 266.199 4.56139C266.199 4.66639 265.273 3.77239 264.141 2.57539C263.009 1.37839 261.929 0.399391 261.741 0.399391C261.553 0.399391 261.399 22.0894 261.399 48.5994ZM262.099 72.8684C262.04 85.9204 261.993 75.3594 261.993 49.3994C261.992 23.4394 262.04 12.7604 262.099 25.6684C262.157 38.5764 262.157 59.8164 262.099 72.8684ZM110.199 70.0464C110.199 70.2954 109.846 70.4004 109.399 70.2834C108.959 70.1684 108.599 70.2374 108.599 70.4364C108.599 70.6364 108.378 70.7994 108.108 70.7994C107.839 70.7994 105.544 71.4634 103.008 72.2754C100.473 73.0864 98.2454 73.7104 98.0574 73.6614C97.8694 73.6114 97.4644 73.7794 97.1574 74.0344C96.8504 74.2894 96.5994 74.3634 96.5994 74.1994C96.5994 74.0354 96.3684 74.0924 96.0874 74.3264C95.8054 74.5604 95.1114 74.8364 94.5444 74.9384C92.9494 75.2284 89.2154 76.5644 89.0664 76.8994C88.9924 77.0644 88.5274 77.1994 88.0324 77.1994C87.5364 77.1994 85.9764 77.5804 84.5654 78.0454C81.7804 78.9644 81.8054 78.9574 79.8994 79.3984C79.1844 79.5644 78.5994 79.8764 78.5994 80.0924C78.5994 80.3084 78.3204 80.3774 77.9784 80.2464C77.6224 80.1104 77.4624 80.1774 77.6024 80.4044C77.7364 80.6214 77.5054 80.7994 77.0874 80.7994C76.3694 80.7994 72.5434 81.8974 67.1994 83.6364C65.8794 84.0664 64.4394 84.5004 63.9994 84.6004C63.5594 84.7004 62.8394 84.9504 62.3994 85.1544C61.9594 85.3594 59.9794 86.0134 57.9994 86.6094C56.0194 87.2044 53.4994 87.9764 52.3994 88.3244C51.2994 88.6724 50.0394 89.0164 49.5994 89.0894C49.1594 89.1624 48.7394 89.3984 48.6654 89.6134C48.5914 89.8284 48.3584 89.8974 48.1474 89.7674C47.9364 89.6374 47.5334 89.7224 47.2504 89.9574C46.9674 90.1914 46.3904 90.4494 45.9684 90.5304C45.5454 90.6114 44.6994 90.8824 44.0884 91.1324C43.4774 91.3834 41.5754 91.9464 39.8614 92.3834C38.1474 92.8214 36.0374 93.4864 35.1724 93.8614C34.3074 94.2364 33.2064 94.6054 32.7254 94.6814C32.2444 94.7574 31.3444 95.0844 30.7254 95.4074C30.1064 95.7304 29.3694 95.9954 29.0894 95.9974C28.6404 95.9994 18.5634 98.9164 16.9994 99.4964C16.6694 99.6194 16.0474 99.7874 15.6164 99.8694C15.1864 99.9524 14.7164 100.21 14.5724 100.443C14.4274 100.676 14.1504 100.875 13.9544 100.884C13.7594 100.893 13.4194 100.959 13.1994 101.031C9.87842 102.107 7.48742 102.801 5.09942 103.381C3.50442 103.768 2.19942 104.265 2.19942 104.485C2.19942 104.705 1.94742 104.788 1.63842 104.669C0.569418 104.259 0.639418 105.947 1.81842 109.048C2.05842 109.681 2.24142 110.245 2.22342 110.301C2.20542 110.357 2.44742 111.017 2.76042 111.768C3.07442 112.519 3.22642 113.238 3.09842 113.366C2.97042 113.494 3.08642 113.599 3.35642 113.599C3.62642 113.599 3.73842 113.774 3.60642 113.987C3.47442 114.201 3.61942 114.876 3.92842 115.487C4.23742 116.099 4.40142 116.849 4.29242 117.155C4.18342 117.464 4.27642 117.599 4.50242 117.459C4.72642 117.321 4.88542 117.431 4.85642 117.703C4.82742 117.976 5.18742 119.369 5.65642 120.799C6.12642 122.229 6.91642 124.839 7.41442 126.599C7.91142 128.359 8.60642 130.242 8.95942 130.784C9.41242 131.48 9.44142 131.67 9.05842 131.434C8.69642 131.212 8.74142 131.444 9.19242 132.132C9.56442 132.7 9.76142 133.336 9.63142 133.547C9.50142 133.758 9.55442 133.991 9.75042 134.065C10.0464 134.176 11.2834 137.975 11.9954 140.958C12.0944 141.375 12.3984 142.365 12.6704 143.158C12.9424 143.95 13.1794 144.689 13.1964 144.799C13.2134 144.909 13.4134 145.359 13.6404 145.799C13.8664 146.239 14.0284 146.869 13.9994 147.199C13.9704 147.529 14.1324 148.159 14.3584 148.599C14.5854 149.039 14.7824 149.489 14.7964 149.599C14.8104 149.709 15.3124 151.329 15.9114 153.199C16.5104 155.069 17.3864 157.859 17.8574 159.399C18.3294 160.939 18.8794 162.567 19.0804 163.016C19.2814 163.466 19.4854 164.096 19.5334 164.416C19.5824 164.737 19.7234 165.179 19.8484 165.399C19.9724 165.619 20.4794 167.149 20.9754 168.799C21.4714 170.449 22.0184 172.249 22.1924 172.799C22.3654 173.349 22.7254 174.609 22.9924 175.599C23.2594 176.589 23.6394 177.712 23.8384 178.094C24.0374 178.476 24.1994 179.115 24.1994 179.514C24.1994 179.913 24.3594 180.41 24.5554 180.619C24.7514 180.828 25.4834 182.889 26.1824 185.199C26.8814 187.509 27.5604 189.669 27.6914 189.999C27.9874 190.742 27.9754 190.701 28.3684 192.399C28.5464 193.169 28.8254 193.979 28.9894 194.199C29.3824 194.729 30.5984 198.399 30.3804 198.399C30.2874 198.399 30.5464 199.344 30.9564 200.499C31.7574 202.754 33.1974 207.504 33.6244 209.299C33.7684 209.904 34.0464 210.399 34.2424 210.399C34.4394 210.399 34.5704 210.534 34.5354 210.699C34.5014 210.864 34.5654 211.269 34.6794 211.599C35.3434 213.525 35.7994 215.112 35.7994 215.501C35.7994 215.746 36.0084 216.454 36.2644 217.073C36.5194 217.692 36.6904 218.363 36.6424 218.562C36.5954 218.762 36.7354 219.036 36.9524 219.17C37.1694 219.304 37.4344 219.951 37.5404 220.606C37.6464 221.262 37.7614 221.799 37.7964 221.799C37.8304 221.799 37.9304 222.179 38.0184 222.644C38.1064 223.109 38.3904 224.009 38.6504 224.644C39.2504 226.111 39.4524 226.823 39.5184 227.699C39.5474 228.084 39.6834 228.399 39.8214 228.399C39.9594 228.399 40.2914 229.164 40.5584 230.099C40.8244 231.034 41.4024 233.059 41.8424 234.599C42.2814 236.139 42.7894 237.675 42.9694 238.012C43.1504 238.349 43.4314 239.249 43.5944 240.012C43.7584 240.775 44.0574 241.605 44.2594 241.857C44.4624 242.109 44.5924 242.469 44.5504 242.657C44.5074 242.845 44.5844 243.269 44.7214 243.599C45.3524 245.118 46.2474 247.893 46.3974 248.799C46.4894 249.349 46.9454 250.789 47.4104 251.999C47.8764 253.209 48.3294 254.827 48.4174 255.595C48.5044 256.363 48.7624 257.053 48.9904 257.129C49.2184 257.205 49.2974 257.44 49.1674 257.651C49.0374 257.862 49.1624 258.314 49.4464 258.656C49.7304 258.997 50.0194 259.65 50.0884 260.107C50.1584 260.563 50.3904 261.147 50.6034 261.404C50.8174 261.662 50.8974 261.967 50.7814 262.083C50.6664 262.199 50.9114 263.262 51.3274 264.446C51.7434 265.63 52.4854 267.949 52.9764 269.599C53.4684 271.249 54.0444 272.967 54.2584 273.416C54.4714 273.866 54.6854 274.496 54.7334 274.816C54.7824 275.137 54.9814 275.655 55.1774 275.968C55.3724 276.281 55.6704 277.181 55.8394 277.968C56.5334 281.192 57.6684 284.797 57.9134 284.552C58.0564 284.408 58.1014 284.671 58.0114 285.136C57.9214 285.602 58.0174 286.087 58.2244 286.214C58.4304 286.342 58.5994 286.85 58.5994 287.343C58.5994 287.836 58.7514 288.41 58.9364 288.619C59.1224 288.828 59.5944 290.079 59.9854 291.399C60.3774 292.719 61.0354 294.828 61.4484 296.086C61.8614 297.344 62.1994 298.607 62.1994 298.892C62.1994 299.178 62.5494 300.063 62.9764 300.861C63.4044 301.659 63.6484 302.417 63.5194 302.545C63.3904 302.674 63.5364 303.082 63.8424 303.451C64.1484 303.82 64.3404 304.187 64.2694 304.267C64.0704 304.488 64.6494 306.945 65.0074 307.399C65.1804 307.619 65.7274 309.284 66.2234 311.099C66.7194 312.914 67.2664 314.399 67.4394 314.399C67.6124 314.399 67.6884 314.737 67.6084 315.15C67.5294 315.564 67.7024 316.361 67.9934 316.922C68.2844 317.483 68.4354 318.03 68.3294 318.136C68.2224 318.242 68.4114 318.75 68.7484 319.264C69.0844 319.778 69.3504 320.342 69.3384 320.516C69.3264 320.691 69.4954 321.321 69.7144 321.916C70.5624 324.221 72.9994 332.327 73.0014 332.849C73.0034 333.152 73.2664 333.902 73.5874 334.516C73.9074 335.13 74.2924 336.3 74.4424 337.116C74.5924 337.932 74.8274 338.689 74.9644 338.799C75.1014 338.909 75.4384 339.809 75.7134 340.799C75.9884 341.789 76.2894 342.869 76.3824 343.199C76.4744 343.529 77.0194 345.329 77.5924 347.199C78.1654 349.069 78.6794 350.806 78.7344 351.059C78.7894 351.311 79.0574 351.788 79.3314 352.117C79.6044 352.446 79.7834 352.869 79.7304 353.057C79.6774 353.245 80.0094 354.569 80.4694 355.999C80.9284 357.429 81.6244 359.724 82.0154 361.099C82.4064 362.474 82.8614 363.599 83.0274 363.599C83.1934 363.599 83.2784 363.914 83.2174 364.299C83.1564 364.684 83.4454 365.674 83.8604 366.499C84.2764 367.324 84.5004 367.999 84.3584 367.999C84.2174 367.999 84.3094 368.25 84.5644 368.557C84.8194 368.864 84.9824 369.269 84.9264 369.457C84.8704 369.645 85.0194 370.339 85.2564 370.999C85.4944 371.659 85.7114 372.335 85.7394 372.501C85.7674 372.667 86.0544 373.435 86.3774 374.208C86.7004 374.981 86.9534 375.655 86.9394 375.706C86.8964 375.866 87.8264 379.368 88.0794 379.999C88.2114 380.329 88.3864 380.945 88.4674 381.368C88.5484 381.79 88.7904 382.347 89.0034 382.604C89.2174 382.862 89.2904 383.174 89.1664 383.299C89.0424 383.423 89.2024 384.036 89.5224 384.662C89.8434 385.287 90.6004 387.554 91.2064 389.699C91.8124 391.844 92.4584 393.599 92.6414 393.599C92.8244 393.599 92.8794 393.846 92.7634 394.149C92.6474 394.451 93.0124 395.832 93.5754 397.218C94.1384 398.603 94.5994 400.055 94.5994 400.444C94.5994 400.833 94.7564 401.249 94.9474 401.367C95.1394 401.485 95.4344 402.171 95.6034 402.891C95.7724 403.61 95.9394 404.289 95.9734 404.399C96.0074 404.509 96.1704 405.272 96.3344 406.094C96.6994 407.919 97.1944 407.895 103.746 405.729C106.085 404.955 108.269 404.264 108.599 404.191C108.929 404.119 109.289 404.025 109.399 403.982C109.509 403.939 109.734 403.926 109.899 403.952C110.064 403.978 110.199 403.839 110.199 403.644C110.199 403.448 110.873 403.162 111.696 403.007C112.519 402.853 113.374 402.612 113.596 402.473C113.818 402.334 114.179 402.208 114.399 402.192C114.619 402.177 115.879 401.822 117.199 401.403C118.519 400.985 119.734 400.677 119.899 400.721C120.064 400.764 120.199 400.625 120.199 400.413C120.199 400.2 121.099 399.907 122.199 399.761C123.299 399.615 124.199 399.329 124.199 399.124C124.199 398.919 124.379 398.863 124.599 398.999C124.819 399.135 124.999 399.045 124.999 398.799C124.999 398.553 125.172 398.459 125.383 398.589C125.594 398.719 126.089 398.664 126.483 398.466C127.641 397.884 129.88 397.147 131.599 396.783C134.125 396.248 139.416 394.483 140.036 393.969C140.345 393.711 140.599 393.602 140.599 393.725C140.599 393.848 142.084 393.446 143.899 392.833C145.714 392.219 147.289 391.71 147.399 391.701C148.76 391.586 154.513 389.678 155.299 389.081C155.574 388.872 155.799 388.81 155.799 388.944C155.799 389.078 156.695 388.834 157.79 388.403C158.885 387.971 160.246 387.534 160.814 387.431C161.383 387.327 163.322 386.765 165.124 386.181C166.925 385.596 168.702 385.059 169.073 384.987C169.444 384.914 170.122 384.654 170.581 384.408C171.04 384.163 171.592 384.071 171.807 384.204C172.023 384.337 172.199 384.245 172.199 383.999C172.199 383.753 172.379 383.663 172.599 383.799C172.819 383.935 172.999 383.844 172.999 383.597C172.999 383.351 173.314 383.188 173.699 383.236C174.084 383.285 174.906 383.116 175.525 382.862C176.144 382.607 176.837 382.399 177.065 382.399C177.292 382.399 178.045 382.152 178.739 381.849C179.432 381.547 181.169 380.976 182.599 380.579C184.029 380.183 185.428 379.685 185.709 379.472C185.989 379.259 186.328 379.194 186.461 379.328C186.595 379.462 187.086 379.359 187.552 379.099C188.018 378.84 188.489 378.613 188.599 378.596C188.709 378.579 190.149 378.156 191.799 377.657C193.449 377.158 196.329 376.299 198.199 375.748C200.069 375.197 202.049 374.546 202.599 374.301C203.149 374.056 203.734 373.821 203.899 373.778C204.064 373.734 204.289 373.654 204.399 373.599C204.509 373.544 204.734 373.461 204.899 373.414C205.064 373.368 205.469 373.224 205.799 373.095C206.958 372.643 210.477 371.576 211.399 371.399C212.797 371.13 216.304 370.008 217.094 369.578C217.476 369.369 218.201 369.199 218.705 369.199C219.209 369.199 219.976 368.956 220.41 368.659C220.844 368.362 221.739 367.993 222.399 367.84C224.72 367.3 234.005 364.278 234.481 363.906C234.747 363.699 235.11 363.621 235.289 363.731C235.468 363.842 236.331 363.593 237.207 363.179C238.082 362.765 239.126 362.42 239.525 362.413C239.925 362.405 240.625 362.199 241.08 361.955C241.536 361.711 242.414 361.432 243.03 361.335C243.646 361.238 245.466 360.713 247.075 360.168C248.683 359.623 250.359 359.081 250.799 358.964C251.239 358.848 251.779 358.703 251.999 358.642C252.219 358.581 252.849 358.333 253.399 358.091C253.949 357.848 256.289 357.083 258.599 356.391C260.909 355.698 263.429 354.924 264.199 354.671C264.969 354.417 265.779 354.19 265.999 354.165C266.219 354.14 266.849 353.934 267.399 353.706C267.949 353.479 268.534 353.372 268.699 353.47C268.864 353.567 268.999 353.49 268.999 353.298C268.999 352.976 271.978 351.977 274.799 351.354C275.459 351.208 276.179 350.983 276.399 350.855C276.619 350.727 277.075 350.579 277.413 350.526C277.75 350.474 278.74 350.12 279.613 349.74C280.485 349.361 281.353 349.09 281.541 349.139C281.729 349.187 282.108 349.04 282.383 348.812C282.659 348.584 283.405 348.319 284.041 348.224C284.678 348.128 286.952 347.437 289.094 346.687C291.237 345.937 293.082 345.415 293.194 345.528C293.307 345.64 293.399 345.622 293.399 345.488C293.399 345.353 291.801 344.148 289.847 342.81C282.368 337.688 274.471 329.041 270.018 321.099L268.056 317.599H189.927H111.799V193.599C111.799 69.8664 111.797 69.5994 110.999 69.5994C110.559 69.5994 110.199 69.8004 110.199 70.0464ZM111.299 255.867C111.243 289.929 111.196 262.179 111.196 194.199C111.196 126.219 111.243 98.3494 111.299 132.267C111.355 166.184 111.355 221.804 111.299 255.867ZM146.908 123.919C143.502 124.097 143.399 124.347 143.399 132.412C143.399 137.089 143.546 139.247 143.899 139.728C144.558 140.626 325.699 140.798 326.268 139.901C327.031 138.7 326.647 125.366 325.828 124.626C325.131 123.994 158.095 123.334 146.908 123.919ZM144.199 165.599C143.176 166.622 142.953 179.931 143.944 180.753C144.345 181.087 168.337 181.231 234.844 181.3L325.199 181.395L235.199 181.598L145.199 181.802L235.01 181.9C315.752 181.989 324.911 181.936 325.71 181.376C327.021 180.458 327.098 166.898 325.799 165.599C324.536 164.336 145.462 164.336 144.199 165.599ZM144.022 205.688C143.203 206.857 143.101 219.439 143.901 220.533C144.402 221.218 230.333 221.658 231.428 220.981C232.212 220.497 231.879 206.196 231.068 205.461C230.396 204.854 226.797 204.799 187.49 204.799H144.644L144.022 205.688Z" fill="#CCD4EC"></path><path fill-rule="evenodd" clip-rule="evenodd" d="M111.683 0.278528C111.579 0.454528 111.589 71.9245 111.705 159.1L111.916 317.6H189.857C234.167 317.6 267.799 317.449 267.799 317.25C267.799 317.057 267.372 315.932 266.851 314.75C259.401 297.854 260.2 276.181 268.885 259.564C285.405 227.952 323.389 215.481 355.241 231.209C357.904 232.524 360.199 233.6 360.341 233.6C360.483 233.6 360.599 202.595 360.599 164.7L360.6 95.7995L353.899 95.8945C339.378 96.0995 271.69 96.8035 266.696 96.8015L261.393 96.7995L261.496 48.4445L261.599 0.0895282L186.736 0.0235282C145.561 -0.0134718 111.787 0.101528 111.683 0.278528ZM186.501 62.3035L186.604 94.4065L166.101 94.3035L145.599 94.1995L145.496 62.5995C145.439 45.2195 145.479 30.7725 145.584 30.4955C145.736 30.0985 150.052 30.0135 166.088 30.0955L186.399 30.1995L186.501 62.3035ZM228.199 75.5995V94.3995H207.799H187.399V75.5995V56.7995H207.799H228.199V75.5995ZM325.828 124.627C326.893 125.59 327.016 139.126 325.97 140.171C325.403 140.739 316.595 140.8 234.993 140.8H144.644L144.022 139.911C143.12 138.624 143.109 126.193 144.008 124.909C144.841 123.719 138.346 123.792 237.128 123.865C320.131 123.926 325.101 123.968 325.828 124.627ZM325.799 165.6C327.098 166.899 327.021 180.459 325.71 181.377C324.912 181.936 315.663 182 235.164 182H145.507L144.453 181.171L143.399 180.342V173.371C143.399 166.933 143.46 166.339 144.199 165.6C145.462 164.337 324.536 164.337 325.799 165.6ZM231.068 205.462C231.974 206.282 232.198 220.241 231.319 221.12C230.952 221.487 220.728 221.6 187.742 221.6H144.644L144.022 220.711C143.519 219.993 143.399 218.546 143.399 213.2C143.399 207.854 143.519 206.407 144.022 205.689L144.644 204.8H187.49C226.797 204.8 230.396 204.855 231.068 205.462ZM324.999 249.775V253.951L323.099 254.227C314.135 255.527 306.729 261.838 304.992 269.658C302.496 280.894 308.126 290.255 320.42 295.309C322.169 296.028 323.824 296.758 324.099 296.932C325.084 297.554 324.785 310.8 323.786 310.8C321.41 310.8 316.974 307.253 315.51 304.182C314.658 302.396 315.182 302.244 307.8 306.424C300.577 310.514 300.881 310.047 302.977 313.826C306.778 320.679 313.395 324.752 323.099 326.211L324.599 326.436V330.618V334.8H327.999H331.399V330.44V326.08L334.499 325.398C346.982 322.649 353.619 312.881 351.364 300.573C350.116 293.757 342.22 286.819 332.299 283.818C331.041 283.438 330.857 270 332.11 270C333.443 270 336.143 272.364 337.25 274.5C338.026 275.998 337.837 276.06 345.018 271.952L351.395 268.304L350.136 265.943C347.117 260.279 340.902 255.833 334.001 254.4L331.799 253.943V249.772V245.6H328.399H324.999V249.775ZM324.999 274.8C324.999 280.422 325.019 280.375 323.095 279.202C319.581 277.059 319.247 271.993 322.504 270.226C324.916 268.917 324.999 269.069 324.999 274.8ZM333.718 301.023C336.803 303.664 336.674 307.802 333.446 309.709C331.44 310.894 331.399 310.801 331.399 305C331.399 299.002 331.385 299.026 333.718 301.023Z" fill="#FBFBFB"></path><path fill-rule="evenodd" clip-rule="evenodd" d="M145.669 30.2623C145.297 30.6353 145.326 93.9073 145.699 94.1373C145.864 94.2393 145.952 79.9403 145.894 62.3613L145.79 30.3993H165.992H186.194L186.3 62.3993L186.406 94.3993L186.403 62.2993L186.399 30.1993L166.169 30.0953C155.043 30.0383 145.818 30.1133 145.669 30.2623ZM187.399 75.5993V94.3993H207.799H228.199V75.5993V56.7993H207.799H187.399V75.5993ZM227.703 75.6993L227.807 93.9993H207.803H187.799V75.5953V57.1923L207.699 57.2953L227.599 57.3993L227.703 75.6993ZM317.152 224.955C313.198 225.602 308.095 226.829 308.34 227.073C308.438 227.171 309.272 227.049 310.194 226.8C318.781 224.488 330.643 224.237 339.799 226.174C345.055 227.286 344.901 227.262 343.871 226.811C339.504 224.897 324.061 223.825 317.152 224.955ZM349.805 229.153C351.899 230 354.734 231.259 356.105 231.952C357.477 232.644 358.599 233.12 358.599 233.01C358.599 232.462 347.677 227.589 346.489 227.606C346.219 227.61 347.712 228.306 349.805 229.153ZM300.431 229.792C298.689 230.552 297.074 231.364 296.843 231.595C296.611 231.827 298.127 231.277 300.211 230.373C302.294 229.47 304.074 228.656 304.166 228.565C304.628 228.105 303.285 228.546 300.431 229.792ZM290.706 235.17C282.931 240.371 275.868 247.688 271.182 255.399C269.935 257.449 271.175 255.945 273.324 252.799C277.707 246.384 284.121 240.042 290.599 235.717C294.275 233.263 294.896 232.799 294.505 232.799C294.366 232.799 292.656 233.866 290.706 235.17ZM324.599 249.349V253.529L322.899 253.81C304.2 256.91 297.242 279.371 311.538 290.485C312.628 291.332 312.292 290.886 310.562 289.188C298.153 277.004 305.401 256.792 323.099 254.226L324.999 253.95V249.774V245.599H328.399H331.799V249.771V253.942L334.063 254.412C335.308 254.671 337.134 255.228 338.12 255.651C339.106 256.073 339.983 256.348 340.07 256.261C340.298 256.034 336.327 254.505 334.113 253.968L332.226 253.511L332.113 249.455L331.999 245.399L328.299 245.284L324.599 245.169V249.349ZM341.399 256.923C341.399 257.016 342.164 257.598 343.099 258.216C344.034 258.834 345.781 260.343 346.98 261.569C348.835 263.465 348.965 263.545 347.85 262.103C346.173 259.935 341.399 256.102 341.399 256.923ZM267.923 261.407C266.911 263.502 266.157 265.29 266.248 265.382C266.34 265.473 267.251 263.759 268.274 261.573C269.297 259.387 270.051 257.599 269.949 257.599C269.848 257.599 268.936 259.313 267.923 261.407ZM348.518 269.922C344.901 271.954 344.488 272.519 347.999 270.631C350.516 269.278 351.874 268.385 351.379 268.407C351.28 268.412 349.992 269.093 348.518 269.922ZM322.299 270.395C320.447 271.524 320.684 271.804 322.572 270.717C324.639 269.528 324.644 269.538 324.512 274.975L324.399 279.659L322.599 278.367C321.325 277.453 321.032 277.34 321.598 277.978C322.318 278.791 324.219 279.999 324.779 279.999C324.9 279.999 324.999 277.659 324.999 274.799C324.999 268.982 324.895 268.812 322.299 270.395ZM331.399 276.772C331.399 283.449 331.412 283.549 332.299 283.817C336.436 285.068 344.111 289.429 346.655 291.972C348.145 293.462 349.2 294.375 348.999 294C347.512 291.221 341.736 287.424 333.899 284.074L331.799 283.177V276.788C331.799 270.026 331.905 269.687 333.623 270.986C334.05 271.309 334.579 271.578 334.799 271.584C335.019 271.589 334.659 271.236 333.999 270.799C331.455 269.114 331.399 269.242 331.399 276.772ZM263.783 272.459C262.164 278.472 262.025 279.791 262.025 289.199C262.025 298.607 262.164 299.926 263.783 305.939C264.689 309.304 264.504 307.352 263.523 303.199C261.601 295.062 261.814 281.472 263.994 273.218C264.31 272.018 264.498 270.965 264.411 270.877C264.323 270.79 264.041 271.501 263.783 272.459ZM335.815 272.449C335.806 272.586 336.263 273.528 336.829 274.541L337.859 276.385L339.329 275.623C340.138 275.204 341.159 274.561 341.599 274.194C342.039 273.827 341.557 273.992 340.528 274.563C338.103 275.906 338.061 275.898 336.855 273.899C336.291 272.964 335.823 272.311 335.815 272.449ZM317.658 294.418C317.887 294.647 319.408 295.353 321.037 295.987L323.999 297.139L324.109 303.769C324.235 311.389 324.314 311.26 320.754 309.219C318.831 308.115 317.768 307.105 316.087 304.782C315.401 303.833 315.391 303.831 315.82 304.734C317.062 307.346 321.597 310.799 323.786 310.799C324.785 310.799 325.084 297.553 324.099 296.931C323.082 296.288 317.256 294.016 317.658 294.418ZM331.399 304.999C331.399 308.647 331.541 310.399 331.837 310.399C332.592 310.399 334.441 309.144 334.997 308.254C335.358 307.675 335.056 307.818 334.05 308.701C331.863 310.621 331.799 310.514 331.799 304.95C331.799 299.369 331.577 299.659 334.223 301.779C334.786 302.23 334.537 301.924 333.671 301.099C331.432 298.967 331.399 299.023 331.399 304.999ZM351.599 304.999C351.599 307.834 351.713 309.624 351.852 308.976C351.991 308.329 352.104 306.539 352.104 304.999C352.104 303.459 351.991 301.669 351.852 301.022C351.713 300.374 351.599 302.164 351.599 304.999ZM307.504 306.115C303.213 308.549 301.008 310.025 301.004 310.464C300.99 312.182 304.938 317.755 308.035 320.389C308.675 320.934 308.089 320.214 306.732 318.789C304.506 316.453 301.399 311.616 301.399 310.489C301.399 310.108 307.624 306.384 313.359 303.335C314.326 302.82 314.866 302.406 314.559 302.415C314.251 302.423 311.076 304.088 307.504 306.115ZM266.619 314.098C266.585 314.616 269.072 319.659 269.266 319.465C269.368 319.364 268.818 318.047 268.045 316.54C267.271 315.032 266.629 313.934 266.619 314.098ZM345.813 319.542C344.17 321.211 343.366 322.192 344.025 321.723C345.258 320.845 348.999 317.004 348.999 316.616C348.999 316.3 349.056 316.247 345.813 319.542ZM271.404 323.504C272.501 325.82 278.196 332.702 281.999 336.306C285.896 339.999 293.988 346.129 293.561 345.064C293.458 344.808 292.32 343.926 291.032 343.104C283.939 338.574 278.565 333.153 271.687 323.589C271.055 322.709 271.024 322.7 271.404 323.504ZM315.388 324.747C315.977 325.156 319.87 326.14 322.699 326.594L324.199 326.835V331.032V335.229L327.899 335.114L331.599 334.999L331.712 330.722C331.809 327.078 331.927 326.417 332.512 326.257C332.89 326.153 334.154 325.853 335.321 325.589C336.487 325.325 337.371 325.038 337.284 324.951C337.197 324.864 335.837 325.084 334.262 325.439L331.399 326.086V330.442V334.799H327.999H324.599V330.617V326.435L323.099 326.21C321.529 325.974 316.432 324.862 315.399 324.531C314.874 324.362 314.873 324.39 315.388 324.747Z" fill="#FAE28E"></path><path fill-rule="evenodd" clip-rule="evenodd" d="M261.994 49.3994C261.994 75.3594 262.041 85.9204 262.1 72.8684C262.158 59.8164 262.158 38.5764 262.1 25.6684C262.041 12.7604 261.993 23.4394 261.994 49.3994ZM268.02 6.46139C268.766 7.47639 270.176 8.59639 270.37 8.32739C270.42 8.25639 269.737 7.56939 268.851 6.79939C267.516 5.63839 267.374 5.58039 268.02 6.46139ZM111.197 194.199C111.197 262.179 111.244 289.929 111.3 255.867C111.356 221.804 111.356 166.184 111.3 132.267C111.244 98.3494 111.197 126.219 111.197 194.199ZM29.9996 95.4134C28.9946 95.8974 28.9626 95.9524 29.7996 95.7504C30.3496 95.6184 30.9706 95.3494 31.1796 95.1544C31.6976 94.6704 31.4136 94.7324 29.9996 95.4134ZM325.521 95.8974C327.677 95.9704 331.097 95.9694 333.121 95.8974C335.144 95.8244 333.38 95.7654 329.2 95.7664C325.02 95.7664 323.364 95.8254 325.521 95.8974ZM286.3 96.2974C288.665 96.3684 292.535 96.3684 294.9 96.2974C297.265 96.2274 295.33 96.1694 290.6 96.1694C285.87 96.1694 283.935 96.2274 286.3 96.2974ZM190.532 140.699C215.245 140.756 255.565 140.756 280.132 140.699C304.699 140.642 284.48 140.596 235.2 140.596C185.92 140.596 165.819 140.642 190.532 140.699ZM189.9 181.499C214.705 181.556 255.295 181.556 280.1 181.499C304.905 181.442 284.61 181.396 235 181.396C185.39 181.396 165.095 181.442 189.9 181.499ZM29.0436 195.208C29.2996 195.973 29.6696 196.775 29.8646 196.99C30.0606 197.205 30.0116 196.755 29.7556 195.99C29.4996 195.225 29.1296 194.423 28.9346 194.208C28.7386 193.993 28.7876 194.443 29.0436 195.208ZM167.131 221.499C178.752 221.558 197.652 221.558 209.131 221.499C220.609 221.44 211.1 221.392 188 221.392C164.9 221.392 155.509 221.44 167.131 221.499ZM53.7996 273.499C53.7996 273.69 54.0606 274.195 54.3796 274.623C54.9396 275.372 54.9516 275.367 54.7316 274.493C54.5036 273.59 53.7996 272.839 53.7996 273.499ZM283.1 348.411C281.906 348.891 281.956 349.135 283.2 348.897C283.75 348.792 284.2 348.547 284.2 348.352C284.2 348.158 284.155 348.01 284.1 348.024C284.045 348.038 283.595 348.212 283.1 348.411ZM139.944 394.089C139.697 394.489 140.575 394.44 141.6 393.997C142.282 393.702 142.233 393.661 141.268 393.715C140.645 393.75 140.05 393.918 139.944 394.089ZM93.8336 398.799C93.8456 399.129 94.0106 399.759 94.1996 400.199L94.5436 400.999L94.5656 400.199C94.5776 399.759 94.4126 399.129 94.1996 398.799C93.8546 398.266 93.8146 398.266 93.8336 398.799ZM121 399.999C120.196 400.256 120.157 400.322 120.8 400.331C121.24 400.337 121.96 400.188 122.4 399.999C123.419 399.561 122.368 399.561 121 399.999Z" fill="#C4CCEC"></path><circle cx="327" cy="289.5" r="65.5" fill="#FCC80D"></circle><path d="M353.29 281.838V287.094H299.683V281.838H353.29ZM353.29 293.19V298.446H299.683V293.19H353.29ZM349.007 262.182V316H339.179L315.791 282.127H315.371V316H304.018V262.182H313.978L337.234 296.028H337.681V262.182H349.007Z" fill="white"></path></svg>