<svg width="544" height="468" viewBox="0 0 544 468" fill="none" xmlns="http://www.w3.org/2000/svg">
<rect x="16" y="22" width="528" height="263" fill="black"/>
<rect x="2.5" y="2.5" width="535" height="270" fill="white" stroke="black" stroke-width="5"/>
<circle cx="62" cy="52" r="26" fill="black"/>
<path d="M114.043 67.4219C110.48 67.4219 107.65 66.2441 105.553 63.8887C103.467 61.5332 102.424 58.3398 102.424 54.3086C102.424 50.3008 103.473 47.1191 105.57 44.7637C107.668 42.3965 110.492 41.2129 114.043 41.2129C116.926 41.2129 119.357 42.0273 121.338 43.6562C123.318 45.2734 124.473 47.4004 124.801 50.0371H120.898C120.547 48.4082 119.744 47.1074 118.49 46.1348C117.248 45.1504 115.766 44.6582 114.043 44.6582C111.734 44.6582 109.889 45.5371 108.506 47.2949C107.135 49.041 106.449 51.3789 106.449 54.3086C106.449 57.2734 107.135 59.6289 108.506 61.375C109.877 63.1094 111.729 63.9766 114.061 63.9766C115.818 63.9766 117.295 63.5488 118.49 62.6934C119.697 61.8379 120.5 60.6426 120.898 59.1074H124.818C124.338 61.7324 123.148 63.7773 121.25 65.2422C119.363 66.6953 116.961 67.4219 114.043 67.4219ZM127.912 67V48.5078H131.533V51.6543H131.621C131.926 50.5762 132.471 49.7324 133.256 49.123C134.041 48.5137 134.979 48.209 136.068 48.209C136.432 48.209 136.865 48.2559 137.369 48.3496V51.8828C137.029 51.7422 136.461 51.6719 135.664 51.6719C134.445 51.6719 133.479 52.0527 132.764 52.8145C132.061 53.5762 131.709 54.6133 131.709 55.9258V67H127.912ZM149.867 52.5684C149.035 51.6777 147.963 51.2324 146.65 51.2324C145.338 51.2324 144.248 51.6836 143.381 52.5859C142.514 53.4766 142.033 54.6309 141.939 56.0488H151.186C151.139 54.6191 150.699 53.459 149.867 52.5684ZM151.168 61.5684H154.771C154.502 63.2676 153.635 64.6562 152.17 65.7344C150.705 66.8125 148.918 67.3516 146.809 67.3516C144.102 67.3516 141.969 66.502 140.41 64.8027C138.863 63.0918 138.09 60.7715 138.09 57.8418C138.09 54.9355 138.863 52.5977 140.41 50.8281C141.969 49.0586 144.049 48.1738 146.65 48.1738C149.205 48.1738 151.232 49.0117 152.732 50.6875C154.232 52.3516 154.982 54.5898 154.982 57.4023V58.7031H141.922V58.9316C141.922 60.5488 142.373 61.8438 143.275 62.8164C144.178 63.7891 145.385 64.2754 146.896 64.2754C147.963 64.2754 148.877 64.0293 149.639 63.5371C150.4 63.0449 150.91 62.3887 151.168 61.5684ZM164.879 67.3164C162.535 67.3164 160.654 66.4492 159.236 64.7148C157.818 62.9805 157.109 60.6602 157.109 57.7539C157.109 54.8477 157.812 52.5332 159.219 50.8105C160.637 49.0762 162.512 48.209 164.844 48.209C166.145 48.209 167.305 48.5137 168.324 49.123C169.344 49.7207 170.117 50.541 170.645 51.584H170.715V41.6348H174.529V67H170.838V63.8535H170.768C170.217 64.9316 169.426 65.7812 168.395 66.4023C167.375 67.0117 166.203 67.3164 164.879 67.3164ZM165.881 51.4082C164.381 51.4082 163.191 51.9824 162.312 53.1309C161.434 54.2676 160.994 55.8086 160.994 57.7539C160.994 59.7109 161.434 61.2578 162.312 62.3945C163.191 63.5312 164.381 64.0996 165.881 64.0996C167.346 64.0996 168.523 63.5254 169.414 62.377C170.305 61.2168 170.75 59.6758 170.75 57.7539C170.75 55.8438 170.305 54.3086 169.414 53.1484C168.523 51.9883 167.346 51.4082 165.881 51.4082ZM178.555 67V48.5078H182.352V67H178.555ZM182.018 45.168C181.584 45.5898 181.062 45.8008 180.453 45.8008C179.844 45.8008 179.322 45.5898 178.889 45.168C178.467 44.7461 178.256 44.2363 178.256 43.6387C178.256 43.0293 178.467 42.5137 178.889 42.0918C179.322 41.6699 179.844 41.459 180.453 41.459C181.074 41.459 181.596 41.6699 182.018 42.0918C182.451 42.5137 182.668 43.0293 182.668 43.6387C182.668 44.2363 182.451 44.7461 182.018 45.168ZM187.344 44.1309H191.158V48.5078H194.674V51.5137H191.158V61.709C191.158 62.5059 191.34 63.0918 191.703 63.4668C192.066 63.8418 192.635 64.0293 193.408 64.0293C193.971 64.0293 194.387 64 194.656 63.9414V66.9473C194.188 67.0645 193.484 67.123 192.547 67.123C190.684 67.123 189.348 66.7422 188.539 65.9805C187.742 65.207 187.344 63.9238 187.344 62.1309V51.5137H184.654V48.5078H187.344V44.1309Z" fill="black"/>
<path d="M99.2443 157.452V163.844H34.0455V157.452H99.2443ZM99.2443 171.259V177.651H34.0455V171.259H99.2443ZM92.5966 133.545V199H84.9261L49.2585 147.608H48.6193V199H40.6932V133.545H48.3636L84.1591 185.065H84.7983V133.545H92.5966ZM129.339 200.099C124.593 200.099 120.403 198.868 116.771 196.407C113.138 193.917 110.34 190.387 108.377 185.816C106.297 181.012 105.257 175.196 105.257 168.37C105.257 157.677 107.41 149.356 111.717 143.409C116.053 137.462 122.103 134.488 129.866 134.488C135.257 134.488 139.856 135.982 143.665 138.971C147.474 141.959 149.891 145.943 150.916 150.924H142.874C142.024 148.053 140.413 145.768 138.04 144.068C135.667 142.34 132.913 141.476 129.778 141.476C124.476 141.476 120.374 143.746 117.474 148.287C114.573 152.828 113.05 159.317 112.903 167.755H113.035C114.471 164.649 116.8 162.159 120.022 160.284C123.245 158.409 126.819 157.472 130.745 157.472C136.78 157.472 141.79 159.464 145.774 163.448C149.788 167.433 151.795 172.428 151.795 178.434C151.795 184.703 149.671 189.889 145.423 193.99C141.204 198.062 135.843 200.099 129.339 200.099ZM118.968 188.849C121.78 191.661 125.208 193.067 129.251 193.067C133.294 193.067 136.722 191.676 139.534 188.893C142.347 186.109 143.753 182.711 143.753 178.697C143.753 174.537 142.405 171.124 139.71 168.458C137.015 165.763 133.572 164.415 129.383 164.415C125.193 164.415 121.707 165.748 118.924 168.414C116.17 171.08 114.793 174.435 114.793 178.478C114.793 182.55 116.185 186.007 118.968 188.849ZM182.469 200.055C175.115 200.055 169.373 197.125 165.242 191.266C161.141 185.377 159.09 177.379 159.09 167.271C159.09 157.252 161.155 149.298 165.286 143.409C169.446 137.491 175.174 134.532 182.469 134.532C189.764 134.532 195.462 137.477 199.563 143.365C203.694 149.225 205.76 157.179 205.76 167.228C205.76 177.335 203.709 185.333 199.607 191.222C195.506 197.11 189.793 200.055 182.469 200.055ZM171.087 186.212C173.782 190.841 177.576 193.155 182.469 193.155C187.361 193.155 191.141 190.855 193.807 186.256C196.473 181.627 197.806 175.299 197.806 167.271C197.806 159.361 196.458 153.092 193.763 148.463C191.067 143.805 187.303 141.476 182.469 141.476C177.635 141.476 173.855 143.805 171.131 148.463C168.406 153.121 167.044 159.376 167.044 167.228C167.044 175.255 168.392 181.583 171.087 186.212ZM222.723 173.6L242.938 153.297H252.21L232.391 173.028L252.825 199H243.948L226.985 177.73L222.723 181.773V199H215.076V135.587H222.723V173.6Z" fill="black"/>
<path d="M341.864 49.8409V53.25H307.091V49.8409H341.864ZM341.864 57.2045V60.6136H307.091V57.2045H341.864ZM338.318 37.0909V72H334.227L315.205 44.5909H314.864V72H310.636V37.0909H314.727L333.818 64.5682H334.159V37.0909H338.318ZM355.914 72.5859C353.383 72.5859 351.148 71.9297 349.211 70.6172C347.273 69.2891 345.781 67.4062 344.734 64.9688C343.625 62.4062 343.07 59.3047 343.07 55.6641C343.07 49.9609 344.219 45.5234 346.516 42.3516C348.828 39.1797 352.055 37.5938 356.195 37.5938C359.07 37.5938 361.523 38.3906 363.555 39.9844C365.586 41.5781 366.875 43.7031 367.422 46.3594H363.133C362.68 44.8281 361.82 43.6094 360.555 42.7031C359.289 41.7812 357.82 41.3203 356.148 41.3203C353.32 41.3203 351.133 42.5312 349.586 44.9531C348.039 47.375 347.227 50.8359 347.148 55.3359H347.219C347.984 53.6797 349.227 52.3516 350.945 51.3516C352.664 50.3516 354.57 49.8516 356.664 49.8516C359.883 49.8516 362.555 50.9141 364.68 53.0391C366.82 55.1641 367.891 57.8281 367.891 61.0312C367.891 64.375 366.758 67.1406 364.492 69.3281C362.242 71.5 359.383 72.5859 355.914 72.5859ZM350.383 66.5859C351.883 68.0859 353.711 68.8359 355.867 68.8359C358.023 68.8359 359.852 68.0938 361.352 66.6094C362.852 65.125 363.602 63.3125 363.602 61.1719C363.602 58.9531 362.883 57.1328 361.445 55.7109C360.008 54.2734 358.172 53.5547 355.938 53.5547C353.703 53.5547 351.844 54.2656 350.359 55.6875C348.891 57.1094 348.156 58.8984 348.156 61.0547C348.156 63.2266 348.898 65.0703 350.383 66.5859ZM372.359 72L387.664 42.0234V41.9297H369.453V38.1797H391.836V42.0938L376.789 72H372.359ZM392.203 78.7266H388.805L391.078 66.7969H395.414L392.203 78.7266ZM399.484 47.9297C399.484 44.9766 400.547 42.5234 402.672 40.5703C404.797 38.6016 407.453 37.6172 410.641 37.6172C413.656 37.6172 416.211 38.5156 418.305 40.3125C420.398 42.1094 421.445 44.3047 421.445 46.8984C421.445 48.7734 420.93 50.5781 419.898 52.3125C418.867 54.0469 416.93 56.3828 414.086 59.3203L405.531 68.1562V68.25H422.008V72H399.695V69.0938L411.602 56.5547C413.867 54.1641 415.367 52.3516 416.102 51.1172C416.852 49.8828 417.227 48.5625 417.227 47.1562C417.227 45.5312 416.57 44.1484 415.258 43.0078C413.961 41.8672 412.383 41.2969 410.523 41.2969C408.539 41.2969 406.883 41.9297 405.555 43.1953C404.227 44.4609 403.562 46.0391 403.562 47.9297V47.9531H399.484V47.9297ZM436.719 72.5625C432.797 72.5625 429.734 71 427.531 67.875C425.344 64.7344 424.25 60.4688 424.25 55.0781C424.25 49.7344 425.352 45.4922 427.555 42.3516C429.773 39.1953 432.828 37.6172 436.719 37.6172C440.609 37.6172 443.648 39.1875 445.836 42.3281C448.039 45.4531 449.141 49.6953 449.141 55.0547C449.141 60.4453 448.047 64.7109 445.859 67.8516C443.672 70.9922 440.625 72.5625 436.719 72.5625ZM430.648 65.1797C432.086 67.6484 434.109 68.8828 436.719 68.8828C439.328 68.8828 441.344 67.6562 442.766 65.2031C444.188 62.7344 444.898 59.3594 444.898 55.0781C444.898 50.8594 444.18 47.5156 442.742 45.0469C441.305 42.5625 439.297 41.3203 436.719 41.3203C434.141 41.3203 432.125 42.5625 430.672 45.0469C429.219 47.5312 428.492 50.8672 428.492 55.0547C428.492 59.3359 429.211 62.7109 430.648 65.1797ZM463.828 72.5625C459.906 72.5625 456.844 71 454.641 67.875C452.453 64.7344 451.359 60.4688 451.359 55.0781C451.359 49.7344 452.461 45.4922 454.664 42.3516C456.883 39.1953 459.938 37.6172 463.828 37.6172C467.719 37.6172 470.758 39.1875 472.945 42.3281C475.148 45.4531 476.25 49.6953 476.25 55.0547C476.25 60.4453 475.156 64.7109 472.969 67.8516C470.781 70.9922 467.734 72.5625 463.828 72.5625ZM457.758 65.1797C459.195 67.6484 461.219 68.8828 463.828 68.8828C466.438 68.8828 468.453 67.6562 469.875 65.2031C471.297 62.7344 472.008 59.3594 472.008 55.0781C472.008 50.8594 471.289 47.5156 469.852 45.0469C468.414 42.5625 466.406 41.3203 463.828 41.3203C461.25 41.3203 459.234 42.5625 457.781 45.0469C456.328 47.5312 455.602 50.8672 455.602 55.0547C455.602 59.3359 456.32 62.7109 457.758 65.1797Z" fill="black"/>
<path d="M341.864 186.841V190.25H307.091V186.841H341.864ZM341.864 194.205V197.614H307.091V194.205H341.864ZM338.318 174.091V209H334.227L315.205 181.591H314.864V209H310.636V174.091H314.727L333.818 201.568H334.159V174.091H338.318ZM343.469 184.93C343.469 181.977 344.531 179.523 346.656 177.57C348.781 175.602 351.438 174.617 354.625 174.617C357.641 174.617 360.195 175.516 362.289 177.312C364.383 179.109 365.43 181.305 365.43 183.898C365.43 185.773 364.914 187.578 363.883 189.312C362.852 191.047 360.914 193.383 358.07 196.32L349.516 205.156V205.25H365.992V209H343.68V206.094L355.586 193.555C357.852 191.164 359.352 189.352 360.086 188.117C360.836 186.883 361.211 185.562 361.211 184.156C361.211 182.531 360.555 181.148 359.242 180.008C357.945 178.867 356.367 178.297 354.508 178.297C352.523 178.297 350.867 178.93 349.539 180.195C348.211 181.461 347.547 183.039 347.547 184.93V184.953H343.469V184.93ZM368.656 184.93C368.656 181.977 369.719 179.523 371.844 177.57C373.969 175.602 376.625 174.617 379.812 174.617C382.828 174.617 385.383 175.516 387.477 177.312C389.57 179.109 390.617 181.305 390.617 183.898C390.617 185.773 390.102 187.578 389.07 189.312C388.039 191.047 386.102 193.383 383.258 196.32L374.703 205.156V205.25H391.18V209H368.867V206.094L380.773 193.555C383.039 191.164 384.539 189.352 385.273 188.117C386.023 186.883 386.398 185.562 386.398 184.156C386.398 182.531 385.742 181.148 384.43 180.008C383.133 178.867 381.555 178.297 379.695 178.297C377.711 178.297 376.055 178.93 374.727 180.195C373.398 181.461 372.734 183.039 372.734 184.93V184.953H368.656V184.93ZM396.75 215.727H393.352L395.625 203.797H399.961L396.75 215.727ZM420.32 209V201.969H403.328V198.148C404.781 195.445 406.625 192.359 408.859 188.891C411.109 185.422 414.211 180.852 418.164 175.18H424.398V198.266H429.18V201.969H424.398V209H420.32ZM407.5 198.172V198.266H420.32V178.695H420.25C414.328 187.148 410.078 193.641 407.5 198.172ZM443.141 209.562C439.219 209.562 436.156 208 433.953 204.875C431.766 201.734 430.672 197.469 430.672 192.078C430.672 186.734 431.773 182.492 433.977 179.352C436.195 176.195 439.25 174.617 443.141 174.617C447.031 174.617 450.07 176.188 452.258 179.328C454.461 182.453 455.562 186.695 455.562 192.055C455.562 197.445 454.469 201.711 452.281 204.852C450.094 207.992 447.047 209.562 443.141 209.562ZM437.07 202.18C438.508 204.648 440.531 205.883 443.141 205.883C445.75 205.883 447.766 204.656 449.188 202.203C450.609 199.734 451.32 196.359 451.32 192.078C451.32 187.859 450.602 184.516 449.164 182.047C447.727 179.562 445.719 178.32 443.141 178.32C440.562 178.32 438.547 179.562 437.094 182.047C435.641 184.531 434.914 187.867 434.914 192.055C434.914 196.336 435.633 199.711 437.07 202.18ZM470.25 209.562C466.328 209.562 463.266 208 461.062 204.875C458.875 201.734 457.781 197.469 457.781 192.078C457.781 186.734 458.883 182.492 461.086 179.352C463.305 176.195 466.359 174.617 470.25 174.617C474.141 174.617 477.18 176.188 479.367 179.328C481.57 182.453 482.672 186.695 482.672 192.055C482.672 197.445 481.578 201.711 479.391 204.852C477.203 207.992 474.156 209.562 470.25 209.562ZM464.18 202.18C465.617 204.648 467.641 205.883 470.25 205.883C472.859 205.883 474.875 204.656 476.297 202.203C477.719 199.734 478.43 196.359 478.43 192.078C478.43 187.859 477.711 184.516 476.273 182.047C474.836 179.562 472.828 178.32 470.25 178.32C467.672 178.32 465.656 179.562 464.203 182.047C462.75 184.531 462.023 187.867 462.023 192.055C462.023 196.336 462.742 199.711 464.18 202.18Z" fill="black"/>
<path d="M46.1445 239.328C43.3737 239.328 41.1725 238.412 39.541 236.58C37.9186 234.748 37.1074 232.264 37.1074 229.129C37.1074 226.012 37.9232 223.537 39.5547 221.705C41.1862 219.864 43.3828 218.943 46.1445 218.943C48.3867 218.943 50.278 219.577 51.8184 220.844C53.3587 222.102 54.2565 223.756 54.5117 225.807H51.4766C51.2031 224.54 50.5788 223.528 49.6035 222.771C48.6374 222.006 47.4844 221.623 46.1445 221.623C44.349 221.623 42.9134 222.307 41.8379 223.674C40.7715 225.032 40.2383 226.85 40.2383 229.129C40.2383 231.435 40.7715 233.267 41.8379 234.625C42.9043 235.974 44.3444 236.648 46.1582 236.648C47.5254 236.648 48.6738 236.316 49.6035 235.65C50.5423 234.985 51.1667 234.055 51.4766 232.861H54.5254C54.1517 234.903 53.2266 236.493 51.75 237.633C50.2826 238.763 48.4141 239.328 46.1445 239.328ZM56.9316 239V224.617H59.748V227.064H59.8164C60.0534 226.226 60.4772 225.57 61.0879 225.096C61.6986 224.622 62.4277 224.385 63.2754 224.385C63.5579 224.385 63.8952 224.421 64.2871 224.494V227.242C64.0228 227.133 63.5807 227.078 62.9609 227.078C62.013 227.078 61.2611 227.374 60.7051 227.967C60.1582 228.559 59.8848 229.366 59.8848 230.387V239H56.9316ZM74.0078 227.775C73.3607 227.083 72.5267 226.736 71.5059 226.736C70.485 226.736 69.6374 227.087 68.9629 227.789C68.2884 228.482 67.9147 229.38 67.8418 230.482H75.0332C74.9967 229.37 74.6549 228.468 74.0078 227.775ZM75.0195 234.775H77.8223C77.6126 236.097 76.9382 237.177 75.7988 238.016C74.6595 238.854 73.2695 239.273 71.6289 239.273C69.5234 239.273 67.8646 238.613 66.6523 237.291C65.4492 235.96 64.8477 234.156 64.8477 231.877C64.8477 229.617 65.4492 227.798 66.6523 226.422C67.8646 225.046 69.4824 224.357 71.5059 224.357C73.4928 224.357 75.0697 225.009 76.2363 226.312C77.403 227.607 77.9863 229.348 77.9863 231.535V232.547H67.8281V232.725C67.8281 233.982 68.179 234.99 68.8809 235.746C69.5827 236.503 70.5215 236.881 71.6973 236.881C72.5267 236.881 73.2376 236.689 73.8301 236.307C74.4225 235.924 74.819 235.413 75.0195 234.775ZM85.6836 239.246C83.8607 239.246 82.3978 238.572 81.2949 237.223C80.1921 235.874 79.6406 234.069 79.6406 231.809C79.6406 229.548 80.1875 227.748 81.2812 226.408C82.3841 225.059 83.8424 224.385 85.6562 224.385C86.668 224.385 87.5703 224.622 88.3633 225.096C89.1562 225.561 89.7578 226.199 90.168 227.01H90.2227V219.271H93.1895V239H90.3184V236.553H90.2637C89.8353 237.391 89.2201 238.052 88.418 238.535C87.625 239.009 86.7135 239.246 85.6836 239.246ZM86.4629 226.873C85.2962 226.873 84.3711 227.32 83.6875 228.213C83.0039 229.097 82.6621 230.296 82.6621 231.809C82.6621 233.331 83.0039 234.534 83.6875 235.418C84.3711 236.302 85.2962 236.744 86.4629 236.744C87.6022 236.744 88.5182 236.298 89.2109 235.404C89.9036 234.502 90.25 233.303 90.25 231.809C90.25 230.323 89.9036 229.129 89.2109 228.227C88.5182 227.324 87.6022 226.873 86.4629 226.873ZM96.3203 239V224.617H99.2734V239H96.3203ZM99.0137 222.02C98.6764 222.348 98.2708 222.512 97.7969 222.512C97.3229 222.512 96.9173 222.348 96.5801 222.02C96.252 221.691 96.0879 221.295 96.0879 220.83C96.0879 220.356 96.252 219.955 96.5801 219.627C96.9173 219.299 97.3229 219.135 97.7969 219.135C98.2799 219.135 98.6855 219.299 99.0137 219.627C99.3509 219.955 99.5195 220.356 99.5195 220.83C99.5195 221.295 99.3509 221.691 99.0137 222.02ZM103.156 221.213H106.123V224.617H108.857V226.955H106.123V234.885C106.123 235.505 106.264 235.96 106.547 236.252C106.829 236.544 107.271 236.689 107.873 236.689C108.311 236.689 108.634 236.667 108.844 236.621V238.959C108.479 239.05 107.932 239.096 107.203 239.096C105.754 239.096 104.715 238.799 104.086 238.207C103.466 237.605 103.156 236.607 103.156 235.213V226.955H101.064V224.617H103.156V221.213ZM117.84 221.213H120.807V224.617H123.541V226.955H120.807V234.885C120.807 235.505 120.948 235.96 121.23 236.252C121.513 236.544 121.955 236.689 122.557 236.689C122.994 236.689 123.318 236.667 123.527 236.621V238.959C123.163 239.05 122.616 239.096 121.887 239.096C120.438 239.096 119.398 238.799 118.77 238.207C118.15 237.605 117.84 236.607 117.84 235.213V226.955H115.748V224.617H117.84V221.213ZM130.787 236.908C131.826 236.908 132.697 236.594 133.398 235.965C134.109 235.327 134.465 234.543 134.465 233.613V232.479L130.924 232.697C130.04 232.761 129.356 232.98 128.873 233.354C128.399 233.718 128.162 234.21 128.162 234.83C128.162 235.459 128.399 235.965 128.873 236.348C129.356 236.721 129.994 236.908 130.787 236.908ZM129.967 239.246C128.554 239.246 127.401 238.845 126.508 238.043C125.624 237.241 125.182 236.197 125.182 234.912C125.182 233.654 125.646 232.656 126.576 231.918C127.506 231.171 128.823 230.751 130.527 230.66L134.465 230.428V229.32C134.465 228.518 134.21 227.894 133.699 227.447C133.189 226.992 132.482 226.764 131.58 226.764C130.742 226.764 130.058 226.951 129.529 227.324C129.01 227.698 128.682 228.213 128.545 228.869H125.756C125.838 227.538 126.412 226.454 127.479 225.615C128.545 224.777 129.949 224.357 131.689 224.357C133.43 224.357 134.816 224.786 135.846 225.643C136.885 226.499 137.404 227.648 137.404 229.088V239H134.574V236.635H134.506C134.096 237.428 133.471 238.061 132.633 238.535C131.803 239.009 130.915 239.246 129.967 239.246ZM143.365 230.783L149.176 224.617H152.648L146.688 230.811L152.881 239H149.449L144.568 232.615L143.338 233.832V239H140.385V219.271H143.338V230.783H143.365ZM162.246 227.775C161.599 227.083 160.765 226.736 159.744 226.736C158.723 226.736 157.876 227.087 157.201 227.789C156.527 228.482 156.153 229.38 156.08 230.482H163.271C163.235 229.37 162.893 228.468 162.246 227.775ZM163.258 234.775H166.061C165.851 236.097 165.176 237.177 164.037 238.016C162.898 238.854 161.508 239.273 159.867 239.273C157.762 239.273 156.103 238.613 154.891 237.291C153.688 235.96 153.086 234.156 153.086 231.877C153.086 229.617 153.688 227.798 154.891 226.422C156.103 225.046 157.721 224.357 159.744 224.357C161.731 224.357 163.308 225.009 164.475 226.312C165.641 227.607 166.225 229.348 166.225 231.535V232.547H156.066V232.725C156.066 233.982 156.417 234.99 157.119 235.746C157.821 236.503 158.76 236.881 159.936 236.881C160.765 236.881 161.476 236.689 162.068 236.307C162.661 235.924 163.057 235.413 163.258 234.775ZM168.521 239V224.617H171.338V227.023H171.406C171.807 226.185 172.391 225.533 173.156 225.068C173.922 224.604 174.847 224.371 175.932 224.371C177.508 224.371 178.734 224.845 179.609 225.793C180.484 226.732 180.922 228.031 180.922 229.689V239H177.955V230.264C177.955 229.17 177.695 228.34 177.176 227.775C176.665 227.201 175.904 226.914 174.893 226.914C173.854 226.914 173.024 227.251 172.404 227.926C171.785 228.6 171.475 229.498 171.475 230.619V239H168.521Z" fill="black"/>
<path d="M307.299 85.9082H312.582C313.949 85.9082 315.062 86.3379 315.922 87.1973C316.788 88.0566 317.221 89.1699 317.221 90.5371C317.221 91.9108 316.781 93.0306 315.902 93.8965C315.03 94.7559 313.9 95.1855 312.514 95.1855H309.486V100H307.299V85.9082ZM309.486 87.7539V93.3496H311.996C312.947 93.3496 313.682 93.1055 314.203 92.6172C314.724 92.1289 314.984 91.4388 314.984 90.5469C314.984 89.6615 314.724 88.9746 314.203 88.4863C313.689 87.998 312.956 87.7539 312.006 87.7539H309.486ZM321.654 98.5059C322.396 98.5059 323.018 98.2812 323.52 97.832C324.027 97.3763 324.281 96.8164 324.281 96.1523V95.3418L321.752 95.498C321.12 95.5436 320.632 95.6999 320.287 95.9668C319.949 96.2272 319.779 96.5788 319.779 97.0215C319.779 97.4707 319.949 97.832 320.287 98.1055C320.632 98.3724 321.088 98.5059 321.654 98.5059ZM321.068 100.176C320.059 100.176 319.236 99.8893 318.598 99.3164C317.966 98.7435 317.65 97.998 317.65 97.0801C317.65 96.1816 317.982 95.4688 318.646 94.9414C319.311 94.4076 320.251 94.1081 321.469 94.043L324.281 93.877V93.0859C324.281 92.513 324.099 92.0671 323.734 91.748C323.37 91.4225 322.865 91.2598 322.221 91.2598C321.622 91.2598 321.133 91.3932 320.756 91.6602C320.385 91.9271 320.15 92.2949 320.053 92.7637H318.061C318.119 91.8132 318.529 91.0384 319.291 90.4395C320.053 89.8405 321.055 89.541 322.299 89.541C323.542 89.541 324.532 89.847 325.268 90.459C326.01 91.071 326.381 91.8913 326.381 92.9199V100H324.359V98.3105H324.311C324.018 98.877 323.572 99.3294 322.973 99.668C322.38 100.007 321.745 100.176 321.068 100.176ZM329.447 103.828C329.05 103.828 328.764 103.812 328.588 103.779V102.07C328.692 102.096 328.92 102.109 329.271 102.109C329.766 102.109 330.154 101.995 330.434 101.768C330.714 101.546 330.935 101.172 331.098 100.645C331.098 100.638 331.13 100.531 331.195 100.322L331.283 100.01L327.572 89.7266H329.857L332.465 98.0859H332.494L335.102 89.7266H337.328L333.471 100.537C333.035 101.781 332.523 102.64 331.938 103.115C331.352 103.59 330.521 103.828 329.447 103.828ZM348.1 100.176C347.357 100.176 346.703 100.007 346.137 99.668C345.57 99.3294 345.124 98.8574 344.799 98.252H344.76V100H342.709V85.9082H344.818V91.4746H344.867C345.18 90.8757 345.616 90.4069 346.176 90.0684C346.742 89.7298 347.387 89.5605 348.109 89.5605C349.405 89.5605 350.44 90.0391 351.215 90.9961C351.996 91.9531 352.387 93.2422 352.387 94.8633C352.387 96.4909 351.999 97.7832 351.225 98.7402C350.45 99.6973 349.408 100.176 348.1 100.176ZM347.533 91.3379C346.726 91.3379 346.068 91.6634 345.561 92.3145C345.059 92.959 344.809 93.8086 344.809 94.8633C344.809 95.9245 345.059 96.7773 345.561 97.4219C346.068 98.0664 346.726 98.3887 347.533 98.3887C348.36 98.3887 349.014 98.0729 349.496 97.4414C349.978 96.8099 350.219 95.9505 350.219 94.8633C350.219 93.7826 349.978 92.9264 349.496 92.2949C349.014 91.6569 348.36 91.3379 347.533 91.3379ZM357.631 98.5059C358.373 98.5059 358.995 98.2812 359.496 97.832C360.004 97.3763 360.258 96.8164 360.258 96.1523V95.3418L357.729 95.498C357.097 95.5436 356.609 95.6999 356.264 95.9668C355.925 96.2272 355.756 96.5788 355.756 97.0215C355.756 97.4707 355.925 97.832 356.264 98.1055C356.609 98.3724 357.064 98.5059 357.631 98.5059ZM357.045 100.176C356.036 100.176 355.212 99.8893 354.574 99.3164C353.943 98.7435 353.627 97.998 353.627 97.0801C353.627 96.1816 353.959 95.4688 354.623 94.9414C355.287 94.4076 356.228 94.1081 357.445 94.043L360.258 93.877V93.0859C360.258 92.513 360.076 92.0671 359.711 91.748C359.346 91.4225 358.842 91.2598 358.197 91.2598C357.598 91.2598 357.11 91.3932 356.732 91.6602C356.361 91.9271 356.127 92.2949 356.029 92.7637H354.037C354.096 91.8132 354.506 91.0384 355.268 90.4395C356.029 89.8405 357.032 89.541 358.275 89.541C359.519 89.541 360.508 89.847 361.244 90.459C361.986 91.071 362.357 91.8913 362.357 92.9199V100H360.336V98.3105H360.287C359.994 98.877 359.548 99.3294 358.949 99.668C358.357 100.007 357.722 100.176 357.045 100.176ZM373.227 93.2617H371.215C371.104 92.6823 370.837 92.2103 370.414 91.8457C369.997 91.4811 369.46 91.2988 368.803 91.2988C367.982 91.2988 367.325 91.6211 366.83 92.2656C366.342 92.9036 366.098 93.7695 366.098 94.8633C366.098 95.9766 366.342 96.849 366.83 97.4805C367.325 98.112 367.989 98.4277 368.822 98.4277C369.467 98.4277 369.994 98.2617 370.404 97.9297C370.821 97.5911 371.091 97.1224 371.215 96.5234H373.246C373.135 97.6237 372.673 98.5124 371.859 99.1895C371.052 99.86 370.033 100.195 368.803 100.195C367.325 100.195 366.146 99.7201 365.268 98.7695C364.389 97.8125 363.949 96.5104 363.949 94.8633C363.949 93.2357 364.389 91.9434 365.268 90.9863C366.146 90.0228 367.318 89.541 368.783 89.541C370.059 89.541 371.094 89.8991 371.889 90.6152C372.683 91.3249 373.129 92.207 373.227 93.2617ZM376.947 94.1309L381.098 89.7266H383.578L379.32 94.1504L383.744 100H381.293L377.807 95.4395L376.928 96.3086V100H374.818V85.9082H376.928V94.1309H376.947ZM385.209 94.4629C385.209 92.7507 385.44 91.1947 385.902 89.7949C386.365 88.3952 387.074 87.0996 388.031 85.9082H389.887C389.177 86.735 388.581 87.9655 388.1 89.5996C387.618 91.2337 387.377 92.8516 387.377 94.4531C387.377 96.0547 387.618 97.6758 388.1 99.3164C388.588 100.951 389.184 102.181 389.887 103.008H388.031C386.15 100.671 385.209 97.8223 385.209 94.4629ZM394.418 93.623V91.9043H396.117C396.872 91.9043 397.488 91.6895 397.963 91.2598C398.445 90.8301 398.686 90.2832 398.686 89.6191C398.686 88.9486 398.461 88.418 398.012 88.0273C397.569 87.6367 396.938 87.4414 396.117 87.4414C395.355 87.4414 394.737 87.6465 394.262 88.0566C393.786 88.4603 393.516 89.0104 393.451 89.707H391.391C391.475 88.4701 391.951 87.4837 392.816 86.748C393.689 86.0124 394.822 85.6445 396.215 85.6445C397.556 85.6445 398.66 85.9896 399.525 86.6797C400.391 87.3633 400.824 88.2454 400.824 89.3262C400.824 90.1986 400.561 90.9342 400.033 91.5332C399.506 92.1257 398.803 92.5 397.924 92.6562V92.6953C398.992 92.7669 399.838 93.1087 400.463 93.7207C401.094 94.3327 401.41 95.1302 401.41 96.1133C401.41 97.3307 400.919 98.3268 399.936 99.1016C398.952 99.8763 397.719 100.264 396.234 100.264C394.73 100.264 393.516 99.8893 392.592 99.1406C391.674 98.3854 391.179 97.3926 391.107 96.1621H393.207C393.279 96.8457 393.581 97.3958 394.115 97.8125C394.656 98.2292 395.362 98.4375 396.234 98.4375C397.094 98.4375 397.8 98.2194 398.354 97.7832C398.907 97.3405 399.184 96.7741 399.184 96.084C399.184 95.3223 398.913 94.7233 398.373 94.2871C397.839 93.8444 397.107 93.623 396.176 93.623H394.418ZM407.475 100V89.7266H409.486V91.4551H409.535C409.77 90.8757 410.144 90.4134 410.658 90.0684C411.173 89.7233 411.771 89.5508 412.455 89.5508C413.165 89.5508 413.767 89.7266 414.262 90.0781C414.763 90.4297 415.118 90.9245 415.326 91.5625H415.375C415.642 90.9375 416.059 90.446 416.625 90.0879C417.198 89.7298 417.849 89.5508 418.578 89.5508C419.594 89.5508 420.408 89.86 421.02 90.4785C421.632 91.097 421.938 91.9173 421.938 92.9395V100H419.818V93.4473C419.818 92.7832 419.646 92.2689 419.301 91.9043C418.962 91.5397 418.48 91.3574 417.855 91.3574C417.23 91.3574 416.719 91.5658 416.322 91.9824C415.932 92.3991 415.736 92.9329 415.736 93.584V100H413.666V93.291C413.666 92.6986 413.49 92.2298 413.139 91.8848C412.787 91.5332 412.315 91.3574 411.723 91.3574C411.098 91.3574 410.583 91.5755 410.18 92.0117C409.783 92.4414 409.584 92.9883 409.584 93.6523V100H407.475ZM431.938 98.7695C431.052 99.7201 429.87 100.195 428.393 100.195C426.915 100.195 425.733 99.7201 424.848 98.7695C423.962 97.8125 423.52 96.5104 423.52 94.8633C423.52 93.2227 423.962 91.9271 424.848 90.9766C425.733 90.0195 426.915 89.541 428.393 89.541C429.87 89.541 431.052 90.0195 431.938 90.9766C432.823 91.9271 433.266 93.2227 433.266 94.8633C433.266 96.5104 432.823 97.8125 431.938 98.7695ZM428.393 98.457C429.232 98.457 429.896 98.1413 430.385 97.5098C430.873 96.8783 431.117 95.9961 431.117 94.8633C431.117 93.737 430.87 92.8581 430.375 92.2266C429.887 91.5951 429.226 91.2793 428.393 91.2793C427.559 91.2793 426.895 91.5951 426.4 92.2266C425.912 92.8581 425.668 93.737 425.668 94.8633C425.668 95.9961 425.912 96.8783 426.4 97.5098C426.895 98.1413 427.559 98.457 428.393 98.457ZM434.896 100V89.7266H436.908V91.4453H436.957C437.243 90.8464 437.66 90.3809 438.207 90.0488C438.754 89.7168 439.415 89.5508 440.189 89.5508C441.316 89.5508 442.191 89.8893 442.816 90.5664C443.441 91.237 443.754 92.1647 443.754 93.3496V100H441.635V93.7598C441.635 92.9785 441.449 92.3861 441.078 91.9824C440.714 91.5723 440.17 91.3672 439.447 91.3672C438.705 91.3672 438.113 91.6081 437.67 92.0898C437.227 92.5716 437.006 93.2129 437.006 94.0137V100H434.896ZM446.41 87.2949H448.529V89.7266H450.482V91.3965H448.529V97.0605C448.529 97.5033 448.63 97.8288 448.832 98.0371C449.034 98.2454 449.35 98.3496 449.779 98.3496C450.092 98.3496 450.323 98.3333 450.473 98.3008V99.9707C450.212 100.036 449.822 100.068 449.301 100.068C448.266 100.068 447.523 99.8568 447.074 99.4336C446.632 99.0039 446.41 98.291 446.41 97.2949V91.3965H444.916V89.7266H446.41V87.2949ZM452.299 100V85.9082H454.389V91.4453H454.438C454.724 90.8398 455.144 90.3743 455.697 90.0488C456.251 89.7168 456.915 89.5508 457.689 89.5508C458.809 89.5508 459.688 89.8958 460.326 90.5859C460.971 91.276 461.293 92.207 461.293 93.3789V100H459.174V93.7891C459.174 93.0208 458.982 92.4251 458.598 92.002C458.22 91.5788 457.663 91.3672 456.928 91.3672C456.153 91.3672 455.538 91.6146 455.082 92.1094C454.633 92.5977 454.408 93.2487 454.408 94.0625V100H452.299ZM463.148 92.6367C463.148 91.7188 463.52 90.9733 464.262 90.4004C465.004 89.8275 465.974 89.541 467.172 89.541C468.311 89.541 469.245 89.8307 469.975 90.4102C470.71 90.9831 471.094 91.7285 471.127 92.6465H469.145C469.092 92.1777 468.887 91.8099 468.529 91.543C468.171 91.276 467.699 91.1426 467.113 91.1426C466.54 91.1426 466.078 91.2695 465.727 91.5234C465.382 91.7773 465.209 92.1061 465.209 92.5098C465.209 93.1348 465.733 93.5775 466.781 93.8379L468.51 94.2383C469.545 94.4857 470.277 94.8242 470.707 95.2539C471.143 95.6771 471.361 96.2695 471.361 97.0312C471.361 97.9688 470.964 98.7305 470.17 99.3164C469.382 99.9023 468.357 100.195 467.094 100.195C465.889 100.195 464.906 99.9089 464.145 99.3359C463.389 98.763 462.969 98.0013 462.885 97.0508H464.975C465.059 97.5456 465.29 97.9264 465.668 98.1934C466.046 98.4538 466.553 98.584 467.191 98.584C467.823 98.584 468.321 98.4635 468.686 98.2227C469.057 97.9753 469.242 97.6432 469.242 97.2266C469.242 96.8945 469.132 96.6309 468.91 96.4355C468.689 96.2402 468.311 96.0742 467.777 95.9375L465.941 95.4883C464.079 95.0391 463.148 94.0885 463.148 92.6367ZM477.006 94.4629C477.006 95.485 476.928 96.4388 476.771 97.3242C476.622 98.2096 476.404 99.0007 476.117 99.6973C475.837 100.387 475.544 100.986 475.238 101.494C474.932 102.008 474.581 102.513 474.184 103.008H472.328C472.595 102.702 472.865 102.288 473.139 101.768C473.412 101.247 473.679 100.628 473.939 99.9121C474.206 99.1895 474.421 98.3496 474.584 97.3926C474.753 96.429 474.838 95.4492 474.838 94.4531C474.838 93.457 474.753 92.4805 474.584 91.5234C474.421 90.5599 474.206 89.7201 473.939 89.0039C473.679 88.2812 473.409 87.6628 473.129 87.1484C472.855 86.6276 472.589 86.2142 472.328 85.9082H474.184C474.581 86.3965 474.932 86.8978 475.238 87.4121C475.544 87.9199 475.837 88.5221 476.117 89.2188C476.404 89.9089 476.622 90.6999 476.771 91.5918C476.928 92.4772 477.006 93.4342 477.006 94.4629Z" fill="black"/>
<path d="M307.299 222.908H312.582C313.949 222.908 315.062 223.338 315.922 224.197C316.788 225.057 317.221 226.17 317.221 227.537C317.221 228.911 316.781 230.031 315.902 230.896C315.03 231.756 313.9 232.186 312.514 232.186H309.486V237H307.299V222.908ZM309.486 224.754V230.35H311.996C312.947 230.35 313.682 230.105 314.203 229.617C314.724 229.129 314.984 228.439 314.984 227.547C314.984 226.661 314.724 225.975 314.203 225.486C313.689 224.998 312.956 224.754 312.006 224.754H309.486ZM324.516 228.982C324.053 228.488 323.458 228.24 322.729 228.24C321.999 228.24 321.394 228.491 320.912 228.992C320.43 229.487 320.163 230.128 320.111 230.916H325.248C325.222 230.122 324.978 229.477 324.516 228.982ZM325.238 233.982H327.24C327.09 234.926 326.609 235.698 325.795 236.297C324.981 236.896 323.988 237.195 322.816 237.195C321.312 237.195 320.128 236.723 319.262 235.779C318.402 234.829 317.973 233.54 317.973 231.912C317.973 230.298 318.402 228.999 319.262 228.016C320.128 227.033 321.283 226.541 322.729 226.541C324.148 226.541 325.274 227.007 326.107 227.938C326.941 228.862 327.357 230.105 327.357 231.668V232.391H320.102V232.518C320.102 233.416 320.352 234.135 320.854 234.676C321.355 235.216 322.025 235.486 322.865 235.486C323.458 235.486 323.965 235.35 324.389 235.076C324.812 234.803 325.095 234.438 325.238 233.982ZM328.998 237V226.727H331.01V228.475H331.059C331.228 227.876 331.531 227.407 331.967 227.068C332.403 226.73 332.924 226.561 333.529 226.561C333.731 226.561 333.972 226.587 334.252 226.639V228.602C334.063 228.523 333.747 228.484 333.305 228.484C332.628 228.484 332.09 228.696 331.693 229.119C331.303 229.542 331.107 230.118 331.107 230.848V237H328.998ZM339.623 237V226.727H341.635V228.455H341.684C341.918 227.876 342.292 227.413 342.807 227.068C343.321 226.723 343.92 226.551 344.604 226.551C345.313 226.551 345.915 226.727 346.41 227.078C346.911 227.43 347.266 227.924 347.475 228.562H347.523C347.79 227.938 348.207 227.446 348.773 227.088C349.346 226.73 349.997 226.551 350.727 226.551C351.742 226.551 352.556 226.86 353.168 227.479C353.78 228.097 354.086 228.917 354.086 229.939V237H351.967V230.447C351.967 229.783 351.794 229.269 351.449 228.904C351.111 228.54 350.629 228.357 350.004 228.357C349.379 228.357 348.868 228.566 348.471 228.982C348.08 229.399 347.885 229.933 347.885 230.584V237H345.814V230.291C345.814 229.699 345.639 229.23 345.287 228.885C344.936 228.533 344.464 228.357 343.871 228.357C343.246 228.357 342.732 228.576 342.328 229.012C341.931 229.441 341.732 229.988 341.732 230.652V237H339.623ZM364.086 235.77C363.201 236.72 362.019 237.195 360.541 237.195C359.063 237.195 357.882 236.72 356.996 235.77C356.111 234.812 355.668 233.51 355.668 231.863C355.668 230.223 356.111 228.927 356.996 227.977C357.882 227.02 359.063 226.541 360.541 226.541C362.019 226.541 363.201 227.02 364.086 227.977C364.971 228.927 365.414 230.223 365.414 231.863C365.414 233.51 364.971 234.812 364.086 235.77ZM360.541 235.457C361.381 235.457 362.045 235.141 362.533 234.51C363.021 233.878 363.266 232.996 363.266 231.863C363.266 230.737 363.018 229.858 362.523 229.227C362.035 228.595 361.374 228.279 360.541 228.279C359.708 228.279 359.044 228.595 358.549 229.227C358.061 229.858 357.816 230.737 357.816 231.863C357.816 232.996 358.061 233.878 358.549 234.51C359.044 235.141 359.708 235.457 360.541 235.457ZM367.045 237V226.727H369.057V228.445H369.105C369.392 227.846 369.809 227.381 370.355 227.049C370.902 226.717 371.563 226.551 372.338 226.551C373.464 226.551 374.34 226.889 374.965 227.566C375.59 228.237 375.902 229.165 375.902 230.35V237H373.783V230.76C373.783 229.979 373.598 229.386 373.227 228.982C372.862 228.572 372.318 228.367 371.596 228.367C370.854 228.367 370.261 228.608 369.818 229.09C369.376 229.572 369.154 230.213 369.154 231.014V237H367.045ZM378.559 224.295H380.678V226.727H382.631V228.396H380.678V234.061C380.678 234.503 380.779 234.829 380.98 235.037C381.182 235.245 381.498 235.35 381.928 235.35C382.24 235.35 382.471 235.333 382.621 235.301V236.971C382.361 237.036 381.97 237.068 381.449 237.068C380.414 237.068 379.672 236.857 379.223 236.434C378.78 236.004 378.559 235.291 378.559 234.295V228.396H377.064V226.727H378.559V224.295ZM384.447 237V222.908H386.537V228.445H386.586C386.872 227.84 387.292 227.374 387.846 227.049C388.399 226.717 389.063 226.551 389.838 226.551C390.958 226.551 391.837 226.896 392.475 227.586C393.119 228.276 393.441 229.207 393.441 230.379V237H391.322V230.789C391.322 230.021 391.13 229.425 390.746 229.002C390.368 228.579 389.812 228.367 389.076 228.367C388.301 228.367 387.686 228.615 387.23 229.109C386.781 229.598 386.557 230.249 386.557 231.062V237H384.447Z" fill="black"/>
<line x1="306" y1="125.5" x2="370" y2="125.5" stroke="black" stroke-width="5"/>
<path d="M71.3707 48.9972V50.8438H52.5355V48.9972H71.3707ZM71.3707 52.9858V54.8324H52.5355V52.9858H71.3707ZM69.5888 42.0909V61H66.9574L57.3459 47.1321H57.1797V61H54.3175V42.0909H56.9673L66.5788 55.9773H66.7543V42.0909H69.5888Z" fill="white"/>
<rect x="2" y="312" width="540" height="60" fill="white" stroke="black" stroke-width="4"/>
<path d="M67.2461 348.234C65.2669 348.234 63.6947 347.58 62.5293 346.271C61.3704 344.963 60.791 343.189 60.791 340.949C60.791 338.723 61.3737 336.955 62.5391 335.646C63.7044 334.331 65.2734 333.674 67.2461 333.674C68.8477 333.674 70.1986 334.126 71.2988 335.031C72.3991 335.93 73.0404 337.111 73.2227 338.576H71.0547C70.8594 337.671 70.4134 336.949 69.7168 336.408C69.0267 335.861 68.2031 335.588 67.2461 335.588C65.9635 335.588 64.9382 336.076 64.1699 337.053C63.4082 338.023 63.0273 339.322 63.0273 340.949C63.0273 342.596 63.4082 343.905 64.1699 344.875C64.9316 345.839 65.9603 346.32 67.2559 346.32C68.2324 346.32 69.0527 346.083 69.7168 345.607C70.3874 345.132 70.8333 344.468 71.0547 343.615H73.2324C72.9655 345.074 72.3047 346.21 71.25 347.023C70.2018 347.831 68.8672 348.234 67.2461 348.234ZM74.9512 348V337.727H76.9629V339.475H77.0117C77.181 338.876 77.4837 338.407 77.9199 338.068C78.3561 337.73 78.877 337.561 79.4824 337.561C79.6842 337.561 79.9251 337.587 80.2051 337.639V339.602C80.0163 339.523 79.7005 339.484 79.2578 339.484C78.5807 339.484 78.0436 339.696 77.6465 340.119C77.2559 340.542 77.0605 341.118 77.0605 341.848V348H74.9512ZM87.1484 339.982C86.6862 339.488 86.0905 339.24 85.3613 339.24C84.6322 339.24 84.0267 339.491 83.5449 339.992C83.0632 340.487 82.7962 341.128 82.7441 341.916H87.8809C87.8548 341.122 87.6107 340.477 87.1484 339.982ZM87.8711 344.982H89.873C89.7233 345.926 89.2415 346.698 88.4277 347.297C87.6139 347.896 86.6211 348.195 85.4492 348.195C83.9453 348.195 82.7604 347.723 81.8945 346.779C81.0352 345.829 80.6055 344.54 80.6055 342.912C80.6055 341.298 81.0352 339.999 81.8945 339.016C82.7604 338.033 83.916 337.541 85.3613 337.541C86.7806 337.541 87.9069 338.007 88.7402 338.938C89.5736 339.862 89.9902 341.105 89.9902 342.668V343.391H82.7344V343.518C82.7344 344.416 82.985 345.135 83.4863 345.676C83.9876 346.216 84.6582 346.486 85.498 346.486C86.0905 346.486 86.5983 346.35 87.0215 346.076C87.4447 345.803 87.7279 345.438 87.8711 344.982ZM95.4883 348.176C94.1862 348.176 93.1413 347.694 92.3535 346.73C91.5658 345.767 91.1719 344.478 91.1719 342.863C91.1719 341.249 91.5625 339.963 92.3438 339.006C93.1315 338.042 94.1732 337.561 95.4688 337.561C96.1914 337.561 96.8359 337.73 97.4023 338.068C97.9688 338.4 98.3984 338.856 98.6914 339.436H98.7305V333.908H100.85V348H98.7988V346.252H98.7598C98.4538 346.851 98.0143 347.323 97.4414 347.668C96.875 348.007 96.224 348.176 95.4883 348.176ZM96.0449 339.338C95.2116 339.338 94.5508 339.657 94.0625 340.295C93.5742 340.926 93.3301 341.783 93.3301 342.863C93.3301 343.951 93.5742 344.81 94.0625 345.441C94.5508 346.073 95.2116 346.389 96.0449 346.389C96.8587 346.389 97.513 346.07 98.0078 345.432C98.5026 344.787 98.75 343.931 98.75 342.863C98.75 341.802 98.5026 340.949 98.0078 340.305C97.513 339.66 96.8587 339.338 96.0449 339.338ZM103.086 348V337.727H105.195V348H103.086ZM105.01 335.871C104.769 336.105 104.479 336.223 104.141 336.223C103.802 336.223 103.512 336.105 103.271 335.871C103.037 335.637 102.92 335.354 102.92 335.021C102.92 334.683 103.037 334.396 103.271 334.162C103.512 333.928 103.802 333.811 104.141 333.811C104.486 333.811 104.775 333.928 105.01 334.162C105.251 334.396 105.371 334.683 105.371 335.021C105.371 335.354 105.251 335.637 105.01 335.871ZM107.969 335.295H110.088V337.727H112.041V339.396H110.088V345.061C110.088 345.503 110.189 345.829 110.391 346.037C110.592 346.245 110.908 346.35 111.338 346.35C111.65 346.35 111.882 346.333 112.031 346.301V347.971C111.771 348.036 111.38 348.068 110.859 348.068C109.824 348.068 109.082 347.857 108.633 347.434C108.19 347.004 107.969 346.291 107.969 345.295V339.396H106.475V337.727H107.969V335.295ZM117.656 340.637C117.656 339.719 118.027 338.973 118.77 338.4C119.512 337.827 120.482 337.541 121.68 337.541C122.819 337.541 123.753 337.831 124.482 338.41C125.218 338.983 125.602 339.729 125.635 340.646H123.652C123.6 340.178 123.395 339.81 123.037 339.543C122.679 339.276 122.207 339.143 121.621 339.143C121.048 339.143 120.586 339.27 120.234 339.523C119.889 339.777 119.717 340.106 119.717 340.51C119.717 341.135 120.241 341.577 121.289 341.838L123.018 342.238C124.053 342.486 124.785 342.824 125.215 343.254C125.651 343.677 125.869 344.27 125.869 345.031C125.869 345.969 125.472 346.73 124.678 347.316C123.89 347.902 122.865 348.195 121.602 348.195C120.397 348.195 119.414 347.909 118.652 347.336C117.897 346.763 117.477 346.001 117.393 345.051H119.482C119.567 345.546 119.798 345.926 120.176 346.193C120.553 346.454 121.061 346.584 121.699 346.584C122.331 346.584 122.829 346.464 123.193 346.223C123.564 345.975 123.75 345.643 123.75 345.227C123.75 344.895 123.639 344.631 123.418 344.436C123.197 344.24 122.819 344.074 122.285 343.938L120.449 343.488C118.587 343.039 117.656 342.089 117.656 340.637ZM135.469 346.77C134.583 347.72 133.402 348.195 131.924 348.195C130.446 348.195 129.264 347.72 128.379 346.77C127.493 345.812 127.051 344.51 127.051 342.863C127.051 341.223 127.493 339.927 128.379 338.977C129.264 338.02 130.446 337.541 131.924 337.541C133.402 337.541 134.583 338.02 135.469 338.977C136.354 339.927 136.797 341.223 136.797 342.863C136.797 344.51 136.354 345.812 135.469 346.77ZM131.924 346.457C132.764 346.457 133.428 346.141 133.916 345.51C134.404 344.878 134.648 343.996 134.648 342.863C134.648 341.737 134.401 340.858 133.906 340.227C133.418 339.595 132.757 339.279 131.924 339.279C131.09 339.279 130.426 339.595 129.932 340.227C129.443 340.858 129.199 341.737 129.199 342.863C129.199 343.996 129.443 344.878 129.932 345.51C130.426 346.141 131.09 346.457 131.924 346.457ZM138.506 348V333.908H140.615V348H138.506ZM151.592 337.727V348H149.57V346.262H149.521C148.929 347.544 147.868 348.186 146.338 348.186C145.218 348.186 144.336 347.847 143.691 347.17C143.053 346.486 142.734 345.555 142.734 344.377V337.727H144.844V343.967C144.844 344.755 145.029 345.354 145.4 345.764C145.771 346.167 146.318 346.369 147.041 346.369C147.796 346.369 148.392 346.128 148.828 345.646C149.264 345.165 149.482 344.52 149.482 343.713V337.727H151.592ZM154.297 335.295H156.416V337.727H158.369V339.396H156.416V345.061C156.416 345.503 156.517 345.829 156.719 346.037C156.921 346.245 157.236 346.35 157.666 346.35C157.979 346.35 158.21 346.333 158.359 346.301V347.971C158.099 348.036 157.708 348.068 157.188 348.068C156.152 348.068 155.41 347.857 154.961 347.434C154.518 347.004 154.297 346.291 154.297 345.295V339.396H152.803V337.727H154.297V335.295ZM160.176 348V337.727H162.285V348H160.176ZM162.1 335.871C161.859 336.105 161.569 336.223 161.23 336.223C160.892 336.223 160.602 336.105 160.361 335.871C160.127 335.637 160.01 335.354 160.01 335.021C160.01 334.683 160.127 334.396 160.361 334.162C160.602 333.928 160.892 333.811 161.23 333.811C161.576 333.811 161.865 333.928 162.1 334.162C162.34 334.396 162.461 334.683 162.461 335.021C162.461 335.354 162.34 335.637 162.1 335.871ZM172.402 346.77C171.517 347.72 170.335 348.195 168.857 348.195C167.38 348.195 166.198 347.72 165.312 346.77C164.427 345.812 163.984 344.51 163.984 342.863C163.984 341.223 164.427 339.927 165.312 338.977C166.198 338.02 167.38 337.541 168.857 337.541C170.335 337.541 171.517 338.02 172.402 338.977C173.288 339.927 173.73 341.223 173.73 342.863C173.73 344.51 173.288 345.812 172.402 346.77ZM168.857 346.457C169.697 346.457 170.361 346.141 170.85 345.51C171.338 344.878 171.582 343.996 171.582 342.863C171.582 341.737 171.335 340.858 170.84 340.227C170.352 339.595 169.691 339.279 168.857 339.279C168.024 339.279 167.36 339.595 166.865 340.227C166.377 340.858 166.133 341.737 166.133 342.863C166.133 343.996 166.377 344.878 166.865 345.51C167.36 346.141 168.024 346.457 168.857 346.457ZM175.361 348V337.727H177.373V339.445H177.422C177.708 338.846 178.125 338.381 178.672 338.049C179.219 337.717 179.88 337.551 180.654 337.551C181.781 337.551 182.656 337.889 183.281 338.566C183.906 339.237 184.219 340.165 184.219 341.35V348H182.1V341.76C182.1 340.979 181.914 340.386 181.543 339.982C181.178 339.572 180.635 339.367 179.912 339.367C179.17 339.367 178.577 339.608 178.135 340.09C177.692 340.572 177.471 341.213 177.471 342.014V348H175.361ZM190.938 348V339.396H189.521V337.746H190.938V336.74C190.938 335.738 191.182 334.999 191.67 334.523C192.158 334.048 192.923 333.811 193.965 333.811C194.388 333.811 194.782 333.843 195.146 333.908V335.471C194.938 335.432 194.681 335.412 194.375 335.412C193.477 335.412 193.027 335.868 193.027 336.779V337.746H195.107V339.396H193.057V348H190.938ZM204.297 346.77C203.411 347.72 202.23 348.195 200.752 348.195C199.274 348.195 198.092 347.72 197.207 346.77C196.322 345.812 195.879 344.51 195.879 342.863C195.879 341.223 196.322 339.927 197.207 338.977C198.092 338.02 199.274 337.541 200.752 337.541C202.23 337.541 203.411 338.02 204.297 338.977C205.182 339.927 205.625 341.223 205.625 342.863C205.625 344.51 205.182 345.812 204.297 346.77ZM200.752 346.457C201.592 346.457 202.256 346.141 202.744 345.51C203.232 344.878 203.477 343.996 203.477 342.863C203.477 341.737 203.229 340.858 202.734 340.227C202.246 339.595 201.585 339.279 200.752 339.279C199.919 339.279 199.255 339.595 198.76 340.227C198.271 340.858 198.027 341.737 198.027 342.863C198.027 343.996 198.271 344.878 198.76 345.51C199.255 346.141 199.919 346.457 200.752 346.457ZM207.256 348V337.727H209.268V339.475H209.316C209.486 338.876 209.788 338.407 210.225 338.068C210.661 337.73 211.182 337.561 211.787 337.561C211.989 337.561 212.23 337.587 212.51 337.639V339.602C212.321 339.523 212.005 339.484 211.562 339.484C210.885 339.484 210.348 339.696 209.951 340.119C209.561 340.542 209.365 341.118 209.365 341.848V348H207.256ZM223.232 337.561C224.541 337.561 225.589 338.039 226.377 338.996C227.165 339.953 227.559 341.242 227.559 342.863C227.559 344.484 227.168 345.777 226.387 346.74C225.605 347.697 224.567 348.176 223.271 348.176C222.542 348.176 221.895 348.01 221.328 347.678C220.768 347.346 220.339 346.89 220.039 346.311H219.99V351.398H217.881V337.727H219.922V339.494H219.961C220.267 338.895 220.706 338.423 221.279 338.078C221.852 337.733 222.503 337.561 223.232 337.561ZM222.676 346.389C223.509 346.389 224.17 346.073 224.658 345.441C225.146 344.803 225.391 343.944 225.391 342.863C225.391 341.789 225.146 340.933 224.658 340.295C224.17 339.657 223.509 339.338 222.676 339.338C221.868 339.338 221.217 339.66 220.723 340.305C220.228 340.949 219.98 341.802 219.98 342.863C219.98 343.931 220.225 344.787 220.713 345.432C221.208 346.07 221.862 346.389 222.676 346.389ZM232.783 346.506C233.525 346.506 234.147 346.281 234.648 345.832C235.156 345.376 235.41 344.816 235.41 344.152V343.342L232.881 343.498C232.249 343.544 231.761 343.7 231.416 343.967C231.077 344.227 230.908 344.579 230.908 345.021C230.908 345.471 231.077 345.832 231.416 346.105C231.761 346.372 232.217 346.506 232.783 346.506ZM232.197 348.176C231.188 348.176 230.365 347.889 229.727 347.316C229.095 346.743 228.779 345.998 228.779 345.08C228.779 344.182 229.111 343.469 229.775 342.941C230.439 342.408 231.38 342.108 232.598 342.043L235.41 341.877V341.086C235.41 340.513 235.228 340.067 234.863 339.748C234.499 339.423 233.994 339.26 233.35 339.26C232.751 339.26 232.262 339.393 231.885 339.66C231.514 339.927 231.279 340.295 231.182 340.764H229.189C229.248 339.813 229.658 339.038 230.42 338.439C231.182 337.84 232.184 337.541 233.428 337.541C234.671 337.541 235.661 337.847 236.396 338.459C237.139 339.071 237.51 339.891 237.51 340.92V348H235.488V346.311H235.439C235.146 346.877 234.701 347.329 234.102 347.668C233.509 348.007 232.874 348.176 232.197 348.176ZM239.561 348V337.727H241.572V339.475H241.621C241.79 338.876 242.093 338.407 242.529 338.068C242.965 337.73 243.486 337.561 244.092 337.561C244.294 337.561 244.535 337.587 244.814 337.639V339.602C244.626 339.523 244.31 339.484 243.867 339.484C243.19 339.484 242.653 339.696 242.256 340.119C241.865 340.542 241.67 341.118 241.67 341.848V348H239.561ZM251.758 339.982C251.296 339.488 250.7 339.24 249.971 339.24C249.242 339.24 248.636 339.491 248.154 339.992C247.673 340.487 247.406 341.128 247.354 341.916H252.49C252.464 341.122 252.22 340.477 251.758 339.982ZM252.48 344.982H254.482C254.333 345.926 253.851 346.698 253.037 347.297C252.223 347.896 251.23 348.195 250.059 348.195C248.555 348.195 247.37 347.723 246.504 346.779C245.645 345.829 245.215 344.54 245.215 342.912C245.215 341.298 245.645 339.999 246.504 339.016C247.37 338.033 248.525 337.541 249.971 337.541C251.39 337.541 252.516 338.007 253.35 338.938C254.183 339.862 254.6 341.105 254.6 342.668V343.391H247.344V343.518C247.344 344.416 247.594 345.135 248.096 345.676C248.597 346.216 249.268 346.486 250.107 346.486C250.7 346.486 251.208 346.35 251.631 346.076C252.054 345.803 252.337 345.438 252.48 344.982ZM256.24 348V337.727H258.252V339.445H258.301C258.587 338.846 259.004 338.381 259.551 338.049C260.098 337.717 260.758 337.551 261.533 337.551C262.66 337.551 263.535 337.889 264.16 338.566C264.785 339.237 265.098 340.165 265.098 341.35V348H262.979V341.76C262.979 340.979 262.793 340.386 262.422 339.982C262.057 339.572 261.514 339.367 260.791 339.367C260.049 339.367 259.456 339.608 259.014 340.09C258.571 340.572 258.35 341.213 258.35 342.014V348H256.24ZM267.754 335.295H269.873V337.727H271.826V339.396H269.873V345.061C269.873 345.503 269.974 345.829 270.176 346.037C270.378 346.245 270.693 346.35 271.123 346.35C271.436 346.35 271.667 346.333 271.816 346.301V347.971C271.556 348.036 271.165 348.068 270.645 348.068C269.609 348.068 268.867 347.857 268.418 347.434C267.975 347.004 267.754 346.291 267.754 345.295V339.396H266.26V337.727H267.754V335.295ZM273.379 340.637C273.379 339.719 273.75 338.973 274.492 338.4C275.234 337.827 276.204 337.541 277.402 337.541C278.542 337.541 279.476 337.831 280.205 338.41C280.941 338.983 281.325 339.729 281.357 340.646H279.375C279.323 340.178 279.118 339.81 278.76 339.543C278.402 339.276 277.93 339.143 277.344 339.143C276.771 339.143 276.309 339.27 275.957 339.523C275.612 339.777 275.439 340.106 275.439 340.51C275.439 341.135 275.964 341.577 277.012 341.838L278.74 342.238C279.775 342.486 280.508 342.824 280.938 343.254C281.374 343.677 281.592 344.27 281.592 345.031C281.592 345.969 281.195 346.73 280.4 347.316C279.613 347.902 278.587 348.195 277.324 348.195C276.12 348.195 275.137 347.909 274.375 347.336C273.62 346.763 273.2 346.001 273.115 345.051H275.205C275.29 345.546 275.521 345.926 275.898 346.193C276.276 346.454 276.784 346.584 277.422 346.584C278.053 346.584 278.551 346.464 278.916 346.223C279.287 345.975 279.473 345.643 279.473 345.227C279.473 344.895 279.362 344.631 279.141 344.436C278.919 344.24 278.542 344.074 278.008 343.938L276.172 343.488C274.31 343.039 273.379 342.089 273.379 340.637Z" fill="black"/>
<circle cx="34" cy="342" r="18" fill="black"/>
<path d="M31.1605 340.87C31.0605 340.86 30.9405 340.86 30.8305 340.87C28.4505 340.79 26.5605 338.84 26.5605 336.44C26.5605 333.99 28.5405 332 31.0005 332C33.4505 332 35.4405 333.99 35.4405 336.44C35.4305 338.84 33.5405 340.79 31.1605 340.87Z" stroke="white" stroke-width="1.5" stroke-linecap="round" stroke-linejoin="round"/>
<path d="M38.4093 334C40.3493 334 41.9093 335.57 41.9093 337.5C41.9093 339.39 40.4093 340.93 38.5393 341C38.4593 340.99 38.3693 340.99 38.2793 341" stroke="white" stroke-width="1.5" stroke-linecap="round" stroke-linejoin="round"/>
<path d="M26.1607 344.56C23.7407 346.18 23.7407 348.82 26.1607 350.43C28.9107 352.27 33.4207 352.27 36.1707 350.43C38.5907 348.81 38.5907 346.17 36.1707 344.56C33.4307 342.73 28.9207 342.73 26.1607 344.56Z" stroke="white" stroke-width="1.5" stroke-linecap="round" stroke-linejoin="round"/>
<path d="M40.3398 350C41.0598 349.85 41.7398 349.56 42.2998 349.13C43.8598 347.96 43.8598 346.03 42.2998 344.86C41.7498 344.44 41.0798 344.16 40.3698 344" stroke="white" stroke-width="1.5" stroke-linecap="round" stroke-linejoin="round"/>
<rect x="2" y="406" width="540" height="60" fill="white" stroke="black" stroke-width="4"/>
<path d="M63.4863 442H61.2988V427.908H70.0977V429.793H63.4863V434.256H69.541V436.102H63.4863V442ZM71.8164 442V431.727H73.9258V442H71.8164ZM73.7402 429.871C73.4993 430.105 73.2096 430.223 72.8711 430.223C72.5326 430.223 72.2428 430.105 72.002 429.871C71.7676 429.637 71.6504 429.354 71.6504 429.021C71.6504 428.683 71.7676 428.396 72.002 428.162C72.2428 427.928 72.5326 427.811 72.8711 427.811C73.2161 427.811 73.5059 427.928 73.7402 428.162C73.9811 428.396 74.1016 428.683 74.1016 429.021C74.1016 429.354 73.9811 429.637 73.7402 429.871ZM76.084 442V431.727H78.0957V433.445H78.1445C78.431 432.846 78.8477 432.381 79.3945 432.049C79.9414 431.717 80.6022 431.551 81.377 431.551C82.5033 431.551 83.3789 431.889 84.0039 432.566C84.6289 433.237 84.9414 434.165 84.9414 435.35V442H82.8223V435.76C82.8223 434.979 82.6367 434.386 82.2656 433.982C81.901 433.572 81.3574 433.367 80.6348 433.367C79.8926 433.367 79.3001 433.608 78.8574 434.09C78.4147 434.572 78.1934 435.213 78.1934 436.014V442H76.084ZM90.5762 440.506C91.3184 440.506 91.9401 440.281 92.4414 439.832C92.9492 439.376 93.2031 438.816 93.2031 438.152V437.342L90.6738 437.498C90.0423 437.544 89.554 437.7 89.209 437.967C88.8704 438.227 88.7012 438.579 88.7012 439.021C88.7012 439.471 88.8704 439.832 89.209 440.105C89.554 440.372 90.0098 440.506 90.5762 440.506ZM89.9902 442.176C88.9811 442.176 88.1576 441.889 87.5195 441.316C86.888 440.743 86.5723 439.998 86.5723 439.08C86.5723 438.182 86.9043 437.469 87.5684 436.941C88.2324 436.408 89.1732 436.108 90.3906 436.043L93.2031 435.877V435.086C93.2031 434.513 93.0208 434.067 92.6562 433.748C92.2917 433.423 91.7871 433.26 91.1426 433.26C90.5436 433.26 90.0553 433.393 89.6777 433.66C89.3066 433.927 89.0723 434.295 88.9746 434.764H86.9824C87.041 433.813 87.4512 433.038 88.2129 432.439C88.9746 431.84 89.9772 431.541 91.2207 431.541C92.4642 431.541 93.4538 431.847 94.1895 432.459C94.9316 433.071 95.3027 433.891 95.3027 434.92V442H93.2812V440.311H93.2324C92.9395 440.877 92.4935 441.329 91.8945 441.668C91.3021 442.007 90.6673 442.176 89.9902 442.176ZM97.3535 442V431.727H99.3652V433.445H99.4141C99.7005 432.846 100.117 432.381 100.664 432.049C101.211 431.717 101.872 431.551 102.646 431.551C103.773 431.551 104.648 431.889 105.273 432.566C105.898 433.237 106.211 434.165 106.211 435.35V442H104.092V435.76C104.092 434.979 103.906 434.386 103.535 433.982C103.171 433.572 102.627 433.367 101.904 433.367C101.162 433.367 100.57 433.608 100.127 434.09C99.6842 434.572 99.4629 435.213 99.4629 436.014V442H97.3535ZM117.07 435.262H115.059C114.948 434.682 114.681 434.21 114.258 433.846C113.841 433.481 113.304 433.299 112.646 433.299C111.826 433.299 111.169 433.621 110.674 434.266C110.186 434.904 109.941 435.77 109.941 436.863C109.941 437.977 110.186 438.849 110.674 439.48C111.169 440.112 111.833 440.428 112.666 440.428C113.311 440.428 113.838 440.262 114.248 439.93C114.665 439.591 114.935 439.122 115.059 438.523H117.09C116.979 439.624 116.517 440.512 115.703 441.189C114.896 441.86 113.877 442.195 112.646 442.195C111.169 442.195 109.99 441.72 109.111 440.77C108.232 439.812 107.793 438.51 107.793 436.863C107.793 435.236 108.232 433.943 109.111 432.986C109.99 432.023 111.162 431.541 112.627 431.541C113.903 431.541 114.938 431.899 115.732 432.615C116.527 433.325 116.973 434.207 117.07 435.262ZM118.652 442V431.727H120.762V442H118.652ZM120.576 429.871C120.335 430.105 120.046 430.223 119.707 430.223C119.368 430.223 119.079 430.105 118.838 429.871C118.604 429.637 118.486 429.354 118.486 429.021C118.486 428.683 118.604 428.396 118.838 428.162C119.079 427.928 119.368 427.811 119.707 427.811C120.052 427.811 120.342 427.928 120.576 428.162C120.817 428.396 120.938 428.683 120.938 429.021C120.938 429.354 120.817 429.637 120.576 429.871ZM126.514 440.506C127.256 440.506 127.878 440.281 128.379 439.832C128.887 439.376 129.141 438.816 129.141 438.152V437.342L126.611 437.498C125.98 437.544 125.492 437.7 125.146 437.967C124.808 438.227 124.639 438.579 124.639 439.021C124.639 439.471 124.808 439.832 125.146 440.105C125.492 440.372 125.947 440.506 126.514 440.506ZM125.928 442.176C124.919 442.176 124.095 441.889 123.457 441.316C122.826 440.743 122.51 439.998 122.51 439.08C122.51 438.182 122.842 437.469 123.506 436.941C124.17 436.408 125.111 436.108 126.328 436.043L129.141 435.877V435.086C129.141 434.513 128.958 434.067 128.594 433.748C128.229 433.423 127.725 433.26 127.08 433.26C126.481 433.26 125.993 433.393 125.615 433.66C125.244 433.927 125.01 434.295 124.912 434.764H122.92C122.979 433.813 123.389 433.038 124.15 432.439C124.912 431.84 125.915 431.541 127.158 431.541C128.402 431.541 129.391 431.847 130.127 432.459C130.869 433.071 131.24 433.891 131.24 434.92V442H129.219V440.311H129.17C128.877 440.877 128.431 441.329 127.832 441.668C127.24 442.007 126.605 442.176 125.928 442.176ZM133.369 442V427.908H135.479V442H133.369ZM141.523 434.637C141.523 433.719 141.895 432.973 142.637 432.4C143.379 431.827 144.349 431.541 145.547 431.541C146.686 431.541 147.62 431.831 148.35 432.41C149.085 432.983 149.469 433.729 149.502 434.646H147.52C147.467 434.178 147.262 433.81 146.904 433.543C146.546 433.276 146.074 433.143 145.488 433.143C144.915 433.143 144.453 433.27 144.102 433.523C143.757 433.777 143.584 434.106 143.584 434.51C143.584 435.135 144.108 435.577 145.156 435.838L146.885 436.238C147.92 436.486 148.652 436.824 149.082 437.254C149.518 437.677 149.736 438.27 149.736 439.031C149.736 439.969 149.339 440.73 148.545 441.316C147.757 441.902 146.732 442.195 145.469 442.195C144.264 442.195 143.281 441.909 142.52 441.336C141.764 440.763 141.344 440.001 141.26 439.051H143.35C143.434 439.546 143.665 439.926 144.043 440.193C144.421 440.454 144.928 440.584 145.566 440.584C146.198 440.584 146.696 440.464 147.061 440.223C147.432 439.975 147.617 439.643 147.617 439.227C147.617 438.895 147.507 438.631 147.285 438.436C147.064 438.24 146.686 438.074 146.152 437.938L144.316 437.488C142.454 437.039 141.523 436.089 141.523 434.637ZM159.336 440.77C158.451 441.72 157.269 442.195 155.791 442.195C154.313 442.195 153.132 441.72 152.246 440.77C151.361 439.812 150.918 438.51 150.918 436.863C150.918 435.223 151.361 433.927 152.246 432.977C153.132 432.02 154.313 431.541 155.791 431.541C157.269 431.541 158.451 432.02 159.336 432.977C160.221 433.927 160.664 435.223 160.664 436.863C160.664 438.51 160.221 439.812 159.336 440.77ZM155.791 440.457C156.631 440.457 157.295 440.141 157.783 439.51C158.271 438.878 158.516 437.996 158.516 436.863C158.516 435.737 158.268 434.858 157.773 434.227C157.285 433.595 156.624 433.279 155.791 433.279C154.958 433.279 154.294 433.595 153.799 434.227C153.311 434.858 153.066 435.737 153.066 436.863C153.066 437.996 153.311 438.878 153.799 439.51C154.294 440.141 154.958 440.457 155.791 440.457ZM162.373 442V427.908H164.482V442H162.373ZM175.459 431.727V442H173.438V440.262H173.389C172.796 441.544 171.735 442.186 170.205 442.186C169.085 442.186 168.203 441.847 167.559 441.17C166.921 440.486 166.602 439.555 166.602 438.377V431.727H168.711V437.967C168.711 438.755 168.896 439.354 169.268 439.764C169.639 440.167 170.186 440.369 170.908 440.369C171.663 440.369 172.259 440.128 172.695 439.646C173.132 439.165 173.35 438.52 173.35 437.713V431.727H175.459ZM178.164 429.295H180.283V431.727H182.236V433.396H180.283V439.061C180.283 439.503 180.384 439.829 180.586 440.037C180.788 440.245 181.104 440.35 181.533 440.35C181.846 440.35 182.077 440.333 182.227 440.301V441.971C181.966 442.036 181.576 442.068 181.055 442.068C180.02 442.068 179.277 441.857 178.828 441.434C178.385 441.004 178.164 440.291 178.164 439.295V433.396H176.67V431.727H178.164V429.295ZM184.043 442V431.727H186.152V442H184.043ZM185.967 429.871C185.726 430.105 185.436 430.223 185.098 430.223C184.759 430.223 184.469 430.105 184.229 429.871C183.994 429.637 183.877 429.354 183.877 429.021C183.877 428.683 183.994 428.396 184.229 428.162C184.469 427.928 184.759 427.811 185.098 427.811C185.443 427.811 185.732 427.928 185.967 428.162C186.208 428.396 186.328 428.683 186.328 429.021C186.328 429.354 186.208 429.637 185.967 429.871ZM196.27 440.77C195.384 441.72 194.202 442.195 192.725 442.195C191.247 442.195 190.065 441.72 189.18 440.77C188.294 439.812 187.852 438.51 187.852 436.863C187.852 435.223 188.294 433.927 189.18 432.977C190.065 432.02 191.247 431.541 192.725 431.541C194.202 431.541 195.384 432.02 196.27 432.977C197.155 433.927 197.598 435.223 197.598 436.863C197.598 438.51 197.155 439.812 196.27 440.77ZM192.725 440.457C193.564 440.457 194.229 440.141 194.717 439.51C195.205 438.878 195.449 437.996 195.449 436.863C195.449 435.737 195.202 434.858 194.707 434.227C194.219 433.595 193.558 433.279 192.725 433.279C191.891 433.279 191.227 433.595 190.732 434.227C190.244 434.858 190 435.737 190 436.863C190 437.996 190.244 438.878 190.732 439.51C191.227 440.141 191.891 440.457 192.725 440.457ZM199.229 442V431.727H201.24V433.445H201.289C201.576 432.846 201.992 432.381 202.539 432.049C203.086 431.717 203.747 431.551 204.521 431.551C205.648 431.551 206.523 431.889 207.148 432.566C207.773 433.237 208.086 434.165 208.086 435.35V442H205.967V435.76C205.967 434.979 205.781 434.386 205.41 433.982C205.046 433.572 204.502 433.367 203.779 433.367C203.037 433.367 202.445 433.608 202.002 434.09C201.559 434.572 201.338 435.213 201.338 436.014V442H199.229ZM214.805 442V433.396H213.389V431.746H214.805V430.74C214.805 429.738 215.049 428.999 215.537 428.523C216.025 428.048 216.79 427.811 217.832 427.811C218.255 427.811 218.649 427.843 219.014 427.908V429.471C218.805 429.432 218.548 429.412 218.242 429.412C217.344 429.412 216.895 429.868 216.895 430.779V431.746H218.975V433.396H216.924V442H214.805ZM228.164 440.77C227.279 441.72 226.097 442.195 224.619 442.195C223.141 442.195 221.96 441.72 221.074 440.77C220.189 439.812 219.746 438.51 219.746 436.863C219.746 435.223 220.189 433.927 221.074 432.977C221.96 432.02 223.141 431.541 224.619 431.541C226.097 431.541 227.279 432.02 228.164 432.977C229.049 433.927 229.492 435.223 229.492 436.863C229.492 438.51 229.049 439.812 228.164 440.77ZM224.619 440.457C225.459 440.457 226.123 440.141 226.611 439.51C227.1 438.878 227.344 437.996 227.344 436.863C227.344 435.737 227.096 434.858 226.602 434.227C226.113 433.595 225.452 433.279 224.619 433.279C223.786 433.279 223.122 433.595 222.627 434.227C222.139 434.858 221.895 435.737 221.895 436.863C221.895 437.996 222.139 438.878 222.627 439.51C223.122 440.141 223.786 440.457 224.619 440.457ZM231.123 442V431.727H233.135V433.475H233.184C233.353 432.876 233.656 432.407 234.092 432.068C234.528 431.73 235.049 431.561 235.654 431.561C235.856 431.561 236.097 431.587 236.377 431.639V433.602C236.188 433.523 235.872 433.484 235.43 433.484C234.753 433.484 234.215 433.696 233.818 434.119C233.428 434.542 233.232 435.118 233.232 435.848V442H231.123ZM241.562 434.637C241.562 433.719 241.934 432.973 242.676 432.4C243.418 431.827 244.388 431.541 245.586 431.541C246.725 431.541 247.66 431.831 248.389 432.41C249.124 432.983 249.508 433.729 249.541 434.646H247.559C247.507 434.178 247.301 433.81 246.943 433.543C246.585 433.276 246.113 433.143 245.527 433.143C244.954 433.143 244.492 433.27 244.141 433.523C243.796 433.777 243.623 434.106 243.623 434.51C243.623 435.135 244.147 435.577 245.195 435.838L246.924 436.238C247.959 436.486 248.691 436.824 249.121 437.254C249.557 437.677 249.775 438.27 249.775 439.031C249.775 439.969 249.378 440.73 248.584 441.316C247.796 441.902 246.771 442.195 245.508 442.195C244.303 442.195 243.32 441.909 242.559 441.336C241.803 440.763 241.383 440.001 241.299 439.051H243.389C243.473 439.546 243.704 439.926 244.082 440.193C244.46 440.454 244.967 440.584 245.605 440.584C246.237 440.584 246.735 440.464 247.1 440.223C247.471 439.975 247.656 439.643 247.656 439.227C247.656 438.895 247.546 438.631 247.324 438.436C247.103 438.24 246.725 438.074 246.191 437.938L244.355 437.488C242.493 437.039 241.562 436.089 241.562 434.637ZM260.234 435.262H258.223C258.112 434.682 257.845 434.21 257.422 433.846C257.005 433.481 256.468 433.299 255.811 433.299C254.99 433.299 254.333 433.621 253.838 434.266C253.35 434.904 253.105 435.77 253.105 436.863C253.105 437.977 253.35 438.849 253.838 439.48C254.333 440.112 254.997 440.428 255.83 440.428C256.475 440.428 257.002 440.262 257.412 439.93C257.829 439.591 258.099 439.122 258.223 438.523H260.254C260.143 439.624 259.681 440.512 258.867 441.189C258.06 441.86 257.041 442.195 255.811 442.195C254.333 442.195 253.154 441.72 252.275 440.77C251.396 439.812 250.957 438.51 250.957 436.863C250.957 435.236 251.396 433.943 252.275 432.986C253.154 432.023 254.326 431.541 255.791 431.541C257.067 431.541 258.102 431.899 258.896 432.615C259.691 433.325 260.137 434.207 260.234 435.262ZM261.826 442V427.908H263.916V433.445H263.965C264.251 432.84 264.671 432.374 265.225 432.049C265.778 431.717 266.442 431.551 267.217 431.551C268.337 431.551 269.215 431.896 269.854 432.586C270.498 433.276 270.82 434.207 270.82 435.379V442H268.701V435.789C268.701 435.021 268.509 434.425 268.125 434.002C267.747 433.579 267.191 433.367 266.455 433.367C265.68 433.367 265.065 433.615 264.609 434.109C264.16 434.598 263.936 435.249 263.936 436.062V442H261.826ZM280.82 440.77C279.935 441.72 278.753 442.195 277.275 442.195C275.798 442.195 274.616 441.72 273.73 440.77C272.845 439.812 272.402 438.51 272.402 436.863C272.402 435.223 272.845 433.927 273.73 432.977C274.616 432.02 275.798 431.541 277.275 431.541C278.753 431.541 279.935 432.02 280.82 432.977C281.706 433.927 282.148 435.223 282.148 436.863C282.148 438.51 281.706 439.812 280.82 440.77ZM277.275 440.457C278.115 440.457 278.779 440.141 279.268 439.51C279.756 438.878 280 437.996 280 436.863C280 435.737 279.753 434.858 279.258 434.227C278.77 433.595 278.109 433.279 277.275 433.279C276.442 433.279 275.778 433.595 275.283 434.227C274.795 434.858 274.551 435.737 274.551 436.863C274.551 437.996 274.795 438.878 275.283 439.51C275.778 440.141 276.442 440.457 277.275 440.457ZM291.738 440.77C290.853 441.72 289.671 442.195 288.193 442.195C286.715 442.195 285.534 441.72 284.648 440.77C283.763 439.812 283.32 438.51 283.32 436.863C283.32 435.223 283.763 433.927 284.648 432.977C285.534 432.02 286.715 431.541 288.193 431.541C289.671 431.541 290.853 432.02 291.738 432.977C292.624 433.927 293.066 435.223 293.066 436.863C293.066 438.51 292.624 439.812 291.738 440.77ZM288.193 440.457C289.033 440.457 289.697 440.141 290.186 439.51C290.674 438.878 290.918 437.996 290.918 436.863C290.918 435.737 290.671 434.858 290.176 434.227C289.688 433.595 289.027 433.279 288.193 433.279C287.36 433.279 286.696 433.595 286.201 434.227C285.713 434.858 285.469 435.737 285.469 436.863C285.469 437.996 285.713 438.878 286.201 439.51C286.696 440.141 287.36 440.457 288.193 440.457ZM294.775 442V427.908H296.885V442H294.775ZM298.867 434.637C298.867 433.719 299.238 432.973 299.98 432.4C300.723 431.827 301.693 431.541 302.891 431.541C304.03 431.541 304.964 431.831 305.693 432.41C306.429 432.983 306.813 433.729 306.846 434.646H304.863C304.811 434.178 304.606 433.81 304.248 433.543C303.89 433.276 303.418 433.143 302.832 433.143C302.259 433.143 301.797 433.27 301.445 433.523C301.1 433.777 300.928 434.106 300.928 434.51C300.928 435.135 301.452 435.577 302.5 435.838L304.229 436.238C305.264 436.486 305.996 436.824 306.426 437.254C306.862 437.677 307.08 438.27 307.08 439.031C307.08 439.969 306.683 440.73 305.889 441.316C305.101 441.902 304.076 442.195 302.812 442.195C301.608 442.195 300.625 441.909 299.863 441.336C299.108 440.763 298.688 440.001 298.604 439.051H300.693C300.778 439.546 301.009 439.926 301.387 440.193C301.764 440.454 302.272 440.584 302.91 440.584C303.542 440.584 304.04 440.464 304.404 440.223C304.775 439.975 304.961 439.643 304.961 439.227C304.961 438.895 304.85 438.631 304.629 438.436C304.408 438.24 304.03 438.074 303.496 437.938L301.66 437.488C299.798 437.039 298.867 436.089 298.867 434.637ZM316.377 440.506C317.119 440.506 317.741 440.281 318.242 439.832C318.75 439.376 319.004 438.816 319.004 438.152V437.342L316.475 437.498C315.843 437.544 315.355 437.7 315.01 437.967C314.671 438.227 314.502 438.579 314.502 439.021C314.502 439.471 314.671 439.832 315.01 440.105C315.355 440.372 315.811 440.506 316.377 440.506ZM315.791 442.176C314.782 442.176 313.958 441.889 313.32 441.316C312.689 440.743 312.373 439.998 312.373 439.08C312.373 438.182 312.705 437.469 313.369 436.941C314.033 436.408 314.974 436.108 316.191 436.043L319.004 435.877V435.086C319.004 434.513 318.822 434.067 318.457 433.748C318.092 433.423 317.588 433.26 316.943 433.26C316.344 433.26 315.856 433.393 315.479 433.66C315.107 433.927 314.873 434.295 314.775 434.764H312.783C312.842 433.813 313.252 433.038 314.014 432.439C314.775 431.84 315.778 431.541 317.021 431.541C318.265 431.541 319.255 431.847 319.99 432.459C320.732 433.071 321.104 433.891 321.104 434.92V442H319.082V440.311H319.033C318.74 440.877 318.294 441.329 317.695 441.668C317.103 442.007 316.468 442.176 315.791 442.176ZM323.154 442V431.727H325.166V433.445H325.215C325.501 432.846 325.918 432.381 326.465 432.049C327.012 431.717 327.673 431.551 328.447 431.551C329.574 431.551 330.449 431.889 331.074 432.566C331.699 433.237 332.012 434.165 332.012 435.35V442H329.893V435.76C329.893 434.979 329.707 434.386 329.336 433.982C328.971 433.572 328.428 433.367 327.705 433.367C326.963 433.367 326.37 433.608 325.928 434.09C325.485 434.572 325.264 435.213 325.264 436.014V442H323.154ZM337.91 442.176C336.608 442.176 335.563 441.694 334.775 440.73C333.988 439.767 333.594 438.478 333.594 436.863C333.594 435.249 333.984 433.963 334.766 433.006C335.553 432.042 336.595 431.561 337.891 431.561C338.613 431.561 339.258 431.73 339.824 432.068C340.391 432.4 340.82 432.856 341.113 433.436H341.152V427.908H343.271V442H341.221V440.252H341.182C340.876 440.851 340.436 441.323 339.863 441.668C339.297 442.007 338.646 442.176 337.91 442.176ZM338.467 433.338C337.633 433.338 336.973 433.657 336.484 434.295C335.996 434.926 335.752 435.783 335.752 436.863C335.752 437.951 335.996 438.81 336.484 439.441C336.973 440.073 337.633 440.389 338.467 440.389C339.281 440.389 339.935 440.07 340.43 439.432C340.924 438.787 341.172 437.931 341.172 436.863C341.172 435.802 340.924 434.949 340.43 434.305C339.935 433.66 339.281 433.338 338.467 433.338ZM349.57 442V431.727H351.68V442H349.57ZM351.494 429.871C351.253 430.105 350.964 430.223 350.625 430.223C350.286 430.223 349.997 430.105 349.756 429.871C349.521 429.637 349.404 429.354 349.404 429.021C349.404 428.683 349.521 428.396 349.756 428.162C349.997 427.928 350.286 427.811 350.625 427.811C350.97 427.811 351.26 427.928 351.494 428.162C351.735 428.396 351.855 428.683 351.855 429.021C351.855 429.354 351.735 429.637 351.494 429.871ZM353.838 442V431.727H355.85V433.445H355.898C356.185 432.846 356.602 432.381 357.148 432.049C357.695 431.717 358.356 431.551 359.131 431.551C360.257 431.551 361.133 431.889 361.758 432.566C362.383 433.237 362.695 434.165 362.695 435.35V442H360.576V435.76C360.576 434.979 360.391 434.386 360.02 433.982C359.655 433.572 359.111 433.367 358.389 433.367C357.646 433.367 357.054 433.608 356.611 434.09C356.169 434.572 355.947 435.213 355.947 436.014V442H353.838ZM364.551 434.637C364.551 433.719 364.922 432.973 365.664 432.4C366.406 431.827 367.376 431.541 368.574 431.541C369.714 431.541 370.648 431.831 371.377 432.41C372.113 432.983 372.497 433.729 372.529 434.646H370.547C370.495 434.178 370.29 433.81 369.932 433.543C369.574 433.276 369.102 433.143 368.516 433.143C367.943 433.143 367.48 433.27 367.129 433.523C366.784 433.777 366.611 434.106 366.611 434.51C366.611 435.135 367.135 435.577 368.184 435.838L369.912 436.238C370.947 436.486 371.68 436.824 372.109 437.254C372.546 437.677 372.764 438.27 372.764 439.031C372.764 439.969 372.367 440.73 371.572 441.316C370.785 441.902 369.759 442.195 368.496 442.195C367.292 442.195 366.309 441.909 365.547 441.336C364.792 440.763 364.372 440.001 364.287 439.051H366.377C366.462 439.546 366.693 439.926 367.07 440.193C367.448 440.454 367.956 440.584 368.594 440.584C369.225 440.584 369.723 440.464 370.088 440.223C370.459 439.975 370.645 439.643 370.645 439.227C370.645 438.895 370.534 438.631 370.312 438.436C370.091 438.24 369.714 438.074 369.18 437.938L367.344 437.488C365.482 437.039 364.551 436.089 364.551 434.637ZM375.02 429.295H377.139V431.727H379.092V433.396H377.139V439.061C377.139 439.503 377.24 439.829 377.441 440.037C377.643 440.245 377.959 440.35 378.389 440.35C378.701 440.35 378.932 440.333 379.082 440.301V441.971C378.822 442.036 378.431 442.068 377.91 442.068C376.875 442.068 376.133 441.857 375.684 441.434C375.241 441.004 375.02 440.291 375.02 439.295V433.396H373.525V431.727H375.02V429.295ZM380.898 442V431.727H383.008V442H380.898ZM382.822 429.871C382.581 430.105 382.292 430.223 381.953 430.223C381.615 430.223 381.325 430.105 381.084 429.871C380.85 429.637 380.732 429.354 380.732 429.021C380.732 428.683 380.85 428.396 381.084 428.162C381.325 427.928 381.615 427.811 381.953 427.811C382.298 427.811 382.588 427.928 382.822 428.162C383.063 428.396 383.184 428.683 383.184 429.021C383.184 429.354 383.063 429.637 382.822 429.871ZM385.781 429.295H387.9V431.727H389.854V433.396H387.9V439.061C387.9 439.503 388.001 439.829 388.203 440.037C388.405 440.245 388.721 440.35 389.15 440.35C389.463 440.35 389.694 440.333 389.844 440.301V441.971C389.583 442.036 389.193 442.068 388.672 442.068C387.637 442.068 386.895 441.857 386.445 441.434C386.003 441.004 385.781 440.291 385.781 439.295V433.396H384.287V431.727H385.781V429.295ZM400.4 431.727V442H398.379V440.262H398.33C397.738 441.544 396.676 442.186 395.146 442.186C394.027 442.186 393.145 441.847 392.5 441.17C391.862 440.486 391.543 439.555 391.543 438.377V431.727H393.652V437.967C393.652 438.755 393.838 439.354 394.209 439.764C394.58 440.167 395.127 440.369 395.85 440.369C396.605 440.369 397.201 440.128 397.637 439.646C398.073 439.165 398.291 438.52 398.291 437.713V431.727H400.4ZM403.105 429.295H405.225V431.727H407.178V433.396H405.225V439.061C405.225 439.503 405.326 439.829 405.527 440.037C405.729 440.245 406.045 440.35 406.475 440.35C406.787 440.35 407.018 440.333 407.168 440.301V441.971C406.908 442.036 406.517 442.068 405.996 442.068C404.961 442.068 404.219 441.857 403.77 441.434C403.327 441.004 403.105 440.291 403.105 439.295V433.396H401.611V431.727H403.105V429.295ZM414.746 433.982C414.284 433.488 413.688 433.24 412.959 433.24C412.23 433.24 411.624 433.491 411.143 433.992C410.661 434.487 410.394 435.128 410.342 435.916H415.479C415.452 435.122 415.208 434.477 414.746 433.982ZM415.469 438.982H417.471C417.321 439.926 416.839 440.698 416.025 441.297C415.212 441.896 414.219 442.195 413.047 442.195C411.543 442.195 410.358 441.723 409.492 440.779C408.633 439.829 408.203 438.54 408.203 436.912C408.203 435.298 408.633 433.999 409.492 433.016C410.358 432.033 411.514 431.541 412.959 431.541C414.378 431.541 415.505 432.007 416.338 432.938C417.171 433.862 417.588 435.105 417.588 436.668V437.391H410.332V437.518C410.332 438.416 410.583 439.135 411.084 439.676C411.585 440.216 412.256 440.486 413.096 440.486C413.688 440.486 414.196 440.35 414.619 440.076C415.042 439.803 415.326 439.438 415.469 438.982ZM419.043 434.637C419.043 433.719 419.414 432.973 420.156 432.4C420.898 431.827 421.868 431.541 423.066 431.541C424.206 431.541 425.14 431.831 425.869 432.41C426.605 432.983 426.989 433.729 427.021 434.646H425.039C424.987 434.178 424.782 433.81 424.424 433.543C424.066 433.276 423.594 433.143 423.008 433.143C422.435 433.143 421.973 433.27 421.621 433.523C421.276 433.777 421.104 434.106 421.104 434.51C421.104 435.135 421.628 435.577 422.676 435.838L424.404 436.238C425.439 436.486 426.172 436.824 426.602 437.254C427.038 437.677 427.256 438.27 427.256 439.031C427.256 439.969 426.859 440.73 426.064 441.316C425.277 441.902 424.251 442.195 422.988 442.195C421.784 442.195 420.801 441.909 420.039 441.336C419.284 440.763 418.864 440.001 418.779 439.051H420.869C420.954 439.546 421.185 439.926 421.562 440.193C421.94 440.454 422.448 440.584 423.086 440.584C423.717 440.584 424.215 440.464 424.58 440.223C424.951 439.975 425.137 439.643 425.137 439.227C425.137 438.895 425.026 438.631 424.805 438.436C424.583 438.24 424.206 438.074 423.672 437.938L421.836 437.488C419.974 437.039 419.043 436.089 419.043 434.637Z" fill="black"/>
<circle cx="34" cy="436" r="18" fill="black"/>
<path d="M32.0495 426.53L26.0295 430.46C24.0995 431.72 24.0995 434.54 26.0295 435.8L32.0495 439.73C33.1295 440.44 34.9095 440.44 35.9895 439.73L41.9795 435.8C43.8995 434.54 43.8995 431.73 41.9795 430.47L35.9895 426.54C34.9095 425.82 33.1295 425.82 32.0495 426.53Z" stroke="white" stroke-width="1.5" stroke-linecap="round" stroke-linejoin="round"/>
<path d="M27.6291 437.08L27.6191 441.77C27.6191 443.04 28.5991 444.4 29.7991 444.8L32.9891 445.86C33.5391 446.04 34.4491 446.04 35.0091 445.86L38.1991 444.8C39.3991 444.4 40.3791 443.04 40.3791 441.77V437.13" stroke="white" stroke-width="1.5" stroke-linecap="round" stroke-linejoin="round"/>
<path d="M43.4004 439V433" stroke="white" stroke-width="1.5" stroke-linecap="round" stroke-linejoin="round"/>
</svg>
