<svg xmlns="http://www.w3.org/2000/svg" width="642" height="539" viewBox="0 0 642 539" fill="none"><g clip-path="url(#clip0_2451_14667)"><rect width="642" height="539" rx="10" fill="#B28DFF"></rect><line y1="107.5" x2="211" y2="107.5" stroke="white" stroke-opacity="0.5"></line><line x1="7.5" y1="-35" x2="7.49999" y2="107" stroke="white" stroke-opacity="0.5"></line><line y1="95.5" x2="211" y2="95.5" stroke="white" stroke-opacity="0.5"></line><line x1="19.5" y1="-35" x2="19.5" y2="107" stroke="white" stroke-opacity="0.5"></line><line y1="83.5" x2="211" y2="83.5" stroke="white" stroke-opacity="0.5"></line><line x1="31.5" y1="-35" x2="31.5" y2="107" stroke="white" stroke-opacity="0.5"></line><line y1="71.5" x2="211" y2="71.5" stroke="white" stroke-opacity="0.5"></line><line x1="43.5" y1="-35" x2="43.5" y2="107" stroke="white" stroke-opacity="0.5"></line><line y1="59.5" x2="211" y2="59.5" stroke="white" stroke-opacity="0.5"></line><line x1="55.5" y1="-35" x2="55.5" y2="107" stroke="white" stroke-opacity="0.5"></line><line y1="47.5" x2="211" y2="47.5" stroke="white" stroke-opacity="0.5"></line><line x1="67.5" y1="-35" x2="67.5" y2="107" stroke="white" stroke-opacity="0.5"></line><line y1="35.5" x2="211" y2="35.5" stroke="white" stroke-opacity="0.5"></line><line x1="79.5" y1="-35" x2="79.5" y2="107" stroke="white" stroke-opacity="0.5"></line><line y1="23.5" x2="211" y2="23.5" stroke="white" stroke-opacity="0.5"></line><line x1="91.5" y1="-35" x2="91.5" y2="107" stroke="white" stroke-opacity="0.5"></line><line y1="11.5" x2="211" y2="11.5" stroke="white" stroke-opacity="0.5"></line><line x1="103.5" y1="-35" x2="103.5" y2="107" stroke="white" stroke-opacity="0.5"></line><line x1="115.5" y1="-35" x2="115.5" y2="107" stroke="white" stroke-opacity="0.5"></line><line x1="127.5" y1="-35" x2="127.5" y2="107" stroke="white" stroke-opacity="0.5"></line><line x1="139.5" y1="-35" x2="139.5" y2="107" stroke="white" stroke-opacity="0.5"></line><line x1="151.5" y1="-35" x2="151.5" y2="107" stroke="white" stroke-opacity="0.5"></line><line x1="163.5" y1="-35" x2="163.5" y2="107" stroke="white" stroke-opacity="0.5"></line><line x1="175.5" y1="-35" x2="175.5" y2="107" stroke="white" stroke-opacity="0.5"></line><line x1="187.5" y1="-35" x2="187.5" y2="107" stroke="white" stroke-opacity="0.5"></line><line x1="199.5" y1="-35" x2="199.5" y2="107" stroke="white" stroke-opacity="0.5"></line><line x1="211.5" y1="-35" x2="211.5" y2="107" stroke="white" stroke-opacity="0.5"></line><rect x="-40.25" y="396.75" width="196.5" height="196.5" stroke="#333333" stroke-width="1.5" stroke-dasharray="4 4"></rect><circle cx="636.5" cy="7.5" r="49.75" stroke="#333333" stroke-width="1.5"></circle><path d="M610 459V491C610 499.837 602.837 507 594 507H562" stroke="#333333"></path><circle cx="556" cy="507" r="5.5" fill="white" stroke="#333333"></circle><circle cx="610" cy="453" r="5.5" stroke="#333333"></circle><circle cx="157" cy="507" r="5.5" fill="#00D085" stroke="#333333"></circle><circle cx="441" cy="31" r="5.5" fill="#9867FF" stroke="black"></circle><rect x="64.5" y="103.5" width="513" height="331" rx="9.5" fill="white" stroke="#333333"></rect><rect x="92.5" y="122.5" width="461" height="295" rx="7.5" stroke="#DDE2FF"></rect><path d="M140.379 185H137.754V170.352H132.574V168.09H145.547V170.352H140.379V185ZM153.914 183.523C152.852 184.664 151.434 185.234 149.66 185.234C147.887 185.234 146.469 184.664 145.406 183.523C144.344 182.375 143.812 180.812 143.812 178.836C143.812 176.867 144.344 175.312 145.406 174.172C146.469 173.023 147.887 172.449 149.66 172.449C151.434 172.449 152.852 173.023 153.914 174.172C154.977 175.312 155.508 176.867 155.508 178.836C155.508 180.812 154.977 182.375 153.914 183.523ZM149.66 183.148C150.668 183.148 151.465 182.77 152.051 182.012C152.637 181.254 152.93 180.195 152.93 178.836C152.93 177.484 152.633 176.43 152.039 175.672C151.453 174.914 150.66 174.535 149.66 174.535C148.66 174.535 147.863 174.914 147.27 175.672C146.684 176.43 146.391 177.484 146.391 178.836C146.391 180.195 146.684 181.254 147.27 182.012C147.863 182.77 148.66 183.148 149.66 183.148ZM158.203 169.754H160.746V172.672H163.09V174.676H160.746V181.473C160.746 182.004 160.867 182.395 161.109 182.645C161.352 182.895 161.73 183.02 162.246 183.02C162.621 183.02 162.898 183 163.078 182.961V184.965C162.766 185.043 162.297 185.082 161.672 185.082C160.43 185.082 159.539 184.828 159 184.32C158.469 183.805 158.203 182.949 158.203 181.754V174.676H156.41V172.672H158.203V169.754ZM169.301 183.207C170.191 183.207 170.938 182.938 171.539 182.398C172.148 181.852 172.453 181.18 172.453 180.383V179.41L169.418 179.598C168.66 179.652 168.074 179.84 167.66 180.16C167.254 180.473 167.051 180.895 167.051 181.426C167.051 181.965 167.254 182.398 167.66 182.727C168.074 183.047 168.621 183.207 169.301 183.207ZM168.598 185.211C167.387 185.211 166.398 184.867 165.633 184.18C164.875 183.492 164.496 182.598 164.496 181.496C164.496 180.418 164.895 179.562 165.691 178.93C166.488 178.289 167.617 177.93 169.078 177.852L172.453 177.652V176.703C172.453 176.016 172.234 175.48 171.797 175.098C171.359 174.707 170.754 174.512 169.98 174.512C169.262 174.512 168.676 174.672 168.223 174.992C167.777 175.312 167.496 175.754 167.379 176.316H164.988C165.059 175.176 165.551 174.246 166.465 173.527C167.379 172.809 168.582 172.449 170.074 172.449C171.566 172.449 172.754 172.816 173.637 173.551C174.527 174.285 174.973 175.27 174.973 176.504V185H172.547V182.973H172.488C172.137 183.652 171.602 184.195 170.883 184.602C170.172 185.008 169.41 185.211 168.598 185.211ZM177.527 185V168.09H180.059V185H177.527ZM194.625 185H187.84V168.09H194.59C196.09 168.09 197.293 168.477 198.199 169.25C199.105 170.016 199.559 171.035 199.559 172.309C199.559 173.207 199.266 174.012 198.68 174.723C198.102 175.426 197.391 175.848 196.547 175.988V176.082C197.703 176.215 198.633 176.66 199.336 177.418C200.039 178.168 200.391 179.102 200.391 180.219C200.391 181.711 199.879 182.883 198.855 183.734C197.832 184.578 196.422 185 194.625 185ZM190.465 170.234V175.285H193.406C194.539 175.285 195.41 175.059 196.02 174.605C196.629 174.152 196.934 173.508 196.934 172.672C196.934 171.891 196.676 171.289 196.16 170.867C195.645 170.445 194.91 170.234 193.957 170.234H190.465ZM190.465 182.855H194.086C195.266 182.855 196.164 182.617 196.781 182.141C197.398 181.664 197.707 180.969 197.707 180.055C197.707 178.211 196.449 177.289 193.934 177.289H190.465V182.855ZM206.66 183.207C207.551 183.207 208.297 182.938 208.898 182.398C209.508 181.852 209.812 181.18 209.812 180.383V179.41L206.777 179.598C206.02 179.652 205.434 179.84 205.02 180.16C204.613 180.473 204.41 180.895 204.41 181.426C204.41 181.965 204.613 182.398 205.02 182.727C205.434 183.047 205.98 183.207 206.66 183.207ZM205.957 185.211C204.746 185.211 203.758 184.867 202.992 184.18C202.234 183.492 201.855 182.598 201.855 181.496C201.855 180.418 202.254 179.562 203.051 178.93C203.848 178.289 204.977 177.93 206.438 177.852L209.812 177.652V176.703C209.812 176.016 209.594 175.48 209.156 175.098C208.719 174.707 208.113 174.512 207.34 174.512C206.621 174.512 206.035 174.672 205.582 174.992C205.137 175.312 204.855 175.754 204.738 176.316H202.348C202.418 175.176 202.91 174.246 203.824 173.527C204.738 172.809 205.941 172.449 207.434 172.449C208.926 172.449 210.113 172.816 210.996 173.551C211.887 174.285 212.332 175.27 212.332 176.504V185H209.906V182.973H209.848C209.496 183.652 208.961 184.195 208.242 184.602C207.531 185.008 206.77 185.211 205.957 185.211ZM214.887 185V168.09H217.418V185H214.887ZM224.332 183.207C225.223 183.207 225.969 182.938 226.57 182.398C227.18 181.852 227.484 181.18 227.484 180.383V179.41L224.449 179.598C223.691 179.652 223.105 179.84 222.691 180.16C222.285 180.473 222.082 180.895 222.082 181.426C222.082 181.965 222.285 182.398 222.691 182.727C223.105 183.047 223.652 183.207 224.332 183.207ZM223.629 185.211C222.418 185.211 221.43 184.867 220.664 184.18C219.906 183.492 219.527 182.598 219.527 181.496C219.527 180.418 219.926 179.562 220.723 178.93C221.52 178.289 222.648 177.93 224.109 177.852L227.484 177.652V176.703C227.484 176.016 227.266 175.48 226.828 175.098C226.391 174.707 225.785 174.512 225.012 174.512C224.293 174.512 223.707 174.672 223.254 174.992C222.809 175.312 222.527 175.754 222.41 176.316H220.02C220.09 175.176 220.582 174.246 221.496 173.527C222.41 172.809 223.613 172.449 225.105 172.449C226.598 172.449 227.785 172.816 228.668 173.551C229.559 174.285 230.004 175.27 230.004 176.504V185H227.578V182.973H227.52C227.168 183.652 226.633 184.195 225.914 184.602C225.203 185.008 224.441 185.211 223.629 185.211ZM232.465 185V172.672H234.879V174.734H234.938C235.281 174.016 235.781 173.457 236.438 173.059C237.094 172.66 237.887 172.461 238.816 172.461C240.168 172.461 241.219 172.867 241.969 173.68C242.719 174.484 243.094 175.598 243.094 177.02V185H240.551V177.512C240.551 176.574 240.328 175.863 239.883 175.379C239.445 174.887 238.793 174.641 237.926 174.641C237.035 174.641 236.324 174.93 235.793 175.508C235.262 176.086 234.996 176.855 234.996 177.816V185H232.465ZM256.125 176.914H253.711C253.578 176.219 253.258 175.652 252.75 175.215C252.25 174.777 251.605 174.559 250.816 174.559C249.832 174.559 249.043 174.945 248.449 175.719C247.863 176.484 247.57 177.523 247.57 178.836C247.57 180.172 247.863 181.219 248.449 181.977C249.043 182.734 249.84 183.113 250.84 183.113C251.613 183.113 252.246 182.914 252.738 182.516C253.238 182.109 253.562 181.547 253.711 180.828H256.148C256.016 182.148 255.461 183.215 254.484 184.027C253.516 184.832 252.293 185.234 250.816 185.234C249.043 185.234 247.629 184.664 246.574 183.523C245.52 182.375 244.992 180.812 244.992 178.836C244.992 176.883 245.52 175.332 246.574 174.184C247.629 173.027 249.035 172.449 250.793 172.449C252.324 172.449 253.566 172.879 254.52 173.738C255.473 174.59 256.008 175.648 256.125 176.914ZM265.242 175.379C264.688 174.785 263.973 174.488 263.098 174.488C262.223 174.488 261.496 174.789 260.918 175.391C260.34 175.984 260.02 176.754 259.957 177.699H266.121C266.09 176.746 265.797 175.973 265.242 175.379ZM266.109 181.379H268.512C268.332 182.512 267.754 183.438 266.777 184.156C265.801 184.875 264.609 185.234 263.203 185.234C261.398 185.234 259.977 184.668 258.938 183.535C257.906 182.395 257.391 180.848 257.391 178.895C257.391 176.957 257.906 175.398 258.938 174.219C259.977 173.039 261.363 172.449 263.098 172.449C264.801 172.449 266.152 173.008 267.152 174.125C268.152 175.234 268.652 176.727 268.652 178.602V179.469H259.945V179.621C259.945 180.699 260.246 181.562 260.848 182.211C261.449 182.859 262.254 183.184 263.262 183.184C263.973 183.184 264.582 183.02 265.09 182.691C265.598 182.363 265.938 181.926 266.109 181.379Z" fill="black"></path><path d="M134.112 232V225.832H132.24V224.296H134.112V222.328H132.24V220.792H134.112V214.864H136.608L138.888 220.792H141.72V214.864H143.616V220.792H145.488V222.328H143.616V224.296H145.488V225.832H143.616V232H141.096L138.816 225.832H135.984V232H134.112ZM135.984 224.296H138.24L137.52 222.328H135.936L135.984 224.296ZM141.72 228.616H141.816L141.744 225.832H140.736L141.72 228.616ZM135.936 220.792H136.944L135.936 217.816H135.84L135.936 220.792ZM140.16 224.296H141.768L141.72 222.328H139.44L140.16 224.296ZM147.305 227.477C147.305 226.375 147.625 225.43 148.266 224.641C148.906 223.852 149.758 223.359 150.82 223.164V222.977C149.961 222.742 149.273 222.285 148.758 221.605C148.25 220.926 147.996 220.125 147.996 219.203C147.996 217.883 148.5 216.801 149.508 215.957C150.523 215.113 151.82 214.691 153.398 214.691C154.977 214.691 156.27 215.113 157.277 215.957C158.293 216.801 158.801 217.883 158.801 219.203C158.801 220.133 158.547 220.934 158.039 221.605C157.539 222.277 156.852 222.734 155.977 222.977V223.164C157.039 223.359 157.891 223.852 158.531 224.641C159.172 225.43 159.492 226.375 159.492 227.477C159.492 228.922 158.922 230.105 157.781 231.027C156.648 231.941 155.188 232.398 153.398 232.398C151.609 232.398 150.145 231.941 149.004 231.027C147.871 230.105 147.305 228.922 147.305 227.477ZM150.539 224.969C149.805 225.57 149.438 226.355 149.438 227.324C149.438 228.293 149.805 229.082 150.539 229.691C151.273 230.293 152.227 230.594 153.398 230.594C154.57 230.594 155.523 230.293 156.258 229.691C156.992 229.082 157.359 228.293 157.359 227.324C157.359 226.355 156.992 225.57 156.258 224.969C155.523 224.359 154.57 224.055 153.398 224.055C152.227 224.055 151.273 224.359 150.539 224.969ZM150.07 219.402C150.07 220.262 150.375 220.957 150.984 221.488C151.594 222.012 152.398 222.273 153.398 222.273C154.398 222.273 155.203 222.012 155.812 221.488C156.422 220.957 156.727 220.262 156.727 219.402C156.727 218.527 156.422 217.824 155.812 217.293C155.203 216.762 154.398 216.496 153.398 216.496C152.398 216.496 151.594 216.762 150.984 217.293C150.375 217.824 150.07 218.527 150.07 219.402ZM161.906 236.301L163.02 229.633H165.258L163.418 236.301H161.906ZM168 223.539C168 220.75 168.527 218.578 169.582 217.023C170.637 215.469 172.109 214.691 174 214.691C175.883 214.691 177.348 215.473 178.395 217.035C179.449 218.598 179.977 220.777 179.977 223.574C179.977 226.379 179.453 228.551 178.406 230.09C177.367 231.629 175.898 232.398 174 232.398C172.094 232.398 170.617 231.625 169.57 230.078C168.523 228.531 168 226.352 168 223.539ZM170.121 223.539C170.121 225.797 170.453 227.531 171.117 228.742C171.789 229.953 172.75 230.559 174 230.559C175.25 230.559 176.203 229.957 176.859 228.754C177.523 227.543 177.855 225.805 177.855 223.539C177.855 221.297 177.52 219.57 176.848 218.359C176.184 217.148 175.234 216.543 174 216.543C172.766 216.543 171.809 217.152 171.129 218.371C170.457 219.582 170.121 221.305 170.121 223.539ZM183.117 223.539C183.117 220.75 183.645 218.578 184.699 217.023C185.754 215.469 187.227 214.691 189.117 214.691C191 214.691 192.465 215.473 193.512 217.035C194.566 218.598 195.094 220.777 195.094 223.574C195.094 226.379 194.57 228.551 193.523 230.09C192.484 231.629 191.016 232.398 189.117 232.398C187.211 232.398 185.734 231.625 184.688 230.078C183.641 228.531 183.117 226.352 183.117 223.539ZM185.238 223.539C185.238 225.797 185.57 227.531 186.234 228.742C186.906 229.953 187.867 230.559 189.117 230.559C190.367 230.559 191.32 229.957 191.977 228.754C192.641 227.543 192.973 225.805 192.973 223.539C192.973 221.297 192.637 219.57 191.965 218.359C191.301 217.148 190.352 216.543 189.117 216.543C187.883 216.543 186.926 217.152 186.246 218.371C185.574 219.582 185.238 221.305 185.238 223.539ZM198.234 223.539C198.234 220.75 198.762 218.578 199.816 217.023C200.871 215.469 202.344 214.691 204.234 214.691C206.117 214.691 207.582 215.473 208.629 217.035C209.684 218.598 210.211 220.777 210.211 223.574C210.211 226.379 209.688 228.551 208.641 230.09C207.602 231.629 206.133 232.398 204.234 232.398C202.328 232.398 200.852 231.625 199.805 230.078C198.758 228.531 198.234 226.352 198.234 223.539ZM200.355 223.539C200.355 225.797 200.688 227.531 201.352 228.742C202.023 229.953 202.984 230.559 204.234 230.559C205.484 230.559 206.438 229.957 207.094 228.754C207.758 227.543 208.09 225.805 208.09 223.539C208.09 221.297 207.754 219.57 207.082 218.359C206.418 217.148 205.469 216.543 204.234 216.543C203 216.543 202.043 217.152 201.363 218.371C200.691 219.582 200.355 221.305 200.355 223.539ZM214.5 235.363H212.801L213.938 229.398H216.105L214.5 235.363ZM225.164 232.281C223.203 232.281 221.672 231.5 220.57 229.938C219.477 228.367 218.93 226.234 218.93 223.539C218.93 220.867 219.48 218.746 220.582 217.176C221.691 215.598 223.219 214.809 225.164 214.809C227.109 214.809 228.629 215.594 229.723 217.164C230.824 218.727 231.375 220.848 231.375 223.527C231.375 226.223 230.828 228.355 229.734 229.926C228.641 231.496 227.117 232.281 225.164 232.281ZM222.129 228.59C222.848 229.824 223.859 230.441 225.164 230.441C226.469 230.441 227.477 229.828 228.188 228.602C228.898 227.367 229.254 225.68 229.254 223.539C229.254 221.43 228.895 219.758 228.176 218.523C227.457 217.281 226.453 216.66 225.164 216.66C223.875 216.66 222.867 217.281 222.141 218.523C221.414 219.766 221.051 221.434 221.051 223.527C221.051 225.668 221.41 227.355 222.129 228.59ZM239.719 232.281C237.758 232.281 236.227 231.5 235.125 229.938C234.031 228.367 233.484 226.234 233.484 223.539C233.484 220.867 234.035 218.746 235.137 217.176C236.246 215.598 237.773 214.809 239.719 214.809C241.664 214.809 243.184 215.594 244.277 217.164C245.379 218.727 245.93 220.848 245.93 223.527C245.93 226.223 245.383 228.355 244.289 229.926C243.195 231.496 241.672 232.281 239.719 232.281ZM236.684 228.59C237.402 229.824 238.414 230.441 239.719 230.441C241.023 230.441 242.031 229.828 242.742 228.602C243.453 227.367 243.809 225.68 243.809 223.539C243.809 221.43 243.449 219.758 242.73 218.523C242.012 217.281 241.008 216.66 239.719 216.66C238.43 216.66 237.422 217.281 236.695 218.523C235.969 219.766 235.605 221.434 235.605 223.527C235.605 225.668 235.965 227.355 236.684 228.59ZM254.273 232.281C252.312 232.281 250.781 231.5 249.68 229.938C248.586 228.367 248.039 226.234 248.039 223.539C248.039 220.867 248.59 218.746 249.691 217.176C250.801 215.598 252.328 214.809 254.273 214.809C256.219 214.809 257.738 215.594 258.832 217.164C259.934 218.727 260.484 220.848 260.484 223.527C260.484 226.223 259.938 228.355 258.844 229.926C257.75 231.496 256.227 232.281 254.273 232.281ZM251.238 228.59C251.957 229.824 252.969 230.441 254.273 230.441C255.578 230.441 256.586 229.828 257.297 228.602C258.008 227.367 258.363 225.68 258.363 223.539C258.363 221.43 258.004 219.758 257.285 218.523C256.566 217.281 255.562 216.66 254.273 216.66C252.984 216.66 251.977 217.281 251.25 218.523C250.523 219.766 250.16 221.434 250.16 223.527C250.16 225.668 250.52 227.355 251.238 228.59Z" fill="black"></path><circle cx="578" cy="175" r="6.5" fill="#267DFF" stroke="black"></circle><rect x="132" y="323" width="153" height="55" rx="8" fill="#267DFF"></rect><path d="M171.027 345.582L167.125 359H165.133L160.527 342.09H162.73L166.117 355.895H166.211L170.02 342.09H172.152L175.961 355.895H176.055L179.441 342.09H181.645L177.039 359H175.047L171.145 345.582H171.027ZM183.602 359V346.812H185.641V359H183.602ZM184.621 344.762C184.277 344.762 183.98 344.637 183.73 344.387C183.48 344.137 183.355 343.84 183.355 343.496C183.355 343.145 183.48 342.848 183.73 342.605C183.98 342.355 184.277 342.23 184.621 342.23C184.973 342.23 185.273 342.355 185.523 342.605C185.773 342.848 185.898 343.145 185.898 343.496C185.898 343.84 185.773 344.137 185.523 344.387C185.273 344.637 184.973 344.762 184.621 344.762ZM189.051 343.871H191.09V346.812H193.457V348.488H191.09V355.73C191.09 356.285 191.211 356.695 191.453 356.961C191.695 357.219 192.078 357.348 192.602 357.348C192.93 357.348 193.211 357.328 193.445 357.289V359C193.18 359.062 192.75 359.094 192.156 359.094C191.039 359.094 190.242 358.844 189.766 358.344C189.289 357.844 189.051 357.008 189.051 355.836V348.488H187.234V346.812H189.051V343.871ZM195.742 359V342.09H197.781V348.758H197.828C198.172 348.07 198.672 347.539 199.328 347.164C199.992 346.789 200.781 346.602 201.695 346.602C203.023 346.602 204.07 347.012 204.836 347.832C205.602 348.652 205.984 349.75 205.984 351.125V359H203.945V351.5C203.945 350.516 203.699 349.754 203.207 349.215C202.723 348.676 202.008 348.406 201.062 348.406C200.055 348.406 199.254 348.723 198.66 349.355C198.074 349.988 197.781 350.836 197.781 351.898V359H195.742ZM213.191 359.211C211.629 359.211 210.367 358.637 209.406 357.488C208.453 356.34 207.977 354.812 207.977 352.906C207.977 351.008 208.453 349.484 209.406 348.336C210.359 347.18 211.605 346.602 213.145 346.602C214.004 346.602 214.773 346.797 215.453 347.188C216.133 347.578 216.656 348.113 217.023 348.793H217.07V342.09H219.109V359H217.164V356.938H217.129C216.73 357.648 216.191 358.207 215.512 358.613C214.832 359.012 214.059 359.211 213.191 359.211ZM213.578 348.395C212.5 348.395 211.645 348.805 211.012 349.625C210.379 350.438 210.062 351.531 210.062 352.906C210.062 354.289 210.379 355.387 211.012 356.199C211.645 357.012 212.5 357.418 213.578 357.418C214.633 357.418 215.48 357.008 216.121 356.188C216.762 355.359 217.082 354.266 217.082 352.906C217.082 351.547 216.758 350.457 216.109 349.637C215.469 348.809 214.625 348.395 213.578 348.395ZM221.863 359V346.812H223.785V348.805H223.832C224.035 348.125 224.398 347.59 224.922 347.199C225.453 346.801 226.074 346.602 226.785 346.602C226.949 346.602 227.223 346.629 227.605 346.684V348.664C227.387 348.586 227.023 348.547 226.516 348.547C225.727 348.547 225.094 348.809 224.617 349.332C224.141 349.855 223.902 350.547 223.902 351.406V359H221.863ZM233.055 357.477C234.016 357.477 234.82 357.18 235.469 356.586C236.125 355.984 236.453 355.246 236.453 354.371V353.375L233.195 353.574C232.375 353.629 231.738 353.828 231.285 354.172C230.84 354.516 230.617 354.977 230.617 355.555C230.617 356.133 230.84 356.598 231.285 356.949C231.73 357.301 232.32 357.477 233.055 357.477ZM232.598 359.211C231.387 359.211 230.406 358.875 229.656 358.203C228.914 357.531 228.543 356.648 228.543 355.555C228.543 354.508 228.926 353.672 229.691 353.047C230.465 352.422 231.555 352.07 232.961 351.992L236.453 351.793V350.773C236.453 350.031 236.219 349.449 235.75 349.027C235.281 348.605 234.625 348.395 233.781 348.395C233.008 348.395 232.379 348.566 231.895 348.91C231.41 349.246 231.102 349.719 230.969 350.328H229C229.07 349.242 229.539 348.352 230.406 347.656C231.281 346.953 232.422 346.602 233.828 346.602C235.258 346.602 236.391 346.961 237.227 347.68C238.07 348.398 238.492 349.363 238.492 350.574V359H236.559V356.902H236.512C236.145 357.598 235.605 358.156 234.895 358.578C234.184 359 233.418 359.211 232.598 359.211ZM256.586 346.812L253.188 359H251.113L248.359 349.566H248.312L245.57 359H243.496L240.086 346.812H242.113L244.551 356.727H244.598L247.352 346.812H249.32L252.086 356.727H252.133L254.57 346.812H256.586Z" fill="white"></path><circle cx="482" cy="194" r="32" fill="#267DFF"></circle><path d="M493.586 190.766V193.109H469.68V190.766H493.586ZM493.586 195.828V198.172H469.68V195.828H493.586ZM491.324 182V206H487.984L475.785 188.398H475.574V206H471.941V182H475.305L487.504 199.625H487.727V182H491.324Z" fill="white"></path></g><defs><clipPath id="clip0_2451_14667"><rect width="642" height="539" rx="10" fill="white"></rect></clipPath></defs></svg>