<svg width="642" height="539" viewBox="0 0 642 539" fill="none" xmlns="http://www.w3.org/2000/svg">
<g clip-path="url(#clip0_2111_17846)">
<rect width="642" height="539" rx="10" fill="#F4E82F"/>
<line y1="107.5" x2="211" y2="107.5" stroke="white" stroke-opacity="0.5"/>
<line x1="7.5" y1="-35" x2="7.49999" y2="107" stroke="white" stroke-opacity="0.5"/>
<line y1="95.5" x2="211" y2="95.5" stroke="white" stroke-opacity="0.5"/>
<line x1="19.5" y1="-35" x2="19.5" y2="107" stroke="white" stroke-opacity="0.5"/>
<line y1="83.5" x2="211" y2="83.5" stroke="white" stroke-opacity="0.5"/>
<line x1="31.5" y1="-35" x2="31.5" y2="107" stroke="white" stroke-opacity="0.5"/>
<line y1="71.5" x2="211" y2="71.5" stroke="white" stroke-opacity="0.5"/>
<line x1="43.5" y1="-35" x2="43.5" y2="107" stroke="white" stroke-opacity="0.5"/>
<line y1="59.5" x2="211" y2="59.5" stroke="white" stroke-opacity="0.5"/>
<line x1="55.5" y1="-35" x2="55.5" y2="107" stroke="white" stroke-opacity="0.5"/>
<line y1="47.5" x2="211" y2="47.5" stroke="white" stroke-opacity="0.5"/>
<line x1="67.5" y1="-35" x2="67.5" y2="107" stroke="white" stroke-opacity="0.5"/>
<line y1="35.5" x2="211" y2="35.5" stroke="white" stroke-opacity="0.5"/>
<line x1="79.5" y1="-35" x2="79.5" y2="107" stroke="white" stroke-opacity="0.5"/>
<line y1="23.5" x2="211" y2="23.5" stroke="white" stroke-opacity="0.5"/>
<line x1="91.5" y1="-35" x2="91.5" y2="107" stroke="white" stroke-opacity="0.5"/>
<line y1="11.5" x2="211" y2="11.5" stroke="white" stroke-opacity="0.5"/>
<line x1="103.5" y1="-35" x2="103.5" y2="107" stroke="white" stroke-opacity="0.5"/>
<line x1="115.5" y1="-35" x2="115.5" y2="107" stroke="white" stroke-opacity="0.5"/>
<line x1="127.5" y1="-35" x2="127.5" y2="107" stroke="white" stroke-opacity="0.5"/>
<line x1="139.5" y1="-35" x2="139.5" y2="107" stroke="white" stroke-opacity="0.5"/>
<line x1="151.5" y1="-35" x2="151.5" y2="107" stroke="white" stroke-opacity="0.5"/>
<line x1="163.5" y1="-35" x2="163.5" y2="107" stroke="white" stroke-opacity="0.5"/>
<line x1="175.5" y1="-35" x2="175.5" y2="107" stroke="white" stroke-opacity="0.5"/>
<line x1="187.5" y1="-35" x2="187.5" y2="107" stroke="white" stroke-opacity="0.5"/>
<line x1="199.5" y1="-35" x2="199.5" y2="107" stroke="white" stroke-opacity="0.5"/>
<line x1="211.5" y1="-35" x2="211.5" y2="107" stroke="white" stroke-opacity="0.5"/>
<rect x="-40.25" y="396.75" width="196.5" height="196.5" stroke="#333333" stroke-width="1.5" stroke-dasharray="4 4"/>
<rect x="64.5" y="64.5" width="513" height="410" rx="9.5" fill="white" stroke="#333333"/>
<path d="M439.018 396V389.832H437.146V388.296H439.018V386.328H437.146V384.792H439.018V378.864H441.514L443.794 384.792H446.626V378.864H448.522V384.792H450.394V386.328H448.522V388.296H450.394V389.832H448.522V396H446.002L443.722 389.832H440.89V396H439.018ZM440.89 388.296H443.146L442.426 386.328H440.842L440.89 388.296ZM446.626 392.616H446.722L446.65 389.832H445.642L446.626 392.616ZM440.842 384.792H441.85L440.842 381.816H440.746L440.842 384.792ZM445.066 388.296H446.674L446.626 386.328H444.346L445.066 388.296ZM452.422 383.859V383.848C452.422 382.348 452.93 381.113 453.945 380.145C454.969 379.176 456.266 378.691 457.836 378.691C459.352 378.691 460.621 379.148 461.645 380.062C462.676 380.969 463.191 382.094 463.191 383.438C463.191 384.32 462.941 385.188 462.441 386.039C461.941 386.891 461 388.059 459.617 389.543L455.551 393.914V394.102H463.473V396H452.527V394.547L458.375 388.16C459.461 386.98 460.184 386.082 460.543 385.465C460.902 384.848 461.082 384.199 461.082 383.52C461.082 382.676 460.762 381.969 460.121 381.398C459.488 380.82 458.707 380.531 457.777 380.531C456.785 380.531 455.984 380.836 455.375 381.445C454.766 382.055 454.461 382.855 454.461 383.848V383.859H452.422ZM466.168 392.496V390.574C467.715 387.824 470.129 383.996 473.41 379.09H476.469V390.609H478.871V392.496H476.469V396H474.406V392.496H466.168ZM468.324 390.621H474.418V381.047H474.277C472.449 383.703 470.465 386.848 468.324 390.48V390.621ZM482.961 399.363H481.262L482.398 393.398H484.566L482.961 399.363ZM493.625 396.281C491.664 396.281 490.133 395.5 489.031 393.938C487.938 392.367 487.391 390.234 487.391 387.539C487.391 384.867 487.941 382.746 489.043 381.176C490.152 379.598 491.68 378.809 493.625 378.809C495.57 378.809 497.09 379.594 498.184 381.164C499.285 382.727 499.836 384.848 499.836 387.527C499.836 390.223 499.289 392.355 498.195 393.926C497.102 395.496 495.578 396.281 493.625 396.281ZM490.59 392.59C491.309 393.824 492.32 394.441 493.625 394.441C494.93 394.441 495.938 393.828 496.648 392.602C497.359 391.367 497.715 389.68 497.715 387.539C497.715 385.43 497.355 383.758 496.637 382.523C495.918 381.281 494.914 380.66 493.625 380.66C492.336 380.66 491.328 381.281 490.602 382.523C489.875 383.766 489.512 385.434 489.512 387.527C489.512 389.668 489.871 391.355 490.59 392.59ZM508.18 396.281C506.219 396.281 504.688 395.5 503.586 393.938C502.492 392.367 501.945 390.234 501.945 387.539C501.945 384.867 502.496 382.746 503.598 381.176C504.707 379.598 506.234 378.809 508.18 378.809C510.125 378.809 511.645 379.594 512.738 381.164C513.84 382.727 514.391 384.848 514.391 387.527C514.391 390.223 513.844 392.355 512.75 393.926C511.656 395.496 510.133 396.281 508.18 396.281ZM505.145 392.59C505.863 393.824 506.875 394.441 508.18 394.441C509.484 394.441 510.492 393.828 511.203 392.602C511.914 391.367 512.27 389.68 512.27 387.539C512.27 385.43 511.91 383.758 511.191 382.523C510.473 381.281 509.469 380.66 508.18 380.66C506.891 380.66 505.883 381.281 505.156 382.523C504.43 383.766 504.066 385.434 504.066 387.527C504.066 389.668 504.426 391.355 505.145 392.59ZM522.734 396.281C520.773 396.281 519.242 395.5 518.141 393.938C517.047 392.367 516.5 390.234 516.5 387.539C516.5 384.867 517.051 382.746 518.152 381.176C519.262 379.598 520.789 378.809 522.734 378.809C524.68 378.809 526.199 379.594 527.293 381.164C528.395 382.727 528.945 384.848 528.945 387.527C528.945 390.223 528.398 392.355 527.305 393.926C526.211 395.496 524.688 396.281 522.734 396.281ZM519.699 392.59C520.418 393.824 521.43 394.441 522.734 394.441C524.039 394.441 525.047 393.828 525.758 392.602C526.469 391.367 526.824 389.68 526.824 387.539C526.824 385.43 526.465 383.758 525.746 382.523C525.027 381.281 524.023 380.66 522.734 380.66C521.445 380.66 520.438 381.281 519.711 382.523C518.984 383.766 518.621 385.434 518.621 387.527C518.621 389.668 518.98 391.355 519.699 392.59Z" fill="black"/>
<path d="M119.211 416.797V415.609H120.562C121.208 415.609 121.737 415.424 122.148 415.055C122.56 414.68 122.766 414.206 122.766 413.633C122.766 413.06 122.576 412.604 122.195 412.266C121.815 411.927 121.276 411.758 120.578 411.758C119.932 411.758 119.406 411.93 119 412.273C118.594 412.617 118.359 413.086 118.297 413.68H116.945C117.023 412.721 117.393 411.958 118.055 411.391C118.721 410.823 119.583 410.539 120.641 410.539C121.656 410.539 122.5 410.812 123.172 411.359C123.844 411.906 124.18 412.602 124.18 413.445C124.18 414.148 123.971 414.74 123.555 415.219C123.138 415.698 122.576 416 121.867 416.125V416.156C122.721 416.208 123.401 416.482 123.906 416.977C124.411 417.466 124.664 418.107 124.664 418.898C124.664 419.529 124.487 420.096 124.133 420.602C123.779 421.107 123.299 421.497 122.695 421.773C122.091 422.049 121.422 422.188 120.688 422.188C119.521 422.188 118.581 421.896 117.867 421.312C117.154 420.729 116.771 419.964 116.719 419.016H118.07C118.133 419.604 118.396 420.078 118.859 420.438C119.323 420.792 119.927 420.969 120.672 420.969C121.417 420.969 122.029 420.779 122.508 420.398C122.992 420.018 123.234 419.534 123.234 418.945C123.234 418.284 123 417.76 122.531 417.375C122.068 416.99 121.432 416.797 120.625 416.797H119.211ZM130.328 422.188C129.021 422.188 128 421.667 127.266 420.625C126.536 419.578 126.172 418.156 126.172 416.359C126.172 414.578 126.539 413.164 127.273 412.117C128.013 411.065 129.031 410.539 130.328 410.539C131.625 410.539 132.638 411.062 133.367 412.109C134.102 413.151 134.469 414.565 134.469 416.352C134.469 418.148 134.104 419.57 133.375 420.617C132.646 421.664 131.63 422.188 130.328 422.188ZM128.305 419.727C128.784 420.549 129.458 420.961 130.328 420.961C131.198 420.961 131.87 420.552 132.344 419.734C132.818 418.911 133.055 417.786 133.055 416.359C133.055 414.953 132.815 413.839 132.336 413.016C131.857 412.188 131.188 411.773 130.328 411.773C129.469 411.773 128.797 412.188 128.312 413.016C127.828 413.844 127.586 414.956 127.586 416.352C127.586 417.779 127.826 418.904 128.305 419.727ZM138.781 419.352H140.18C140.195 419.831 140.367 420.221 140.695 420.523C141.029 420.82 141.451 420.969 141.961 420.969C142.581 420.969 143.055 420.789 143.383 420.43C143.711 420.065 143.875 419.539 143.875 418.852V410.727H145.281V418.859C145.281 419.927 144.99 420.763 144.406 421.367C143.823 421.966 143.01 422.266 141.969 422.266C141.031 422.266 140.266 421.995 139.672 421.453C139.078 420.906 138.781 420.206 138.781 419.352ZM153.93 413.875V422H152.641V420.68H152.609C152.104 421.654 151.245 422.141 150.031 422.141C149.151 422.141 148.461 421.875 147.961 421.344C147.466 420.807 147.219 420.076 147.219 419.148V413.875H148.578V418.906C148.578 420.26 149.203 420.938 150.453 420.938C151.109 420.938 151.625 420.732 152 420.32C152.38 419.904 152.57 419.346 152.57 418.648V413.875H153.93ZM155.766 422V410.727H157.125V422H155.766ZM159.633 425.039C159.393 425.039 159.198 425.023 159.047 424.992V423.852C159.172 423.878 159.349 423.891 159.578 423.891C159.958 423.891 160.263 423.789 160.492 423.586C160.721 423.388 160.914 423.052 161.07 422.578L161.258 422.008L158.258 413.875H159.711L161.961 420.641H161.984L164.234 413.875H165.664L162.469 422.57C162.12 423.518 161.742 424.167 161.336 424.516C160.935 424.865 160.367 425.039 159.633 425.039ZM166.5 424.242H165.367L166.125 420.266H167.57L166.5 424.242ZM172.094 413.977C172.094 412.992 172.448 412.174 173.156 411.523C173.865 410.867 174.75 410.539 175.812 410.539C176.818 410.539 177.669 410.839 178.367 411.438C179.065 412.036 179.414 412.768 179.414 413.633C179.414 414.258 179.242 414.859 178.898 415.438C178.555 416.016 177.909 416.794 176.961 417.773L174.109 420.719V420.75H179.602V422H172.164V421.031L176.133 416.852C176.888 416.055 177.388 415.451 177.633 415.039C177.883 414.628 178.008 414.188 178.008 413.719C178.008 413.177 177.789 412.716 177.352 412.336C176.919 411.956 176.393 411.766 175.773 411.766C175.112 411.766 174.56 411.977 174.117 412.398C173.674 412.82 173.453 413.346 173.453 413.977V413.984H172.094V413.977ZM185.172 422.188C183.865 422.188 182.844 421.667 182.109 420.625C181.38 419.578 181.016 418.156 181.016 416.359C181.016 414.578 181.383 413.164 182.117 412.117C182.857 411.065 183.875 410.539 185.172 410.539C186.469 410.539 187.482 411.062 188.211 412.109C188.945 413.151 189.312 414.565 189.312 416.352C189.312 418.148 188.948 419.57 188.219 420.617C187.49 421.664 186.474 422.188 185.172 422.188ZM183.148 419.727C183.628 420.549 184.302 420.961 185.172 420.961C186.042 420.961 186.714 420.552 187.188 419.734C187.661 418.911 187.898 417.786 187.898 416.359C187.898 414.953 187.659 413.839 187.18 413.016C186.701 412.188 186.031 411.773 185.172 411.773C184.312 411.773 183.641 412.188 183.156 413.016C182.672 413.844 182.43 414.956 182.43 416.352C182.43 417.779 182.669 418.904 183.148 419.727ZM190.703 413.977C190.703 412.992 191.057 412.174 191.766 411.523C192.474 410.867 193.359 410.539 194.422 410.539C195.427 410.539 196.279 410.839 196.977 411.438C197.674 412.036 198.023 412.768 198.023 413.633C198.023 414.258 197.852 414.859 197.508 415.438C197.164 416.016 196.518 416.794 195.57 417.773L192.719 420.719V420.75H198.211V422H190.773V421.031L194.742 416.852C195.497 416.055 195.997 415.451 196.242 415.039C196.492 414.628 196.617 414.188 196.617 413.719C196.617 413.177 196.398 412.716 195.961 412.336C195.529 411.956 195.003 411.766 194.383 411.766C193.721 411.766 193.169 411.977 192.727 412.398C192.284 412.82 192.062 413.346 192.062 413.977V413.984H190.703V413.977ZM202.133 416.797V415.609H203.484C204.13 415.609 204.659 415.424 205.07 415.055C205.482 414.68 205.688 414.206 205.688 413.633C205.688 413.06 205.497 412.604 205.117 412.266C204.737 411.927 204.198 411.758 203.5 411.758C202.854 411.758 202.328 411.93 201.922 412.273C201.516 412.617 201.281 413.086 201.219 413.68H199.867C199.945 412.721 200.315 411.958 200.977 411.391C201.643 410.823 202.505 410.539 203.562 410.539C204.578 410.539 205.422 410.812 206.094 411.359C206.766 411.906 207.102 412.602 207.102 413.445C207.102 414.148 206.893 414.74 206.477 415.219C206.06 415.698 205.497 416 204.789 416.125V416.156C205.643 416.208 206.323 416.482 206.828 416.977C207.333 417.466 207.586 418.107 207.586 418.898C207.586 419.529 207.409 420.096 207.055 420.602C206.701 421.107 206.221 421.497 205.617 421.773C205.013 422.049 204.344 422.188 203.609 422.188C202.443 422.188 201.503 421.896 200.789 421.312C200.076 420.729 199.693 419.964 199.641 419.016H200.992C201.055 419.604 201.318 420.078 201.781 420.438C202.245 420.792 202.849 420.969 203.594 420.969C204.339 420.969 204.951 420.779 205.43 420.398C205.914 420.018 206.156 419.534 206.156 418.945C206.156 418.284 205.922 417.76 205.453 417.375C204.99 416.99 204.354 416.797 203.547 416.797H202.133Z" fill="#9E9E9E"/>
<rect x="92.5" y="87.5" width="461" height="366" rx="7.5" stroke="#DDE2FF"/>
<line x1="92" y1="208.5" x2="554" y2="208.5" stroke="#DDE2FF"/>
<line x1="92" y1="330.5" x2="554" y2="330.5" stroke="#DDE2FF"/>
<rect x="88" y="125" width="9" height="45" rx="4.5" fill="#267DFF"/>
<rect x="88" y="359" width="9" height="45" rx="4.5" fill="#EEF1FB"/>
<rect x="88" y="247" width="9" height="45" rx="4.5" fill="#EEF1FB"/>
<path d="M439.018 143V136.832H437.146V135.296H439.018V133.328H437.146V131.792H439.018V125.864H441.514L443.794 131.792H446.626V125.864H448.522V131.792H450.394V133.328H448.522V135.296H450.394V136.832H448.522V143H446.002L443.722 136.832H440.89V143H439.018ZM440.89 135.296H443.146L442.426 133.328H440.842L440.89 135.296ZM446.626 139.616H446.722L446.65 136.832H445.642L446.626 139.616ZM440.842 131.792H441.85L440.842 128.816H440.746L440.842 131.792ZM445.066 135.296H446.674L446.626 133.328H444.346L445.066 135.296ZM452.422 130.859V130.848C452.422 129.348 452.93 128.113 453.945 127.145C454.969 126.176 456.266 125.691 457.836 125.691C459.352 125.691 460.621 126.148 461.645 127.062C462.676 127.969 463.191 129.094 463.191 130.438C463.191 131.32 462.941 132.188 462.441 133.039C461.941 133.891 461 135.059 459.617 136.543L455.551 140.914V141.102H463.473V143H452.527V141.547L458.375 135.16C459.461 133.98 460.184 133.082 460.543 132.465C460.902 131.848 461.082 131.199 461.082 130.52C461.082 129.676 460.762 128.969 460.121 128.398C459.488 127.82 458.707 127.531 457.777 127.531C456.785 127.531 455.984 127.836 455.375 128.445C454.766 129.055 454.461 129.855 454.461 130.848V130.859H452.422ZM466.168 139.496V137.574C467.715 134.824 470.129 130.996 473.41 126.09H476.469V137.609H478.871V139.496H476.469V143H474.406V139.496H466.168ZM468.324 137.621H474.418V128.047H474.277C472.449 130.703 470.465 133.848 468.324 137.48V137.621ZM482.961 146.363H481.262L482.398 140.398H484.566L482.961 146.363ZM493.625 143.281C491.664 143.281 490.133 142.5 489.031 140.938C487.938 139.367 487.391 137.234 487.391 134.539C487.391 131.867 487.941 129.746 489.043 128.176C490.152 126.598 491.68 125.809 493.625 125.809C495.57 125.809 497.09 126.594 498.184 128.164C499.285 129.727 499.836 131.848 499.836 134.527C499.836 137.223 499.289 139.355 498.195 140.926C497.102 142.496 495.578 143.281 493.625 143.281ZM490.59 139.59C491.309 140.824 492.32 141.441 493.625 141.441C494.93 141.441 495.938 140.828 496.648 139.602C497.359 138.367 497.715 136.68 497.715 134.539C497.715 132.43 497.355 130.758 496.637 129.523C495.918 128.281 494.914 127.66 493.625 127.66C492.336 127.66 491.328 128.281 490.602 129.523C489.875 130.766 489.512 132.434 489.512 134.527C489.512 136.668 489.871 138.355 490.59 139.59ZM508.18 143.281C506.219 143.281 504.688 142.5 503.586 140.938C502.492 139.367 501.945 137.234 501.945 134.539C501.945 131.867 502.496 129.746 503.598 128.176C504.707 126.598 506.234 125.809 508.18 125.809C510.125 125.809 511.645 126.594 512.738 128.164C513.84 129.727 514.391 131.848 514.391 134.527C514.391 137.223 513.844 139.355 512.75 140.926C511.656 142.496 510.133 143.281 508.18 143.281ZM505.145 139.59C505.863 140.824 506.875 141.441 508.18 141.441C509.484 141.441 510.492 140.828 511.203 139.602C511.914 138.367 512.27 136.68 512.27 134.539C512.27 132.43 511.91 130.758 511.191 129.523C510.473 128.281 509.469 127.66 508.18 127.66C506.891 127.66 505.883 128.281 505.156 129.523C504.43 130.766 504.066 132.434 504.066 134.527C504.066 136.668 504.426 138.355 505.145 139.59ZM522.734 143.281C520.773 143.281 519.242 142.5 518.141 140.938C517.047 139.367 516.5 137.234 516.5 134.539C516.5 131.867 517.051 129.746 518.152 128.176C519.262 126.598 520.789 125.809 522.734 125.809C524.68 125.809 526.199 126.594 527.293 128.164C528.395 129.727 528.945 131.848 528.945 134.527C528.945 137.223 528.398 139.355 527.305 140.926C526.211 142.496 524.688 143.281 522.734 143.281ZM519.699 139.59C520.418 140.824 521.43 141.441 522.734 141.441C524.039 141.441 525.047 140.828 525.758 139.602C526.469 138.367 526.824 136.68 526.824 134.539C526.824 132.43 526.465 130.758 525.746 129.523C525.027 128.281 524.023 127.66 522.734 127.66C521.445 127.66 520.438 128.281 519.711 129.523C518.984 130.766 518.621 132.434 518.621 134.527C518.621 136.668 518.98 138.355 519.699 139.59Z" fill="black"/>
<path d="M498.939 164.317H503.466C504.655 164.317 505.628 164.698 506.384 165.46C507.146 166.216 507.526 167.191 507.526 168.387C507.526 169.588 507.146 170.569 506.384 171.331C505.622 172.093 504.644 172.474 503.448 172.474H500.521V177H498.939V164.317ZM500.521 165.724V171.067H503.053C503.955 171.067 504.655 170.833 505.153 170.364C505.651 169.89 505.9 169.23 505.9 168.387C505.9 167.543 505.651 166.89 505.153 166.427C504.661 165.958 503.961 165.724 503.053 165.724H500.521ZM511.332 175.857C512.053 175.857 512.656 175.635 513.143 175.189C513.635 174.738 513.881 174.185 513.881 173.528V172.781L511.438 172.931C510.822 172.972 510.345 173.121 510.005 173.379C509.671 173.637 509.504 173.982 509.504 174.416C509.504 174.85 509.671 175.198 510.005 175.462C510.339 175.726 510.781 175.857 511.332 175.857ZM510.989 177.158C510.081 177.158 509.346 176.906 508.783 176.402C508.227 175.898 507.948 175.236 507.948 174.416C507.948 173.631 508.235 173.004 508.81 172.535C509.39 172.066 510.207 171.803 511.262 171.744L513.881 171.595V170.83C513.881 170.273 513.705 169.837 513.354 169.521C513.002 169.204 512.51 169.046 511.877 169.046C511.297 169.046 510.825 169.175 510.462 169.433C510.099 169.685 509.867 170.039 509.768 170.496H508.291C508.344 169.682 508.695 169.014 509.346 168.492C510.002 167.965 510.857 167.701 511.912 167.701C512.984 167.701 513.834 167.971 514.461 168.51C515.094 169.049 515.41 169.772 515.41 170.681V177H513.96V175.427H513.925C513.649 175.948 513.245 176.367 512.712 176.684C512.179 177 511.604 177.158 510.989 177.158ZM517.432 177V167.859H518.961V177H517.432ZM518.196 166.321C517.938 166.321 517.716 166.228 517.528 166.04C517.341 165.853 517.247 165.63 517.247 165.372C517.247 165.108 517.341 164.886 517.528 164.704C517.716 164.517 517.938 164.423 518.196 164.423C518.46 164.423 518.686 164.517 518.873 164.704C519.061 164.886 519.154 165.108 519.154 165.372C519.154 165.63 519.061 165.853 518.873 166.04C518.686 166.228 518.46 166.321 518.196 166.321ZM524.489 177.158C523.317 177.158 522.371 176.728 521.65 175.866C520.936 175.005 520.578 173.859 520.578 172.43C520.578 171.006 520.936 169.863 521.65 169.002C522.365 168.135 523.3 167.701 524.454 167.701C525.099 167.701 525.676 167.848 526.186 168.141C526.695 168.434 527.088 168.835 527.363 169.345H527.398V164.317H528.928V177H527.469V175.453H527.442C527.144 175.986 526.739 176.405 526.229 176.71C525.72 177.009 525.14 177.158 524.489 177.158ZM524.779 169.046C523.971 169.046 523.329 169.354 522.854 169.969C522.38 170.578 522.143 171.398 522.143 172.43C522.143 173.467 522.38 174.29 522.854 174.899C523.329 175.509 523.971 175.813 524.779 175.813C525.57 175.813 526.206 175.506 526.687 174.891C527.167 174.27 527.407 173.449 527.407 172.43C527.407 171.41 527.164 170.593 526.678 169.978C526.197 169.356 525.564 169.046 524.779 169.046Z" fill="#274BCB"/>
<path d="M119.612 171.146V169.811H121.133C121.859 169.811 122.454 169.603 122.917 169.187C123.38 168.765 123.611 168.231 123.611 167.587C123.611 166.942 123.397 166.43 122.97 166.049C122.542 165.668 121.936 165.478 121.15 165.478C120.424 165.478 119.832 165.671 119.375 166.058C118.918 166.444 118.654 166.972 118.584 167.64H117.063C117.151 166.562 117.567 165.703 118.312 165.064C119.062 164.426 120.031 164.106 121.221 164.106C122.363 164.106 123.312 164.414 124.068 165.029C124.824 165.645 125.202 166.427 125.202 167.376C125.202 168.167 124.968 168.832 124.499 169.371C124.03 169.91 123.397 170.25 122.601 170.391V170.426C123.562 170.484 124.326 170.792 124.895 171.349C125.463 171.899 125.747 172.62 125.747 173.511C125.747 174.22 125.548 174.858 125.149 175.427C124.751 175.995 124.212 176.435 123.532 176.745C122.853 177.056 122.1 177.211 121.273 177.211C119.961 177.211 118.903 176.883 118.101 176.227C117.298 175.57 116.867 174.709 116.809 173.643H118.329C118.399 174.305 118.695 174.838 119.217 175.242C119.738 175.641 120.418 175.84 121.256 175.84C122.094 175.84 122.782 175.626 123.321 175.198C123.866 174.771 124.139 174.226 124.139 173.563C124.139 172.819 123.875 172.23 123.348 171.797C122.826 171.363 122.111 171.146 121.203 171.146H119.612ZM132.119 177.211C130.648 177.211 129.5 176.625 128.674 175.453C127.854 174.275 127.443 172.676 127.443 170.654C127.443 168.65 127.856 167.06 128.683 165.882C129.515 164.698 130.66 164.106 132.119 164.106C133.578 164.106 134.718 164.695 135.538 165.873C136.364 167.045 136.777 168.636 136.777 170.646C136.777 172.667 136.367 174.267 135.547 175.444C134.727 176.622 133.584 177.211 132.119 177.211ZM129.843 174.442C130.382 175.368 131.141 175.831 132.119 175.831C133.098 175.831 133.854 175.371 134.387 174.451C134.92 173.525 135.187 172.26 135.187 170.654C135.187 169.072 134.917 167.818 134.378 166.893C133.839 165.961 133.086 165.495 132.119 165.495C131.152 165.495 130.396 165.961 129.852 166.893C129.307 167.824 129.034 169.075 129.034 170.646C129.034 172.251 129.304 173.517 129.843 174.442ZM154.988 177H153.512V167.227H153.45L149.407 176.912H148.071L144.028 167.227H143.967V177H142.49V164.317H144.327L148.704 174.899H148.774L153.151 164.317H154.988V177ZM159.963 175.857C160.684 175.857 161.287 175.635 161.773 175.189C162.266 174.738 162.512 174.185 162.512 173.528V172.781L160.068 172.931C159.453 172.972 158.976 173.121 158.636 173.379C158.302 173.637 158.135 173.982 158.135 174.416C158.135 174.85 158.302 175.198 158.636 175.462C158.97 175.726 159.412 175.857 159.963 175.857ZM159.62 177.158C158.712 177.158 157.977 176.906 157.414 176.402C156.857 175.898 156.579 175.236 156.579 174.416C156.579 173.631 156.866 173.004 157.44 172.535C158.021 172.066 158.838 171.803 159.893 171.744L162.512 171.595V170.83C162.512 170.273 162.336 169.837 161.984 169.521C161.633 169.204 161.141 169.046 160.508 169.046C159.928 169.046 159.456 169.175 159.093 169.433C158.729 169.685 158.498 170.039 158.398 170.496H156.922C156.975 169.682 157.326 169.014 157.977 168.492C158.633 167.965 159.488 167.701 160.543 167.701C161.615 167.701 162.465 167.971 163.092 168.51C163.725 169.049 164.041 169.772 164.041 170.681V177H162.591V175.427H162.556C162.28 175.948 161.876 176.367 161.343 176.684C160.81 177 160.235 177.158 159.62 177.158ZM166.739 180.419C166.47 180.419 166.25 180.401 166.08 180.366V179.083C166.221 179.112 166.42 179.127 166.678 179.127C167.105 179.127 167.448 179.013 167.706 178.784C167.964 178.562 168.181 178.184 168.356 177.65L168.567 177.009L165.192 167.859H166.827L169.358 175.471H169.385L171.916 167.859H173.524L169.93 177.642C169.537 178.708 169.112 179.438 168.655 179.83C168.204 180.223 167.565 180.419 166.739 180.419ZM174.465 179.522H173.19L174.043 175.049H175.669L174.465 179.522ZM180.758 167.974C180.758 166.866 181.156 165.946 181.953 165.214C182.75 164.476 183.746 164.106 184.941 164.106C186.072 164.106 187.03 164.443 187.815 165.117C188.601 165.791 188.993 166.614 188.993 167.587C188.993 168.29 188.8 168.967 188.413 169.617C188.026 170.268 187.3 171.144 186.233 172.245L183.025 175.559V175.594H189.204V177H180.837V175.91L185.302 171.208C186.151 170.312 186.714 169.632 186.989 169.169C187.271 168.706 187.411 168.211 187.411 167.684C187.411 167.074 187.165 166.556 186.673 166.128C186.187 165.7 185.595 165.486 184.897 165.486C184.153 165.486 183.532 165.724 183.034 166.198C182.536 166.673 182.287 167.265 182.287 167.974V167.982H180.758V167.974ZM195.471 177.211C194 177.211 192.852 176.625 192.025 175.453C191.205 174.275 190.795 172.676 190.795 170.654C190.795 168.65 191.208 167.06 192.034 165.882C192.866 164.698 194.012 164.106 195.471 164.106C196.93 164.106 198.069 164.695 198.89 165.873C199.716 167.045 200.129 168.636 200.129 170.646C200.129 172.667 199.719 174.267 198.898 175.444C198.078 176.622 196.936 177.211 195.471 177.211ZM193.194 174.442C193.733 175.368 194.492 175.831 195.471 175.831C196.449 175.831 197.205 175.371 197.738 174.451C198.271 173.525 198.538 172.26 198.538 170.654C198.538 169.072 198.269 167.818 197.729 166.893C197.19 165.961 196.438 165.495 195.471 165.495C194.504 165.495 193.748 165.961 193.203 166.893C192.658 167.824 192.386 169.075 192.386 170.646C192.386 172.251 192.655 173.517 193.194 174.442ZM201.693 167.974C201.693 166.866 202.092 165.946 202.889 165.214C203.686 164.476 204.682 164.106 205.877 164.106C207.008 164.106 207.966 164.443 208.751 165.117C209.536 165.791 209.929 166.614 209.929 167.587C209.929 168.29 209.735 168.967 209.349 169.617C208.962 170.268 208.235 171.144 207.169 172.245L203.961 175.559V175.594H210.14V177H201.772V175.91L206.237 171.208C207.087 170.312 207.649 169.632 207.925 169.169C208.206 168.706 208.347 168.211 208.347 167.684C208.347 167.074 208.101 166.556 207.608 166.128C207.122 165.7 206.53 165.486 205.833 165.486C205.089 165.486 204.468 165.724 203.97 166.198C203.472 166.673 203.223 167.265 203.223 167.974V167.982H201.693V167.974ZM214.552 171.146V169.811H216.072C216.799 169.811 217.394 169.603 217.856 169.187C218.319 168.765 218.551 168.231 218.551 167.587C218.551 166.942 218.337 166.43 217.909 166.049C217.481 165.668 216.875 165.478 216.09 165.478C215.363 165.478 214.771 165.671 214.314 166.058C213.857 166.444 213.594 166.972 213.523 167.64H212.003C212.091 166.562 212.507 165.703 213.251 165.064C214.001 164.426 214.971 164.106 216.16 164.106C217.303 164.106 218.252 164.414 219.008 165.029C219.764 165.645 220.142 166.427 220.142 167.376C220.142 168.167 219.907 168.832 219.438 169.371C218.97 169.91 218.337 170.25 217.54 170.391V170.426C218.501 170.484 219.266 170.792 219.834 171.349C220.402 171.899 220.687 172.62 220.687 173.511C220.687 174.22 220.487 174.858 220.089 175.427C219.69 175.995 219.151 176.435 218.472 176.745C217.792 177.056 217.039 177.211 216.213 177.211C214.9 177.211 213.843 176.883 213.04 176.227C212.237 175.57 211.807 174.709 211.748 173.643H213.269C213.339 174.305 213.635 174.838 214.156 175.242C214.678 175.641 215.357 175.84 216.195 175.84C217.033 175.84 217.722 175.626 218.261 175.198C218.806 174.771 219.078 174.226 219.078 173.563C219.078 172.819 218.814 172.23 218.287 171.797C217.766 171.363 217.051 171.146 216.143 171.146H214.552Z" fill="#9E9E9E"/>
<path d="M120.184 142H117.559V125.09H128.117V127.352H120.184V132.707H127.449V134.922H120.184V142ZM130.18 142V129.672H132.711V142H130.18ZM132.488 127.445C132.199 127.727 131.852 127.867 131.445 127.867C131.039 127.867 130.691 127.727 130.402 127.445C130.121 127.164 129.98 126.824 129.98 126.426C129.98 126.02 130.121 125.676 130.402 125.395C130.691 125.113 131.039 124.973 131.445 124.973C131.859 124.973 132.207 125.113 132.488 125.395C132.777 125.676 132.922 126.02 132.922 126.426C132.922 126.824 132.777 127.164 132.488 127.445ZM135.301 142V129.672H137.715V131.77H137.773C137.977 131.051 138.34 130.488 138.863 130.082C139.387 129.676 140.012 129.473 140.738 129.473C140.98 129.473 141.27 129.504 141.605 129.566V131.922C141.379 131.828 141 131.781 140.469 131.781C139.656 131.781 139.012 132.035 138.535 132.543C138.066 133.051 137.832 133.742 137.832 134.617V142H135.301ZM142.953 133.164C142.953 132.062 143.398 131.168 144.289 130.48C145.18 129.793 146.344 129.449 147.781 129.449C149.148 129.449 150.27 129.797 151.145 130.492C152.027 131.18 152.488 132.074 152.527 133.176H150.148C150.086 132.613 149.84 132.172 149.41 131.852C148.98 131.531 148.414 131.371 147.711 131.371C147.023 131.371 146.469 131.523 146.047 131.828C145.633 132.133 145.426 132.527 145.426 133.012C145.426 133.762 146.055 134.293 147.312 134.605L149.387 135.086C150.629 135.383 151.508 135.789 152.023 136.305C152.547 136.812 152.809 137.523 152.809 138.438C152.809 139.562 152.332 140.477 151.379 141.18C150.434 141.883 149.203 142.234 147.688 142.234C146.242 142.234 145.062 141.891 144.148 141.203C143.242 140.516 142.738 139.602 142.637 138.461H145.145C145.246 139.055 145.523 139.512 145.977 139.832C146.43 140.145 147.039 140.301 147.805 140.301C148.562 140.301 149.16 140.156 149.598 139.867C150.043 139.57 150.266 139.172 150.266 138.672C150.266 138.273 150.133 137.957 149.867 137.723C149.602 137.488 149.148 137.289 148.508 137.125L146.305 136.586C144.07 136.047 142.953 134.906 142.953 133.164ZM155.516 126.754H158.059V129.672H160.402V131.676H158.059V138.473C158.059 139.004 158.18 139.395 158.422 139.645C158.664 139.895 159.043 140.02 159.559 140.02C159.934 140.02 160.211 140 160.391 139.961V141.965C160.078 142.043 159.609 142.082 158.984 142.082C157.742 142.082 156.852 141.828 156.312 141.32C155.781 140.805 155.516 139.949 155.516 138.754V131.676H153.723V129.672H155.516V126.754ZM173.785 129.473C175.355 129.473 176.613 130.047 177.559 131.195C178.504 132.344 178.977 133.891 178.977 135.836C178.977 137.781 178.508 139.332 177.57 140.488C176.633 141.637 175.387 142.211 173.832 142.211C172.957 142.211 172.18 142.012 171.5 141.613C170.828 141.215 170.312 140.668 169.953 139.973H169.895V146.078H167.363V129.672H169.812V131.793H169.859C170.227 131.074 170.754 130.508 171.441 130.094C172.129 129.68 172.91 129.473 173.785 129.473ZM173.117 140.066C174.117 140.066 174.91 139.688 175.496 138.93C176.082 138.164 176.375 137.133 176.375 135.836C176.375 134.547 176.082 133.52 175.496 132.754C174.91 131.988 174.117 131.605 173.117 131.605C172.148 131.605 171.367 131.992 170.773 132.766C170.18 133.539 169.883 134.562 169.883 135.836C169.883 137.117 170.176 138.145 170.762 138.918C171.355 139.684 172.141 140.066 173.117 140.066ZM185.246 140.207C186.137 140.207 186.883 139.938 187.484 139.398C188.094 138.852 188.398 138.18 188.398 137.383V136.41L185.363 136.598C184.605 136.652 184.02 136.84 183.605 137.16C183.199 137.473 182.996 137.895 182.996 138.426C182.996 138.965 183.199 139.398 183.605 139.727C184.02 140.047 184.566 140.207 185.246 140.207ZM184.543 142.211C183.332 142.211 182.344 141.867 181.578 141.18C180.82 140.492 180.441 139.598 180.441 138.496C180.441 137.418 180.84 136.562 181.637 135.93C182.434 135.289 183.562 134.93 185.023 134.852L188.398 134.652V133.703C188.398 133.016 188.18 132.48 187.742 132.098C187.305 131.707 186.699 131.512 185.926 131.512C185.207 131.512 184.621 131.672 184.168 131.992C183.723 132.312 183.441 132.754 183.324 133.316H180.934C181.004 132.176 181.496 131.246 182.41 130.527C183.324 129.809 184.527 129.449 186.02 129.449C187.512 129.449 188.699 129.816 189.582 130.551C190.473 131.285 190.918 132.27 190.918 133.504V142H188.492V139.973H188.434C188.082 140.652 187.547 141.195 186.828 141.602C186.117 142.008 185.355 142.211 184.543 142.211ZM194.598 146.594C194.121 146.594 193.777 146.574 193.566 146.535V144.484C193.691 144.516 193.965 144.531 194.387 144.531C194.98 144.531 195.445 144.395 195.781 144.121C196.117 143.855 196.383 143.406 196.578 142.773C196.578 142.766 196.617 142.637 196.695 142.387L196.801 142.012L192.348 129.672H195.09L198.219 139.703H198.254L201.383 129.672H204.055L199.426 142.645C198.902 144.137 198.289 145.168 197.586 145.738C196.883 146.309 195.887 146.594 194.598 146.594ZM205.543 142V129.672H207.957V131.746H208.016C208.297 131.051 208.746 130.496 209.363 130.082C209.98 129.668 210.699 129.461 211.52 129.461C212.371 129.461 213.094 129.672 213.688 130.094C214.289 130.516 214.715 131.109 214.965 131.875H215.023C215.344 131.125 215.844 130.535 216.523 130.105C217.211 129.676 217.992 129.461 218.867 129.461C220.086 129.461 221.062 129.832 221.797 130.574C222.531 131.316 222.898 132.301 222.898 133.527V142H220.355V134.137C220.355 133.34 220.148 132.723 219.734 132.285C219.328 131.848 218.75 131.629 218 131.629C217.25 131.629 216.637 131.879 216.16 132.379C215.691 132.879 215.457 133.52 215.457 134.301V142H212.973V133.949C212.973 133.238 212.762 132.676 212.34 132.262C211.918 131.84 211.352 131.629 210.641 131.629C209.891 131.629 209.273 131.891 208.789 132.414C208.312 132.93 208.074 133.586 208.074 134.383V142H205.543ZM232.648 132.379C232.094 131.785 231.379 131.488 230.504 131.488C229.629 131.488 228.902 131.789 228.324 132.391C227.746 132.984 227.426 133.754 227.363 134.699H233.527C233.496 133.746 233.203 132.973 232.648 132.379ZM233.516 138.379H235.918C235.738 139.512 235.16 140.438 234.184 141.156C233.207 141.875 232.016 142.234 230.609 142.234C228.805 142.234 227.383 141.668 226.344 140.535C225.312 139.395 224.797 137.848 224.797 135.895C224.797 133.957 225.312 132.398 226.344 131.219C227.383 130.039 228.77 129.449 230.504 129.449C232.207 129.449 233.559 130.008 234.559 131.125C235.559 132.234 236.059 133.727 236.059 135.602V136.469H227.352V136.621C227.352 137.699 227.652 138.562 228.254 139.211C228.855 139.859 229.66 140.184 230.668 140.184C231.379 140.184 231.988 140.02 232.496 139.691C233.004 139.363 233.344 138.926 233.516 138.379ZM238.027 142V129.672H240.441V131.734H240.5C240.844 131.016 241.344 130.457 242 130.059C242.656 129.66 243.449 129.461 244.379 129.461C245.73 129.461 246.781 129.867 247.531 130.68C248.281 131.484 248.656 132.598 248.656 134.02V142H246.113V134.512C246.113 133.574 245.891 132.863 245.445 132.379C245.008 131.887 244.355 131.641 243.488 131.641C242.598 131.641 241.887 131.93 241.355 132.508C240.824 133.086 240.559 133.855 240.559 134.816V142H238.027ZM251.844 126.754H254.387V129.672H256.73V131.676H254.387V138.473C254.387 139.004 254.508 139.395 254.75 139.645C254.992 139.895 255.371 140.02 255.887 140.02C256.262 140.02 256.539 140 256.719 139.961V141.965C256.406 142.043 255.938 142.082 255.312 142.082C254.07 142.082 253.18 141.828 252.641 141.32C252.109 140.805 251.844 139.949 251.844 138.754V131.676H250.051V129.672H251.844V126.754Z" fill="black"/>
<path d="M439.018 283V276.832H437.146V275.296H439.018V273.328H437.146V271.792H439.018V265.864H441.514L443.794 271.792H446.626V265.864H448.522V271.792H450.394V273.328H448.522V275.296H450.394V276.832H448.522V283H446.002L443.722 276.832H440.89V283H439.018ZM440.89 275.296H443.146L442.426 273.328H440.842L440.89 275.296ZM446.626 279.616H446.722L446.65 276.832H445.642L446.626 279.616ZM440.842 271.792H441.85L440.842 268.816H440.746L440.842 271.792ZM445.066 275.296H446.674L446.626 273.328H444.346L445.066 275.296ZM452.422 270.859V270.848C452.422 269.348 452.93 268.113 453.945 267.145C454.969 266.176 456.266 265.691 457.836 265.691C459.352 265.691 460.621 266.148 461.645 267.062C462.676 267.969 463.191 269.094 463.191 270.438C463.191 271.32 462.941 272.188 462.441 273.039C461.941 273.891 461 275.059 459.617 276.543L455.551 280.914V281.102H463.473V283H452.527V281.547L458.375 275.16C459.461 273.98 460.184 273.082 460.543 272.465C460.902 271.848 461.082 271.199 461.082 270.52C461.082 269.676 460.762 268.969 460.121 268.398C459.488 267.82 458.707 267.531 457.777 267.531C456.785 267.531 455.984 267.836 455.375 268.445C454.766 269.055 454.461 269.855 454.461 270.848V270.859H452.422ZM466.168 279.496V277.574C467.715 274.824 470.129 270.996 473.41 266.09H476.469V277.609H478.871V279.496H476.469V283H474.406V279.496H466.168ZM468.324 277.621H474.418V268.047H474.277C472.449 270.703 470.465 273.848 468.324 277.48V277.621ZM482.961 286.363H481.262L482.398 280.398H484.566L482.961 286.363ZM493.625 283.281C491.664 283.281 490.133 282.5 489.031 280.938C487.938 279.367 487.391 277.234 487.391 274.539C487.391 271.867 487.941 269.746 489.043 268.176C490.152 266.598 491.68 265.809 493.625 265.809C495.57 265.809 497.09 266.594 498.184 268.164C499.285 269.727 499.836 271.848 499.836 274.527C499.836 277.223 499.289 279.355 498.195 280.926C497.102 282.496 495.578 283.281 493.625 283.281ZM490.59 279.59C491.309 280.824 492.32 281.441 493.625 281.441C494.93 281.441 495.938 280.828 496.648 279.602C497.359 278.367 497.715 276.68 497.715 274.539C497.715 272.43 497.355 270.758 496.637 269.523C495.918 268.281 494.914 267.66 493.625 267.66C492.336 267.66 491.328 268.281 490.602 269.523C489.875 270.766 489.512 272.434 489.512 274.527C489.512 276.668 489.871 278.355 490.59 279.59ZM508.18 283.281C506.219 283.281 504.688 282.5 503.586 280.938C502.492 279.367 501.945 277.234 501.945 274.539C501.945 271.867 502.496 269.746 503.598 268.176C504.707 266.598 506.234 265.809 508.18 265.809C510.125 265.809 511.645 266.594 512.738 268.164C513.84 269.727 514.391 271.848 514.391 274.527C514.391 277.223 513.844 279.355 512.75 280.926C511.656 282.496 510.133 283.281 508.18 283.281ZM505.145 279.59C505.863 280.824 506.875 281.441 508.18 281.441C509.484 281.441 510.492 280.828 511.203 279.602C511.914 278.367 512.27 276.68 512.27 274.539C512.27 272.43 511.91 270.758 511.191 269.523C510.473 268.281 509.469 267.66 508.18 267.66C506.891 267.66 505.883 268.281 505.156 269.523C504.43 270.766 504.066 272.434 504.066 274.527C504.066 276.668 504.426 278.355 505.145 279.59ZM522.734 283.281C520.773 283.281 519.242 282.5 518.141 280.938C517.047 279.367 516.5 277.234 516.5 274.539C516.5 271.867 517.051 269.746 518.152 268.176C519.262 266.598 520.789 265.809 522.734 265.809C524.68 265.809 526.199 266.594 527.293 268.164C528.395 269.727 528.945 271.848 528.945 274.527C528.945 277.223 528.398 279.355 527.305 280.926C526.211 282.496 524.688 283.281 522.734 283.281ZM519.699 279.59C520.418 280.824 521.43 281.441 522.734 281.441C524.039 281.441 525.047 280.828 525.758 279.602C526.469 278.367 526.824 276.68 526.824 274.539C526.824 272.43 526.465 270.758 525.746 269.523C525.027 268.281 524.023 267.66 522.734 267.66C521.445 267.66 520.438 268.281 519.711 269.523C518.984 270.766 518.621 272.434 518.621 274.527C518.621 276.668 518.98 278.355 519.699 279.59Z" fill="black"/>
<path d="M119.211 293.797V292.609H120.562C121.208 292.609 121.737 292.424 122.148 292.055C122.56 291.68 122.766 291.206 122.766 290.633C122.766 290.06 122.576 289.604 122.195 289.266C121.815 288.927 121.276 288.758 120.578 288.758C119.932 288.758 119.406 288.93 119 289.273C118.594 289.617 118.359 290.086 118.297 290.68H116.945C117.023 289.721 117.393 288.958 118.055 288.391C118.721 287.823 119.583 287.539 120.641 287.539C121.656 287.539 122.5 287.812 123.172 288.359C123.844 288.906 124.18 289.602 124.18 290.445C124.18 291.148 123.971 291.74 123.555 292.219C123.138 292.698 122.576 293 121.867 293.125V293.156C122.721 293.208 123.401 293.482 123.906 293.977C124.411 294.466 124.664 295.107 124.664 295.898C124.664 296.529 124.487 297.096 124.133 297.602C123.779 298.107 123.299 298.497 122.695 298.773C122.091 299.049 121.422 299.188 120.688 299.188C119.521 299.188 118.581 298.896 117.867 298.312C117.154 297.729 116.771 296.964 116.719 296.016H118.07C118.133 296.604 118.396 297.078 118.859 297.438C119.323 297.792 119.927 297.969 120.672 297.969C121.417 297.969 122.029 297.779 122.508 297.398C122.992 297.018 123.234 296.534 123.234 295.945C123.234 295.284 123 294.76 122.531 294.375C122.068 293.99 121.432 293.797 120.625 293.797H119.211ZM130.328 299.188C129.021 299.188 128 298.667 127.266 297.625C126.536 296.578 126.172 295.156 126.172 293.359C126.172 291.578 126.539 290.164 127.273 289.117C128.013 288.065 129.031 287.539 130.328 287.539C131.625 287.539 132.638 288.062 133.367 289.109C134.102 290.151 134.469 291.565 134.469 293.352C134.469 295.148 134.104 296.57 133.375 297.617C132.646 298.664 131.63 299.188 130.328 299.188ZM128.305 296.727C128.784 297.549 129.458 297.961 130.328 297.961C131.198 297.961 131.87 297.552 132.344 296.734C132.818 295.911 133.055 294.786 133.055 293.359C133.055 291.953 132.815 290.839 132.336 290.016C131.857 289.188 131.188 288.773 130.328 288.773C129.469 288.773 128.797 289.188 128.312 290.016C127.828 290.844 127.586 291.956 127.586 293.352C127.586 294.779 127.826 295.904 128.305 296.727ZM138.781 296.352H140.18C140.195 296.831 140.367 297.221 140.695 297.523C141.029 297.82 141.451 297.969 141.961 297.969C142.581 297.969 143.055 297.789 143.383 297.43C143.711 297.065 143.875 296.539 143.875 295.852V287.727H145.281V295.859C145.281 296.927 144.99 297.763 144.406 298.367C143.823 298.966 143.01 299.266 141.969 299.266C141.031 299.266 140.266 298.995 139.672 298.453C139.078 297.906 138.781 297.206 138.781 296.352ZM153.93 290.875V299H152.641V297.68H152.609C152.104 298.654 151.245 299.141 150.031 299.141C149.151 299.141 148.461 298.875 147.961 298.344C147.466 297.807 147.219 297.076 147.219 296.148V290.875H148.578V295.906C148.578 297.26 149.203 297.938 150.453 297.938C151.109 297.938 151.625 297.732 152 297.32C152.38 296.904 152.57 296.346 152.57 295.648V290.875H153.93ZM155.695 299V290.875H156.977V292.172H157.008C157.242 291.719 157.578 291.367 158.016 291.117C158.453 290.862 158.977 290.734 159.586 290.734C160.471 290.734 161.161 291.003 161.656 291.539C162.151 292.07 162.398 292.799 162.398 293.727V299H161.039V293.969C161.039 293.307 160.883 292.805 160.57 292.461C160.258 292.112 159.792 291.938 159.172 291.938C158.531 291.938 158.018 292.146 157.633 292.562C157.247 292.979 157.055 293.531 157.055 294.219V299H155.695ZM167.391 291.914C166.76 291.914 166.237 292.133 165.82 292.57C165.409 293.003 165.182 293.56 165.141 294.242H169.555C169.539 293.555 169.333 292.995 168.938 292.562C168.542 292.13 168.026 291.914 167.391 291.914ZM169.523 296.672H170.859C170.74 297.391 170.365 297.982 169.734 298.445C169.109 298.909 168.357 299.141 167.477 299.141C166.315 299.141 165.401 298.766 164.734 298.016C164.068 297.266 163.734 296.25 163.734 294.969C163.734 293.698 164.068 292.674 164.734 291.898C165.406 291.122 166.299 290.734 167.414 290.734C168.508 290.734 169.372 291.102 170.008 291.836C170.643 292.57 170.961 293.555 170.961 294.789V295.305H165.133V295.383C165.133 296.164 165.346 296.789 165.773 297.258C166.201 297.727 166.779 297.961 167.508 297.961C168.018 297.961 168.453 297.844 168.812 297.609C169.172 297.375 169.409 297.062 169.523 296.672ZM173.266 301.242H172.133L172.891 297.266H174.336L173.266 301.242ZM178.859 290.977C178.859 289.992 179.214 289.174 179.922 288.523C180.63 287.867 181.516 287.539 182.578 287.539C183.583 287.539 184.435 287.839 185.133 288.438C185.831 289.036 186.18 289.768 186.18 290.633C186.18 291.258 186.008 291.859 185.664 292.438C185.32 293.016 184.674 293.794 183.727 294.773L180.875 297.719V297.75H186.367V299H178.93V298.031L182.898 293.852C183.654 293.055 184.154 292.451 184.398 292.039C184.648 291.628 184.773 291.188 184.773 290.719C184.773 290.177 184.555 289.716 184.117 289.336C183.685 288.956 183.159 288.766 182.539 288.766C181.878 288.766 181.326 288.977 180.883 289.398C180.44 289.82 180.219 290.346 180.219 290.977V290.984H178.859V290.977ZM191.938 299.188C190.63 299.188 189.609 298.667 188.875 297.625C188.146 296.578 187.781 295.156 187.781 293.359C187.781 291.578 188.148 290.164 188.883 289.117C189.622 288.065 190.641 287.539 191.938 287.539C193.234 287.539 194.247 288.062 194.977 289.109C195.711 290.151 196.078 291.565 196.078 293.352C196.078 295.148 195.714 296.57 194.984 297.617C194.255 298.664 193.24 299.188 191.938 299.188ZM189.914 296.727C190.393 297.549 191.068 297.961 191.938 297.961C192.807 297.961 193.479 297.552 193.953 296.734C194.427 295.911 194.664 294.786 194.664 293.359C194.664 291.953 194.424 290.839 193.945 290.016C193.466 289.188 192.797 288.773 191.938 288.773C191.078 288.773 190.406 289.188 189.922 290.016C189.438 290.844 189.195 291.956 189.195 293.352C189.195 294.779 189.435 295.904 189.914 296.727ZM197.469 290.977C197.469 289.992 197.823 289.174 198.531 288.523C199.24 287.867 200.125 287.539 201.188 287.539C202.193 287.539 203.044 287.839 203.742 288.438C204.44 289.036 204.789 289.768 204.789 290.633C204.789 291.258 204.617 291.859 204.273 292.438C203.93 293.016 203.284 293.794 202.336 294.773L199.484 297.719V297.75H204.977V299H197.539V298.031L201.508 293.852C202.263 293.055 202.763 292.451 203.008 292.039C203.258 291.628 203.383 291.188 203.383 290.719C203.383 290.177 203.164 289.716 202.727 289.336C202.294 288.956 201.768 288.766 201.148 288.766C200.487 288.766 199.935 288.977 199.492 289.398C199.049 289.82 198.828 290.346 198.828 290.977V290.984H197.469V290.977ZM208.898 293.797V292.609H210.25C210.896 292.609 211.424 292.424 211.836 292.055C212.247 291.68 212.453 291.206 212.453 290.633C212.453 290.06 212.263 289.604 211.883 289.266C211.503 288.927 210.964 288.758 210.266 288.758C209.62 288.758 209.094 288.93 208.688 289.273C208.281 289.617 208.047 290.086 207.984 290.68H206.633C206.711 289.721 207.081 288.958 207.742 288.391C208.409 287.823 209.271 287.539 210.328 287.539C211.344 287.539 212.188 287.812 212.859 288.359C213.531 288.906 213.867 289.602 213.867 290.445C213.867 291.148 213.659 291.74 213.242 292.219C212.826 292.698 212.263 293 211.555 293.125V293.156C212.409 293.208 213.089 293.482 213.594 293.977C214.099 294.466 214.352 295.107 214.352 295.898C214.352 296.529 214.174 297.096 213.82 297.602C213.466 298.107 212.987 298.497 212.383 298.773C211.779 299.049 211.109 299.188 210.375 299.188C209.208 299.188 208.268 298.896 207.555 298.312C206.841 297.729 206.458 296.964 206.406 296.016H207.758C207.82 296.604 208.083 297.078 208.547 297.438C209.01 297.792 209.615 297.969 210.359 297.969C211.104 297.969 211.716 297.779 212.195 297.398C212.68 297.018 212.922 296.534 212.922 295.945C212.922 295.284 212.688 294.76 212.219 294.375C211.755 293.99 211.12 293.797 210.312 293.797H208.898Z" fill="#9E9E9E"/>
<path d="M116.809 259.289H119.398C119.492 260.125 119.91 260.797 120.652 261.305C121.395 261.812 122.324 262.066 123.441 262.066C124.504 262.066 125.379 261.82 126.066 261.328C126.762 260.836 127.109 260.211 127.109 259.453C127.109 258.797 126.863 258.262 126.371 257.848C125.879 257.426 125.086 257.082 123.992 256.816L121.801 256.289C120.246 255.914 119.098 255.355 118.355 254.613C117.621 253.871 117.254 252.91 117.254 251.73C117.254 250.277 117.824 249.094 118.965 248.18C120.113 247.266 121.594 246.809 123.406 246.809C125.188 246.809 126.641 247.266 127.766 248.18C128.891 249.086 129.473 250.27 129.512 251.73H126.957C126.879 250.895 126.516 250.234 125.867 249.75C125.227 249.266 124.395 249.023 123.371 249.023C122.355 249.023 121.527 249.258 120.887 249.727C120.254 250.195 119.938 250.805 119.938 251.555C119.938 252.148 120.176 252.637 120.652 253.02C121.129 253.395 121.914 253.719 123.008 253.992L124.871 254.449C126.605 254.855 127.855 255.43 128.621 256.172C129.395 256.906 129.781 257.895 129.781 259.137C129.781 260.715 129.195 261.969 128.023 262.898C126.852 263.82 125.262 264.281 123.254 264.281C121.371 264.281 119.844 263.832 118.672 262.934C117.508 262.027 116.887 260.812 116.809 259.289ZM139.133 254.379C138.578 253.785 137.863 253.488 136.988 253.488C136.113 253.488 135.387 253.789 134.809 254.391C134.23 254.984 133.91 255.754 133.848 256.699H140.012C139.98 255.746 139.688 254.973 139.133 254.379ZM140 260.379H142.402C142.223 261.512 141.645 262.438 140.668 263.156C139.691 263.875 138.5 264.234 137.094 264.234C135.289 264.234 133.867 263.668 132.828 262.535C131.797 261.395 131.281 259.848 131.281 257.895C131.281 255.957 131.797 254.398 132.828 253.219C133.867 252.039 135.254 251.449 136.988 251.449C138.691 251.449 140.043 252.008 141.043 253.125C142.043 254.234 142.543 255.727 142.543 257.602V258.469H133.836V258.621C133.836 259.699 134.137 260.562 134.738 261.211C135.34 261.859 136.145 262.184 137.152 262.184C137.863 262.184 138.473 262.02 138.98 261.691C139.488 261.363 139.828 260.926 140 260.379ZM155.094 255.914H152.68C152.547 255.219 152.227 254.652 151.719 254.215C151.219 253.777 150.574 253.559 149.785 253.559C148.801 253.559 148.012 253.945 147.418 254.719C146.832 255.484 146.539 256.523 146.539 257.836C146.539 259.172 146.832 260.219 147.418 260.977C148.012 261.734 148.809 262.113 149.809 262.113C150.582 262.113 151.215 261.914 151.707 261.516C152.207 261.109 152.531 260.547 152.68 259.828H155.117C154.984 261.148 154.43 262.215 153.453 263.027C152.484 263.832 151.262 264.234 149.785 264.234C148.012 264.234 146.598 263.664 145.543 262.523C144.488 261.375 143.961 259.812 143.961 257.836C143.961 255.883 144.488 254.332 145.543 253.184C146.598 252.027 148.004 251.449 149.762 251.449C151.293 251.449 152.535 251.879 153.488 252.738C154.441 253.59 154.977 254.648 155.094 255.914ZM166.461 262.523C165.398 263.664 163.98 264.234 162.207 264.234C160.434 264.234 159.016 263.664 157.953 262.523C156.891 261.375 156.359 259.812 156.359 257.836C156.359 255.867 156.891 254.312 157.953 253.172C159.016 252.023 160.434 251.449 162.207 251.449C163.98 251.449 165.398 252.023 166.461 253.172C167.523 254.312 168.055 255.867 168.055 257.836C168.055 259.812 167.523 261.375 166.461 262.523ZM162.207 262.148C163.215 262.148 164.012 261.77 164.598 261.012C165.184 260.254 165.477 259.195 165.477 257.836C165.477 256.484 165.18 255.43 164.586 254.672C164 253.914 163.207 253.535 162.207 253.535C161.207 253.535 160.41 253.914 159.816 254.672C159.23 255.43 158.938 256.484 158.938 257.836C158.938 259.195 159.23 260.254 159.816 261.012C160.41 261.77 161.207 262.148 162.207 262.148ZM170.012 264V251.672H172.426V253.734H172.484C172.828 253.016 173.328 252.457 173.984 252.059C174.641 251.66 175.434 251.461 176.363 251.461C177.715 251.461 178.766 251.867 179.516 252.68C180.266 253.484 180.641 254.598 180.641 256.02V264H178.098V256.512C178.098 255.574 177.875 254.863 177.43 254.379C176.992 253.887 176.34 253.641 175.473 253.641C174.582 253.641 173.871 253.93 173.34 254.508C172.809 255.086 172.543 255.855 172.543 256.816V264H170.012ZM187.719 264.211C186.156 264.211 184.902 263.633 183.957 262.477C183.012 261.32 182.539 259.773 182.539 257.836C182.539 255.898 183.008 254.355 183.945 253.207C184.891 252.051 186.141 251.473 187.695 251.473C188.562 251.473 189.336 251.676 190.016 252.082C190.695 252.48 191.211 253.027 191.562 253.723H191.609V247.09H194.152V264H191.691V261.902H191.645C191.277 262.621 190.75 263.188 190.062 263.602C189.383 264.008 188.602 264.211 187.719 264.211ZM188.387 253.605C187.387 253.605 186.594 253.988 186.008 254.754C185.422 255.512 185.129 256.539 185.129 257.836C185.129 259.141 185.422 260.172 186.008 260.93C186.594 261.688 187.387 262.066 188.387 262.066C189.363 262.066 190.148 261.684 190.742 260.918C191.336 260.145 191.633 259.117 191.633 257.836C191.633 256.562 191.336 255.539 190.742 254.766C190.148 253.992 189.363 253.605 188.387 253.605ZM208.051 251.473C209.621 251.473 210.879 252.047 211.824 253.195C212.77 254.344 213.242 255.891 213.242 257.836C213.242 259.781 212.773 261.332 211.836 262.488C210.898 263.637 209.652 264.211 208.098 264.211C207.223 264.211 206.445 264.012 205.766 263.613C205.094 263.215 204.578 262.668 204.219 261.973H204.16V268.078H201.629V251.672H204.078V253.793H204.125C204.492 253.074 205.02 252.508 205.707 252.094C206.395 251.68 207.176 251.473 208.051 251.473ZM207.383 262.066C208.383 262.066 209.176 261.688 209.762 260.93C210.348 260.164 210.641 259.133 210.641 257.836C210.641 256.547 210.348 255.52 209.762 254.754C209.176 253.988 208.383 253.605 207.383 253.605C206.414 253.605 205.633 253.992 205.039 254.766C204.445 255.539 204.148 256.562 204.148 257.836C204.148 259.117 204.441 260.145 205.027 260.918C205.621 261.684 206.406 262.066 207.383 262.066ZM219.512 262.207C220.402 262.207 221.148 261.938 221.75 261.398C222.359 260.852 222.664 260.18 222.664 259.383V258.41L219.629 258.598C218.871 258.652 218.285 258.84 217.871 259.16C217.465 259.473 217.262 259.895 217.262 260.426C217.262 260.965 217.465 261.398 217.871 261.727C218.285 262.047 218.832 262.207 219.512 262.207ZM218.809 264.211C217.598 264.211 216.609 263.867 215.844 263.18C215.086 262.492 214.707 261.598 214.707 260.496C214.707 259.418 215.105 258.562 215.902 257.93C216.699 257.289 217.828 256.93 219.289 256.852L222.664 256.652V255.703C222.664 255.016 222.445 254.48 222.008 254.098C221.57 253.707 220.965 253.512 220.191 253.512C219.473 253.512 218.887 253.672 218.434 253.992C217.988 254.312 217.707 254.754 217.59 255.316H215.199C215.27 254.176 215.762 253.246 216.676 252.527C217.59 251.809 218.793 251.449 220.285 251.449C221.777 251.449 222.965 251.816 223.848 252.551C224.738 253.285 225.184 254.27 225.184 255.504V264H222.758V261.973H222.699C222.348 262.652 221.812 263.195 221.094 263.602C220.383 264.008 219.621 264.211 218.809 264.211ZM228.863 268.594C228.387 268.594 228.043 268.574 227.832 268.535V266.484C227.957 266.516 228.23 266.531 228.652 266.531C229.246 266.531 229.711 266.395 230.047 266.121C230.383 265.855 230.648 265.406 230.844 264.773C230.844 264.766 230.883 264.637 230.961 264.387L231.066 264.012L226.613 251.672H229.355L232.484 261.703H232.52L235.648 251.672H238.32L233.691 264.645C233.168 266.137 232.555 267.168 231.852 267.738C231.148 268.309 230.152 268.594 228.863 268.594ZM239.809 264V251.672H242.223V253.746H242.281C242.562 253.051 243.012 252.496 243.629 252.082C244.246 251.668 244.965 251.461 245.785 251.461C246.637 251.461 247.359 251.672 247.953 252.094C248.555 252.516 248.98 253.109 249.23 253.875H249.289C249.609 253.125 250.109 252.535 250.789 252.105C251.477 251.676 252.258 251.461 253.133 251.461C254.352 251.461 255.328 251.832 256.062 252.574C256.797 253.316 257.164 254.301 257.164 255.527V264H254.621V256.137C254.621 255.34 254.414 254.723 254 254.285C253.594 253.848 253.016 253.629 252.266 253.629C251.516 253.629 250.902 253.879 250.426 254.379C249.957 254.879 249.723 255.52 249.723 256.301V264H247.238V255.949C247.238 255.238 247.027 254.676 246.605 254.262C246.184 253.84 245.617 253.629 244.906 253.629C244.156 253.629 243.539 253.891 243.055 254.414C242.578 254.93 242.34 255.586 242.34 256.383V264H239.809ZM266.914 254.379C266.359 253.785 265.645 253.488 264.77 253.488C263.895 253.488 263.168 253.789 262.59 254.391C262.012 254.984 261.691 255.754 261.629 256.699H267.793C267.762 255.746 267.469 254.973 266.914 254.379ZM267.781 260.379H270.184C270.004 261.512 269.426 262.438 268.449 263.156C267.473 263.875 266.281 264.234 264.875 264.234C263.07 264.234 261.648 263.668 260.609 262.535C259.578 261.395 259.062 259.848 259.062 257.895C259.062 255.957 259.578 254.398 260.609 253.219C261.648 252.039 263.035 251.449 264.77 251.449C266.473 251.449 267.824 252.008 268.824 253.125C269.824 254.234 270.324 255.727 270.324 257.602V258.469H261.617V258.621C261.617 259.699 261.918 260.562 262.52 261.211C263.121 261.859 263.926 262.184 264.934 262.184C265.645 262.184 266.254 262.02 266.762 261.691C267.27 261.363 267.609 260.926 267.781 260.379ZM272.293 264V251.672H274.707V253.734H274.766C275.109 253.016 275.609 252.457 276.266 252.059C276.922 251.66 277.715 251.461 278.645 251.461C279.996 251.461 281.047 251.867 281.797 252.68C282.547 253.484 282.922 254.598 282.922 256.02V264H280.379V256.512C280.379 255.574 280.156 254.863 279.711 254.379C279.273 253.887 278.621 253.641 277.754 253.641C276.863 253.641 276.152 253.93 275.621 254.508C275.09 255.086 274.824 255.855 274.824 256.816V264H272.293ZM286.109 248.754H288.652V251.672H290.996V253.676H288.652V260.473C288.652 261.004 288.773 261.395 289.016 261.645C289.258 261.895 289.637 262.02 290.152 262.02C290.527 262.02 290.805 262 290.984 261.961V263.965C290.672 264.043 290.203 264.082 289.578 264.082C288.336 264.082 287.445 263.828 286.906 263.32C286.375 262.805 286.109 261.949 286.109 260.754V253.676H284.316V251.672H286.109V248.754Z" fill="black"/>
<path d="M120.184 386H117.559V369.09H128.117V371.352H120.184V376.707H127.449V378.922H120.184V386ZM130.18 386V373.672H132.711V386H130.18ZM132.488 371.445C132.199 371.727 131.852 371.867 131.445 371.867C131.039 371.867 130.691 371.727 130.402 371.445C130.121 371.164 129.98 370.824 129.98 370.426C129.98 370.02 130.121 369.676 130.402 369.395C130.691 369.113 131.039 368.973 131.445 368.973C131.859 368.973 132.207 369.113 132.488 369.395C132.777 369.676 132.922 370.02 132.922 370.426C132.922 370.824 132.777 371.164 132.488 371.445ZM135.301 386V373.672H137.715V375.734H137.773C138.117 375.016 138.617 374.457 139.273 374.059C139.93 373.66 140.723 373.461 141.652 373.461C143.004 373.461 144.055 373.867 144.805 374.68C145.555 375.484 145.93 376.598 145.93 378.02V386H143.387V378.512C143.387 377.574 143.164 376.863 142.719 376.379C142.281 375.887 141.629 375.641 140.762 375.641C139.871 375.641 139.16 375.93 138.629 376.508C138.098 377.086 137.832 377.855 137.832 378.816V386H135.301ZM152.691 384.207C153.582 384.207 154.328 383.938 154.93 383.398C155.539 382.852 155.844 382.18 155.844 381.383V380.41L152.809 380.598C152.051 380.652 151.465 380.84 151.051 381.16C150.645 381.473 150.441 381.895 150.441 382.426C150.441 382.965 150.645 383.398 151.051 383.727C151.465 384.047 152.012 384.207 152.691 384.207ZM151.988 386.211C150.777 386.211 149.789 385.867 149.023 385.18C148.266 384.492 147.887 383.598 147.887 382.496C147.887 381.418 148.285 380.562 149.082 379.93C149.879 379.289 151.008 378.93 152.469 378.852L155.844 378.652V377.703C155.844 377.016 155.625 376.48 155.188 376.098C154.75 375.707 154.145 375.512 153.371 375.512C152.652 375.512 152.066 375.672 151.613 375.992C151.168 376.312 150.887 376.754 150.77 377.316H148.379C148.449 376.176 148.941 375.246 149.855 374.527C150.77 373.809 151.973 373.449 153.465 373.449C154.957 373.449 156.145 373.816 157.027 374.551C157.918 375.285 158.363 376.27 158.363 377.504V386H155.938V383.973H155.879C155.527 384.652 154.992 385.195 154.273 385.602C153.562 386.008 152.801 386.211 151.988 386.211ZM160.918 386V369.09H163.449V386H160.918ZM177.348 373.473C178.918 373.473 180.176 374.047 181.121 375.195C182.066 376.344 182.539 377.891 182.539 379.836C182.539 381.781 182.07 383.332 181.133 384.488C180.195 385.637 178.949 386.211 177.395 386.211C176.52 386.211 175.742 386.012 175.062 385.613C174.391 385.215 173.875 384.668 173.516 383.973H173.457V390.078H170.926V373.672H173.375V375.793H173.422C173.789 375.074 174.316 374.508 175.004 374.094C175.691 373.68 176.473 373.473 177.348 373.473ZM176.68 384.066C177.68 384.066 178.473 383.688 179.059 382.93C179.645 382.164 179.938 381.133 179.938 379.836C179.938 378.547 179.645 377.52 179.059 376.754C178.473 375.988 177.68 375.605 176.68 375.605C175.711 375.605 174.93 375.992 174.336 376.766C173.742 377.539 173.445 378.562 173.445 379.836C173.445 381.117 173.738 382.145 174.324 382.918C174.918 383.684 175.703 384.066 176.68 384.066ZM188.809 384.207C189.699 384.207 190.445 383.938 191.047 383.398C191.656 382.852 191.961 382.18 191.961 381.383V380.41L188.926 380.598C188.168 380.652 187.582 380.84 187.168 381.16C186.762 381.473 186.559 381.895 186.559 382.426C186.559 382.965 186.762 383.398 187.168 383.727C187.582 384.047 188.129 384.207 188.809 384.207ZM188.105 386.211C186.895 386.211 185.906 385.867 185.141 385.18C184.383 384.492 184.004 383.598 184.004 382.496C184.004 381.418 184.402 380.562 185.199 379.93C185.996 379.289 187.125 378.93 188.586 378.852L191.961 378.652V377.703C191.961 377.016 191.742 376.48 191.305 376.098C190.867 375.707 190.262 375.512 189.488 375.512C188.77 375.512 188.184 375.672 187.73 375.992C187.285 376.312 187.004 376.754 186.887 377.316H184.496C184.566 376.176 185.059 375.246 185.973 374.527C186.887 373.809 188.09 373.449 189.582 373.449C191.074 373.449 192.262 373.816 193.145 374.551C194.035 375.285 194.48 376.27 194.48 377.504V386H192.055V383.973H191.996C191.645 384.652 191.109 385.195 190.391 385.602C189.68 386.008 188.918 386.211 188.105 386.211ZM198.16 390.594C197.684 390.594 197.34 390.574 197.129 390.535V388.484C197.254 388.516 197.527 388.531 197.949 388.531C198.543 388.531 199.008 388.395 199.344 388.121C199.68 387.855 199.945 387.406 200.141 386.773C200.141 386.766 200.18 386.637 200.258 386.387L200.363 386.012L195.91 373.672H198.652L201.781 383.703H201.816L204.945 373.672H207.617L202.988 386.645C202.465 388.137 201.852 389.168 201.148 389.738C200.445 390.309 199.449 390.594 198.16 390.594ZM209.105 386V373.672H211.52V375.746H211.578C211.859 375.051 212.309 374.496 212.926 374.082C213.543 373.668 214.262 373.461 215.082 373.461C215.934 373.461 216.656 373.672 217.25 374.094C217.852 374.516 218.277 375.109 218.527 375.875H218.586C218.906 375.125 219.406 374.535 220.086 374.105C220.773 373.676 221.555 373.461 222.43 373.461C223.648 373.461 224.625 373.832 225.359 374.574C226.094 375.316 226.461 376.301 226.461 377.527V386H223.918V378.137C223.918 377.34 223.711 376.723 223.297 376.285C222.891 375.848 222.312 375.629 221.562 375.629C220.812 375.629 220.199 375.879 219.723 376.379C219.254 376.879 219.02 377.52 219.02 378.301V386H216.535V377.949C216.535 377.238 216.324 376.676 215.902 376.262C215.48 375.84 214.914 375.629 214.203 375.629C213.453 375.629 212.836 375.891 212.352 376.414C211.875 376.93 211.637 377.586 211.637 378.383V386H209.105ZM236.211 376.379C235.656 375.785 234.941 375.488 234.066 375.488C233.191 375.488 232.465 375.789 231.887 376.391C231.309 376.984 230.988 377.754 230.926 378.699H237.09C237.059 377.746 236.766 376.973 236.211 376.379ZM237.078 382.379H239.48C239.301 383.512 238.723 384.438 237.746 385.156C236.77 385.875 235.578 386.234 234.172 386.234C232.367 386.234 230.945 385.668 229.906 384.535C228.875 383.395 228.359 381.848 228.359 379.895C228.359 377.957 228.875 376.398 229.906 375.219C230.945 374.039 232.332 373.449 234.066 373.449C235.77 373.449 237.121 374.008 238.121 375.125C239.121 376.234 239.621 377.727 239.621 379.602V380.469H230.914V380.621C230.914 381.699 231.215 382.562 231.816 383.211C232.418 383.859 233.223 384.184 234.23 384.184C234.941 384.184 235.551 384.02 236.059 383.691C236.566 383.363 236.906 382.926 237.078 382.379ZM241.59 386V373.672H244.004V375.734H244.062C244.406 375.016 244.906 374.457 245.562 374.059C246.219 373.66 247.012 373.461 247.941 373.461C249.293 373.461 250.344 373.867 251.094 374.68C251.844 375.484 252.219 376.598 252.219 378.02V386H249.676V378.512C249.676 377.574 249.453 376.863 249.008 376.379C248.57 375.887 247.918 375.641 247.051 375.641C246.16 375.641 245.449 375.93 244.918 376.508C244.387 377.086 244.121 377.855 244.121 378.816V386H241.59ZM255.406 370.754H257.949V373.672H260.293V375.676H257.949V382.473C257.949 383.004 258.07 383.395 258.312 383.645C258.555 383.895 258.934 384.02 259.449 384.02C259.824 384.02 260.102 384 260.281 383.961V385.965C259.969 386.043 259.5 386.082 258.875 386.082C257.633 386.082 256.742 385.828 256.203 385.32C255.672 384.805 255.406 383.949 255.406 382.754V375.676H253.613V373.672H255.406V370.754Z" fill="black"/>
<circle cx="636.5" cy="7.5" r="49.75" stroke="#333333" stroke-width="1.5"/>
<path d="M610 459V491C610 499.837 602.837 507 594 507H562" stroke="#333333"/>
<circle cx="556" cy="507" r="5.5" fill="white" stroke="#333333"/>
<circle cx="610" cy="453" r="5.5" stroke="#333333"/>
<circle cx="157" cy="507" r="5.5" fill="#00D085" stroke="#333333"/>
<circle cx="578" cy="136" r="6.5" fill="#267DFF" stroke="black"/>
<circle cx="441" cy="31" r="5.5" fill="#9867FF" stroke="black"/>
</g>
<defs>
<clipPath id="clip0_2111_17846">
<rect width="642" height="539" rx="10" fill="white"/>
</clipPath>
</defs>
</svg>
